<ttFont>
<head>
    <!-- Most of this table will be recalculated by the compiler -->
    <tableVersion value="1.0"/>
    <fontRevision value="5.0"/>
    <checkSumAdjustment value="0x451e2698"/>
    <magicNumber value="0x5f0f3cf5"/>
    <flags value="00000000 00001011"/>
    <unitsPerEm value="2048"/>
    <created value="Sun May 15 08:57:39 2005"/>
    <modified value="Wed Apr 13 18:20:58 2011"/>
    <xMin value="0"/>
    <yMin value="-969"/>
    <xMax value="8611"/>
    <yMax value="2047"/>
    <macStyle value="00000000 00000000"/>
    <lowestRecPPEM value="8"/>
    <fontDirectionHint value="2"/>
    <indexToLocFormat value="0"/>
    <glyphDataFormat value="0"/>
  </head>
    <TTGlyph name=".notdef" xMin="142" yMin="226" xMax="842" yMax="1588">
      <contour>
        <pt x="142" y="226" on="1"/>
        <pt x="142" y="1588" on="1"/>
        <pt x="842" y="1588" on="1"/>
        <pt x="842" y="226" on="1"/>
      </contour>
      <contour>
        <pt x="284" y="368" on="1"/>
        <pt x="700" y="368" on="1"/>
        <pt x="700" y="1447" on="1"/>
        <pt x="284" y="1447" on="1"/>
      </contour>
    </TTGlyph>
    <TTGlyph name=".null" xMin="142" yMin="226" xMax="842" yMax="1588">
      <contour>
        <pt x="142" y="226" on="1"/>
        <pt x="142" y="1588" on="1"/>
        <pt x="842" y="1588" on="1"/>
        <pt x="842" y="226" on="1"/>
      </contour>
      <contour>
        <pt x="284" y="368" on="1"/>
        <pt x="700" y="368" on="1"/>
        <pt x="700" y="1447" on="1"/>
        <pt x="284" y="1447" on="1"/>
      </contour>
    </TTGlyph>
    <TTGlyph name="afii57381" xMin="142" yMin="226" xMax="842" yMax="1588">
      <contour>
        <pt x="142" y="226" on="1"/>
        <pt x="142" y="1588" on="1"/>
        <pt x="842" y="1588" on="1"/>
        <pt x="842" y="226" on="1"/>
      </contour>
      <contour>
        <pt x="284" y="368" on="1"/>
        <pt x="700" y="368" on="1"/>
        <pt x="700" y="1447" on="1"/>
        <pt x="284" y="1447" on="1"/>
      </contour>
    </TTGlyph>
    <TTGlyph name="afii57388" xMin="142" yMin="226" xMax="842" yMax="1588">
      <contour>
        <pt x="142" y="226" on="1"/>
        <pt x="142" y="1588" on="1"/>
        <pt x="842" y="1588" on="1"/>
        <pt x="842" y="226" on="1"/>
      </contour>
      <contour>
        <pt x="284" y="368" on="1"/>
        <pt x="700" y="368" on="1"/>
        <pt x="700" y="1447" on="1"/>
        <pt x="284" y="1447" on="1"/>
      </contour>
    </TTGlyph>
    <TTGlyph name="afii57396" xMin="142" yMin="226" xMax="842" yMax="1588">
      <contour>
        <pt x="142" y="226" on="1"/>
        <pt x="142" y="1588" on="1"/>
        <pt x="842" y="1588" on="1"/>
        <pt x="842" y="226" on="1"/>
      </contour>
      <contour>
        <pt x="284" y="368" on="1"/>
        <pt x="700" y="368" on="1"/>
        <pt x="700" y="1447" on="1"/>
        <pt x="284" y="1447" on="1"/>
      </contour>
    </TTGlyph>
    <TTGlyph name="afii57397" xMin="142" yMin="226" xMax="842" yMax="1588">
      <contour>
        <pt x="142" y="226" on="1"/>
        <pt x="142" y="1588" on="1"/>
        <pt x="842" y="1588" on="1"/>
        <pt x="842" y="226" on="1"/>
      </contour>
      <contour>
        <pt x="284" y="368" on="1"/>
        <pt x="700" y="368" on="1"/>
        <pt x="700" y="1447" on="1"/>
        <pt x="284" y="1447" on="1"/>
      </contour>
    </TTGlyph>
    <TTGlyph name="afii57398" xMin="142" yMin="226" xMax="842" yMax="1588">
      <contour>
        <pt x="142" y="226" on="1"/>
        <pt x="142" y="1588" on="1"/>
        <pt x="842" y="1588" on="1"/>
        <pt x="842" y="226" on="1"/>
      </contour>
      <contour>
        <pt x="284" y="368" on="1"/>
        <pt x="700" y="368" on="1"/>
        <pt x="700" y="1447" on="1"/>
        <pt x="284" y="1447" on="1"/>
      </contour>
    </TTGlyph>
    <TTGlyph name="afii57403" xMin="142" yMin="226" xMax="842" yMax="1588">
      <contour>
        <pt x="142" y="226" on="1"/>
        <pt x="142" y="1588" on="1"/>
        <pt x="842" y="1588" on="1"/>
        <pt x="842" y="226" on="1"/>
      </contour>
      <contour>
        <pt x="284" y="368" on="1"/>
        <pt x="700" y="368" on="1"/>
        <pt x="700" y="1447" on="1"/>
        <pt x="284" y="1447" on="1"/>
      </contour>
    </TTGlyph>
    <TTGlyph name="afii57407" xMin="142" yMin="226" xMax="842" yMax="1588">
      <contour>
        <pt x="142" y="226" on="1"/>
        <pt x="142" y="1588" on="1"/>
        <pt x="842" y="1588" on="1"/>
        <pt x="842" y="226" on="1"/>
      </contour>
      <contour>
        <pt x="284" y="368" on="1"/>
        <pt x="700" y="368" on="1"/>
        <pt x="700" y="1447" on="1"/>
        <pt x="284" y="1447" on="1"/>
      </contour>
    </TTGlyph>
    <TTGlyph name="afii57440" xMin="142" yMin="226" xMax="842" yMax="1588">
      <contour>
        <pt x="142" y="226" on="1"/>
        <pt x="142" y="1588" on="1"/>
        <pt x="842" y="1588" on="1"/>
        <pt x="842" y="226" on="1"/>
      </contour>
      <contour>
        <pt x="284" y="368" on="1"/>
        <pt x="700" y="368" on="1"/>
        <pt x="700" y="1447" on="1"/>
        <pt x="284" y="1447" on="1"/>
      </contour>
    </TTGlyph>
    <TTGlyph name="afii57451" xMin="142" yMin="226" xMax="842" yMax="1588">
      <contour>
        <pt x="142" y="226" on="1"/>
        <pt x="142" y="1588" on="1"/>
        <pt x="842" y="1588" on="1"/>
        <pt x="842" y="226" on="1"/>
      </contour>
      <contour>
        <pt x="284" y="368" on="1"/>
        <pt x="700" y="368" on="1"/>
        <pt x="700" y="1447" on="1"/>
        <pt x="284" y="1447" on="1"/>
      </contour>
    </TTGlyph>
    <TTGlyph name="afii57452" xMin="142" yMin="226" xMax="842" yMax="1588">
      <contour>
        <pt x="142" y="226" on="1"/>
        <pt x="142" y="1588" on="1"/>
        <pt x="842" y="1588" on="1"/>
        <pt x="842" y="226" on="1"/>
      </contour>
      <contour>
        <pt x="284" y="368" on="1"/>
        <pt x="700" y="368" on="1"/>
        <pt x="700" y="1447" on="1"/>
        <pt x="284" y="1447" on="1"/>
      </contour>
    </TTGlyph>
    <TTGlyph name="afii57453" xMin="142" yMin="226" xMax="842" yMax="1588">
      <contour>
        <pt x="142" y="226" on="1"/>
        <pt x="142" y="1588" on="1"/>
        <pt x="842" y="1588" on="1"/>
        <pt x="842" y="226" on="1"/>
      </contour>
      <contour>
        <pt x="284" y="368" on="1"/>
        <pt x="700" y="368" on="1"/>
        <pt x="700" y="1447" on="1"/>
        <pt x="284" y="1447" on="1"/>
      </contour>
    </TTGlyph>
    <TTGlyph name="afii57454" xMin="142" yMin="226" xMax="842" yMax="1588">
      <contour>
        <pt x="142" y="226" on="1"/>
        <pt x="142" y="1588" on="1"/>
        <pt x="842" y="1588" on="1"/>
        <pt x="842" y="226" on="1"/>
      </contour>
      <contour>
        <pt x="284" y="368" on="1"/>
        <pt x="700" y="368" on="1"/>
        <pt x="700" y="1447" on="1"/>
        <pt x="284" y="1447" on="1"/>
      </contour>
    </TTGlyph>
    <TTGlyph name="afii57455" xMin="142" yMin="226" xMax="842" yMax="1588">
      <contour>
        <pt x="142" y="226" on="1"/>
        <pt x="142" y="1588" on="1"/>
        <pt x="842" y="1588" on="1"/>
        <pt x="842" y="226" on="1"/>
      </contour>
      <contour>
        <pt x="284" y="368" on="1"/>
        <pt x="700" y="368" on="1"/>
        <pt x="700" y="1447" on="1"/>
        <pt x="284" y="1447" on="1"/>
      </contour>
    </TTGlyph>
    <TTGlyph name="afii57456" xMin="142" yMin="226" xMax="842" yMax="1588">
      <contour>
        <pt x="142" y="226" on="1"/>
        <pt x="142" y="1588" on="1"/>
        <pt x="842" y="1588" on="1"/>
        <pt x="842" y="226" on="1"/>
      </contour>
      <contour>
        <pt x="284" y="368" on="1"/>
        <pt x="700" y="368" on="1"/>
        <pt x="700" y="1447" on="1"/>
        <pt x="284" y="1447" on="1"/>
      </contour>
    </TTGlyph>
    <TTGlyph name="afii57457" xMin="142" yMin="226" xMax="842" yMax="1588">
      <contour>
        <pt x="142" y="226" on="1"/>
        <pt x="142" y="1588" on="1"/>
        <pt x="842" y="1588" on="1"/>
        <pt x="842" y="226" on="1"/>
      </contour>
      <contour>
        <pt x="284" y="368" on="1"/>
        <pt x="700" y="368" on="1"/>
        <pt x="700" y="1447" on="1"/>
        <pt x="284" y="1447" on="1"/>
      </contour>
    </TTGlyph>
    <TTGlyph name="afii57458" xMin="142" yMin="226" xMax="842" yMax="1588">
      <contour>
        <pt x="142" y="226" on="1"/>
        <pt x="142" y="1588" on="1"/>
        <pt x="842" y="1588" on="1"/>
        <pt x="842" y="226" on="1"/>
      </contour>
      <contour>
        <pt x="284" y="368" on="1"/>
        <pt x="700" y="368" on="1"/>
        <pt x="700" y="1447" on="1"/>
        <pt x="284" y="1447" on="1"/>
      </contour>
    </TTGlyph>
    <TTGlyph name="afii57505" xMin="142" yMin="226" xMax="842" yMax="1588">
      <contour>
        <pt x="142" y="226" on="1"/>
        <pt x="142" y="1588" on="1"/>
        <pt x="842" y="1588" on="1"/>
        <pt x="842" y="226" on="1"/>
      </contour>
      <contour>
        <pt x="284" y="368" on="1"/>
        <pt x="700" y="368" on="1"/>
        <pt x="700" y="1447" on="1"/>
        <pt x="284" y="1447" on="1"/>
      </contour>
    </TTGlyph>
    <TTGlyph name="afii57506" xMin="142" yMin="226" xMax="842" yMax="1588">
      <contour>
        <pt x="142" y="226" on="1"/>
        <pt x="142" y="1588" on="1"/>
        <pt x="842" y="1588" on="1"/>
        <pt x="842" y="226" on="1"/>
      </contour>
      <contour>
        <pt x="284" y="368" on="1"/>
        <pt x="700" y="368" on="1"/>
        <pt x="700" y="1447" on="1"/>
        <pt x="284" y="1447" on="1"/>
      </contour>
    </TTGlyph>
    <TTGlyph name="afii57507" xMin="142" yMin="226" xMax="842" yMax="1588">
      <contour>
        <pt x="142" y="226" on="1"/>
        <pt x="142" y="1588" on="1"/>
        <pt x="842" y="1588" on="1"/>
        <pt x="842" y="226" on="1"/>
      </contour>
      <contour>
        <pt x="284" y="368" on="1"/>
        <pt x="700" y="368" on="1"/>
        <pt x="700" y="1447" on="1"/>
        <pt x="284" y="1447" on="1"/>
      </contour>
    </TTGlyph>
    <TTGlyph name="afii57508" xMin="142" yMin="226" xMax="842" yMax="1588">
      <contour>
        <pt x="142" y="226" on="1"/>
        <pt x="142" y="1588" on="1"/>
        <pt x="842" y="1588" on="1"/>
        <pt x="842" y="226" on="1"/>
      </contour>
      <contour>
        <pt x="284" y="368" on="1"/>
        <pt x="700" y="368" on="1"/>
        <pt x="700" y="1447" on="1"/>
        <pt x="284" y="1447" on="1"/>
      </contour>
    </TTGlyph>
    <TTGlyph name="afii57509" xMin="142" yMin="226" xMax="842" yMax="1588">
      <contour>
        <pt x="142" y="226" on="1"/>
        <pt x="142" y="1588" on="1"/>
        <pt x="842" y="1588" on="1"/>
        <pt x="842" y="226" on="1"/>
      </contour>
      <contour>
        <pt x="284" y="368" on="1"/>
        <pt x="700" y="368" on="1"/>
        <pt x="700" y="1447" on="1"/>
        <pt x="284" y="1447" on="1"/>
      </contour>
    </TTGlyph>
    <TTGlyph name="afii57511" xMin="142" yMin="226" xMax="842" yMax="1588">
      <contour>
        <pt x="142" y="226" on="1"/>
        <pt x="142" y="1588" on="1"/>
        <pt x="842" y="1588" on="1"/>
        <pt x="842" y="226" on="1"/>
      </contour>
      <contour>
        <pt x="284" y="368" on="1"/>
        <pt x="700" y="368" on="1"/>
        <pt x="700" y="1447" on="1"/>
        <pt x="284" y="1447" on="1"/>
      </contour>
    </TTGlyph>
    <TTGlyph name="afii57512" xMin="142" yMin="226" xMax="842" yMax="1588">
      <contour>
        <pt x="142" y="226" on="1"/>
        <pt x="142" y="1588" on="1"/>
        <pt x="842" y="1588" on="1"/>
        <pt x="842" y="226" on="1"/>
      </contour>
      <contour>
        <pt x="284" y="368" on="1"/>
        <pt x="700" y="368" on="1"/>
        <pt x="700" y="1447" on="1"/>
        <pt x="284" y="1447" on="1"/>
      </contour>
    </TTGlyph>
    <TTGlyph name="afii57513" xMin="142" yMin="226" xMax="842" yMax="1588">
      <contour>
        <pt x="142" y="226" on="1"/>
        <pt x="142" y="1588" on="1"/>
        <pt x="842" y="1588" on="1"/>
        <pt x="842" y="226" on="1"/>
      </contour>
      <contour>
        <pt x="284" y="368" on="1"/>
        <pt x="700" y="368" on="1"/>
        <pt x="700" y="1447" on="1"/>
        <pt x="284" y="1447" on="1"/>
      </contour>
    </TTGlyph>
    <TTGlyph name="afii57514" xMin="142" yMin="226" xMax="842" yMax="1588">
      <contour>
        <pt x="142" y="226" on="1"/>
        <pt x="142" y="1588" on="1"/>
        <pt x="842" y="1588" on="1"/>
        <pt x="842" y="226" on="1"/>
      </contour>
      <contour>
        <pt x="284" y="368" on="1"/>
        <pt x="700" y="368" on="1"/>
        <pt x="700" y="1447" on="1"/>
        <pt x="284" y="1447" on="1"/>
      </contour>
    </TTGlyph>
    <TTGlyph name="afii57519" xMin="142" yMin="226" xMax="842" yMax="1588">
      <contour>
        <pt x="142" y="226" on="1"/>
        <pt x="142" y="1588" on="1"/>
        <pt x="842" y="1588" on="1"/>
        <pt x="842" y="226" on="1"/>
      </contour>
      <contour>
        <pt x="284" y="368" on="1"/>
        <pt x="700" y="368" on="1"/>
        <pt x="700" y="1447" on="1"/>
        <pt x="284" y="1447" on="1"/>
      </contour>
    </TTGlyph>
    <TTGlyph name="afii57534" xMin="142" yMin="226" xMax="842" yMax="1588">
      <contour>
        <pt x="142" y="226" on="1"/>
        <pt x="142" y="1588" on="1"/>
        <pt x="842" y="1588" on="1"/>
        <pt x="842" y="226" on="1"/>
      </contour>
      <contour>
        <pt x="284" y="368" on="1"/>
        <pt x="700" y="368" on="1"/>
        <pt x="700" y="1447" on="1"/>
        <pt x="284" y="1447" on="1"/>
      </contour>
    </TTGlyph>
    <TTGlyph name="afii63167" xMin="142" yMin="226" xMax="842" yMax="1588">
      <contour>
        <pt x="142" y="226" on="1"/>
        <pt x="142" y="1588" on="1"/>
        <pt x="842" y="1588" on="1"/>
        <pt x="842" y="226" on="1"/>
      </contour>
      <contour>
        <pt x="284" y="368" on="1"/>
        <pt x="700" y="368" on="1"/>
        <pt x="700" y="1447" on="1"/>
        <pt x="284" y="1447" on="1"/>
      </contour>
    </TTGlyph>
    <TTGlyph name="alefmaksurainitial" xMin="142" yMin="226" xMax="842" yMax="1588">
      <contour>
        <pt x="142" y="226" on="1"/>
        <pt x="142" y="1588" on="1"/>
        <pt x="842" y="1588" on="1"/>
        <pt x="842" y="226" on="1"/>
      </contour>
      <contour>
        <pt x="284" y="368" on="1"/>
        <pt x="700" y="368" on="1"/>
        <pt x="700" y="1447" on="1"/>
        <pt x="284" y="1447" on="1"/>
      </contour>
    </TTGlyph>
    <TTGlyph name="alefwaslafinalarabic" xMin="142" yMin="226" xMax="842" yMax="1588">
      <contour>
        <pt x="142" y="226" on="1"/>
        <pt x="142" y="1588" on="1"/>
        <pt x="842" y="1588" on="1"/>
        <pt x="842" y="226" on="1"/>
      </contour>
      <contour>
        <pt x="284" y="368" on="1"/>
        <pt x="700" y="368" on="1"/>
        <pt x="700" y="1447" on="1"/>
        <pt x="284" y="1447" on="1"/>
      </contour>
    </TTGlyph>
    <TTGlyph name="ampersand" xMin="142" yMin="226" xMax="842" yMax="1588">
      <contour>
        <pt x="142" y="226" on="1"/>
        <pt x="142" y="1588" on="1"/>
        <pt x="842" y="1588" on="1"/>
        <pt x="842" y="226" on="1"/>
      </contour>
      <contour>
        <pt x="284" y="368" on="1"/>
        <pt x="700" y="368" on="1"/>
        <pt x="700" y="1447" on="1"/>
        <pt x="284" y="1447" on="1"/>
      </contour>
    </TTGlyph>
    <TTGlyph name="asterisk" xMin="142" yMin="226" xMax="842" yMax="1588">
      <contour>
        <pt x="142" y="226" on="1"/>
        <pt x="142" y="1588" on="1"/>
        <pt x="842" y="1588" on="1"/>
        <pt x="842" y="226" on="1"/>
      </contour>
      <contour>
        <pt x="284" y="368" on="1"/>
        <pt x="700" y="368" on="1"/>
        <pt x="700" y="1447" on="1"/>
        <pt x="284" y="1447" on="1"/>
      </contour>
    </TTGlyph>
    <TTGlyph name="behmeemisolatedarabic" xMin="142" yMin="226" xMax="842" yMax="1588">
      <contour>
        <pt x="142" y="226" on="1"/>
        <pt x="142" y="1588" on="1"/>
        <pt x="842" y="1588" on="1"/>
        <pt x="842" y="226" on="1"/>
      </contour>
      <contour>
        <pt x="284" y="368" on="1"/>
        <pt x="700" y="368" on="1"/>
        <pt x="700" y="1447" on="1"/>
        <pt x="284" y="1447" on="1"/>
      </contour>
    </TTGlyph>
    <TTGlyph name="behnoonfinalarabic" xMin="142" yMin="226" xMax="842" yMax="1588">
      <contour>
        <pt x="142" y="226" on="1"/>
        <pt x="142" y="1588" on="1"/>
        <pt x="842" y="1588" on="1"/>
        <pt x="842" y="226" on="1"/>
      </contour>
      <contour>
        <pt x="284" y="368" on="1"/>
        <pt x="700" y="368" on="1"/>
        <pt x="700" y="1447" on="1"/>
        <pt x="284" y="1447" on="1"/>
      </contour>
    </TTGlyph>
    <TTGlyph name="colon" xMin="142" yMin="226" xMax="842" yMax="1588">
      <contour>
        <pt x="142" y="226" on="1"/>
        <pt x="142" y="1588" on="1"/>
        <pt x="842" y="1588" on="1"/>
        <pt x="842" y="226" on="1"/>
      </contour>
      <contour>
        <pt x="284" y="368" on="1"/>
        <pt x="700" y="368" on="1"/>
        <pt x="700" y="1447" on="1"/>
        <pt x="284" y="1447" on="1"/>
      </contour>
    </TTGlyph>
    <TTGlyph name="dagger" xMin="142" yMin="226" xMax="842" yMax="1588">
      <contour>
        <pt x="142" y="226" on="1"/>
        <pt x="142" y="1588" on="1"/>
        <pt x="842" y="1588" on="1"/>
        <pt x="842" y="226" on="1"/>
      </contour>
      <contour>
        <pt x="284" y="368" on="1"/>
        <pt x="700" y="368" on="1"/>
        <pt x="700" y="1447" on="1"/>
        <pt x="284" y="1447" on="1"/>
      </contour>
    </TTGlyph>
    <TTGlyph name="dalringfinal" xMin="142" yMin="226" xMax="842" yMax="1588">
      <contour>
        <pt x="142" y="226" on="1"/>
        <pt x="142" y="1588" on="1"/>
        <pt x="842" y="1588" on="1"/>
        <pt x="842" y="226" on="1"/>
      </contour>
      <contour>
        <pt x="284" y="368" on="1"/>
        <pt x="700" y="368" on="1"/>
        <pt x="700" y="1447" on="1"/>
        <pt x="284" y="1447" on="1"/>
      </contour>
    </TTGlyph>
    <TTGlyph name="ddalfinalarabic" xMin="142" yMin="226" xMax="842" yMax="1588">
      <contour>
        <pt x="142" y="226" on="1"/>
        <pt x="142" y="1588" on="1"/>
        <pt x="842" y="1588" on="1"/>
        <pt x="842" y="226" on="1"/>
      </contour>
      <contour>
        <pt x="284" y="368" on="1"/>
        <pt x="700" y="368" on="1"/>
        <pt x="700" y="1447" on="1"/>
        <pt x="284" y="1447" on="1"/>
      </contour>
    </TTGlyph>
    <TTGlyph name="divide" xMin="142" yMin="226" xMax="842" yMax="1588">
      <contour>
        <pt x="142" y="226" on="1"/>
        <pt x="142" y="1588" on="1"/>
        <pt x="842" y="1588" on="1"/>
        <pt x="842" y="226" on="1"/>
      </contour>
      <contour>
        <pt x="284" y="368" on="1"/>
        <pt x="700" y="368" on="1"/>
        <pt x="700" y="1447" on="1"/>
        <pt x="284" y="1447" on="1"/>
      </contour>
    </TTGlyph>
    <TTGlyph name="dollar" xMin="142" yMin="226" xMax="842" yMax="1588">
      <contour>
        <pt x="142" y="226" on="1"/>
        <pt x="142" y="1588" on="1"/>
        <pt x="842" y="1588" on="1"/>
        <pt x="842" y="226" on="1"/>
      </contour>
      <contour>
        <pt x="284" y="368" on="1"/>
        <pt x="700" y="368" on="1"/>
        <pt x="700" y="1447" on="1"/>
        <pt x="284" y="1447" on="1"/>
      </contour>
    </TTGlyph>
    <TTGlyph name="dotlessyehfinalarabic" xMin="142" yMin="226" xMax="842" yMax="1588">
      <contour>
        <pt x="142" y="226" on="1"/>
        <pt x="142" y="1588" on="1"/>
        <pt x="842" y="1588" on="1"/>
        <pt x="842" y="226" on="1"/>
      </contour>
      <contour>
        <pt x="284" y="368" on="1"/>
        <pt x="700" y="368" on="1"/>
        <pt x="700" y="1447" on="1"/>
        <pt x="284" y="1447" on="1"/>
      </contour>
    </TTGlyph>
    <TTGlyph name="dotlessyehinitialarabic" xMin="142" yMin="226" xMax="842" yMax="1588">
      <contour>
        <pt x="142" y="226" on="1"/>
        <pt x="142" y="1588" on="1"/>
        <pt x="842" y="1588" on="1"/>
        <pt x="842" y="226" on="1"/>
      </contour>
      <contour>
        <pt x="284" y="368" on="1"/>
        <pt x="700" y="368" on="1"/>
        <pt x="700" y="1447" on="1"/>
        <pt x="284" y="1447" on="1"/>
      </contour>
    </TTGlyph>
    <TTGlyph name="dotlessyehmedialarabic" xMin="142" yMin="226" xMax="842" yMax="1588">
      <contour>
        <pt x="142" y="226" on="1"/>
        <pt x="142" y="1588" on="1"/>
        <pt x="842" y="1588" on="1"/>
        <pt x="842" y="226" on="1"/>
      </contour>
      <contour>
        <pt x="284" y="368" on="1"/>
        <pt x="700" y="368" on="1"/>
        <pt x="700" y="1447" on="1"/>
        <pt x="284" y="1447" on="1"/>
      </contour>
    </TTGlyph>
    <TTGlyph name="elefmaksuramedial" xMin="142" yMin="226" xMax="842" yMax="1588">
      <contour>
        <pt x="142" y="226" on="1"/>
        <pt x="142" y="1588" on="1"/>
        <pt x="842" y="1588" on="1"/>
        <pt x="842" y="226" on="1"/>
      </contour>
      <contour>
        <pt x="284" y="368" on="1"/>
        <pt x="700" y="368" on="1"/>
        <pt x="700" y="1447" on="1"/>
        <pt x="284" y="1447" on="1"/>
      </contour>
    </TTGlyph>
    <TTGlyph name="ellipsis" xMin="142" yMin="226" xMax="842" yMax="1588">
      <contour>
        <pt x="142" y="226" on="1"/>
        <pt x="142" y="1588" on="1"/>
        <pt x="842" y="1588" on="1"/>
        <pt x="842" y="226" on="1"/>
      </contour>
      <contour>
        <pt x="284" y="368" on="1"/>
        <pt x="700" y="368" on="1"/>
        <pt x="700" y="1447" on="1"/>
        <pt x="284" y="1447" on="1"/>
      </contour>
    </TTGlyph>
    <TTGlyph name="emdash" xMin="348" yMin="-430" xMax="2396" yMax="1474">
      <contour>
        <pt x="2155" y="834" on="1"/>
        <pt x="2155" y="800" on="0"/>
        <pt x="2128" y="767" on="1"/>
        <pt x="2105" y="737" on="0"/>
        <pt x="2092" y="737" on="1"/>
        <pt x="2067" y="737" on="0"/>
        <pt x="2046" y="770" on="1"/>
        <pt x="2028" y="799" on="0"/>
        <pt x="2028" y="824" on="1"/>
        <pt x="2028" y="841" on="0"/>
        <pt x="2044" y="877" on="1"/>
        <pt x="2062" y="922" on="0"/>
        <pt x="2082" y="922" on="1"/>
        <pt x="2102" y="922" on="0"/>
        <pt x="2155" y="859" on="0"/>
      </contour>
      <contour>
        <pt x="2263" y="670" on="1"/>
        <pt x="2263" y="636" on="0"/>
        <pt x="2233" y="596" on="1"/>
        <pt x="2206" y="563" on="0"/>
        <pt x="2196" y="563" on="1"/>
        <pt x="2189" y="563" on="0"/>
        <pt x="2140" y="604" on="0"/>
        <pt x="2133" y="604" on="1"/>
        <pt x="2125" y="604" on="0"/>
        <pt x="2078" y="532" on="0"/>
        <pt x="2070" y="532" on="1"/>
        <pt x="2052" y="532" on="0"/>
        <pt x="1997" y="596" on="0"/>
        <pt x="1997" y="619" on="1"/>
        <pt x="1997" y="652" on="0"/>
        <pt x="2023" y="686" on="1"/>
        <pt x="2047" y="717" on="0"/>
        <pt x="2060" y="717" on="1"/>
        <pt x="2067" y="717" on="0"/>
        <pt x="2102" y="686" on="0"/>
        <pt x="2111" y="686" on="1"/>
        <pt x="2119" y="686" on="0"/>
        <pt x="2172" y="758" on="0"/>
        <pt x="2180" y="758" on="1"/>
        <pt x="2196" y="758" on="0"/>
        <pt x="2263" y="683" on="0"/>
      </contour>
      <contour>
        <pt x="2333" y="1443" on="1"/>
        <pt x="2333" y="1381" on="0"/>
        <pt x="2303" y="1355" on="1"/>
        <pt x="2211" y="1284" on="0"/>
        <pt x="2027" y="1133" on="1"/>
        <pt x="2016" y="1124" on="0"/>
        <pt x="1372" y="542" on="1"/>
        <pt x="1362" y="557" on="0"/>
        <pt x="1362" y="578" on="1"/>
        <pt x="1362" y="654" on="0"/>
        <pt x="1474" y="766" on="1"/>
        <pt x="1539" y="824" on="0"/>
        <pt x="1605" y="882" on="1"/>
        <pt x="1704" y="972" on="0"/>
        <pt x="1903" y="1149" on="1"/>
        <pt x="2285" y="1474" on="0"/>
        <pt x="2299" y="1474" on="1"/>
        <pt x="2325" y="1474" on="1"/>
        <pt x="2333" y="1461" on="0"/>
      </contour>
      <contour>
        <pt x="1350" y="967" on="1"/>
        <pt x="1313" y="881" on="0"/>
        <pt x="1278" y="843" on="1"/>
        <pt x="1251" y="812" on="0"/>
        <pt x="1207" y="775" on="1"/>
        <pt x="1161" y="737" on="0"/>
        <pt x="1149" y="738" on="1"/>
        <pt x="1103" y="738" on="1"/>
        <pt x="1103" y="775" on="1"/>
        <pt x="1115" y="793" on="0"/>
        <pt x="1160" y="835" on="1"/>
        <pt x="1195" y="868" on="0"/>
        <pt x="1211" y="904" on="1"/>
        <pt x="1185" y="922" on="0"/>
        <pt x="1160" y="922" on="1"/>
        <pt x="1149" y="922" on="0"/>
        <pt x="1092" y="860" on="1"/>
        <pt x="1084" y="862" on="0"/>
        <pt x="1084" y="886" on="1"/>
        <pt x="1084" y="918" on="0"/>
        <pt x="1113" y="972" on="1"/>
        <pt x="1141" y="1022" on="0"/>
        <pt x="1155" y="1030" on="1"/>
        <pt x="1163" y="1034" on="0"/>
        <pt x="1198" y="1034" on="1"/>
        <pt x="1242" y="1034" on="0"/>
        <pt x="1309" y="1009" on="1"/>
        <pt x="1331" y="1001" on="0"/>
      </contour>
      <contour>
        <pt x="2396" y="205" on="1"/>
        <pt x="2396" y="0" on="0"/>
        <pt x="2291" y="0" on="1"/>
        <pt x="2236" y="0" on="0"/>
        <pt x="2187" y="51" on="0"/>
        <pt x="2180" y="51" on="1"/>
        <pt x="2173" y="51" on="0"/>
        <pt x="2160" y="31" on="1"/>
        <pt x="2145" y="7" on="0"/>
        <pt x="2141" y="3" on="1"/>
        <pt x="2092" y="-40" on="0"/>
        <pt x="2041" y="-40" on="1"/>
        <pt x="2007" y="-40" on="0"/>
        <pt x="1938" y="20" on="0"/>
        <pt x="1933" y="20" on="1"/>
        <pt x="1927" y="20" on="0"/>
        <pt x="1893" y="-4" on="1"/>
        <pt x="1857" y="-32" on="0"/>
        <pt x="1842" y="-38" on="1"/>
        <pt x="1658" y="-102" on="0"/>
        <pt x="1596" y="-102" on="1"/>
        <pt x="1471" y="-102" on="1"/>
        <pt x="1295" y="-102" on="0"/>
        <pt x="1200" y="-17" on="1"/>
        <pt x="1194" y="-13" on="0"/>
        <pt x="1169" y="23" on="1"/>
        <pt x="1149" y="51" on="0"/>
        <pt x="1138" y="51" on="1"/>
        <pt x="1132" y="51" on="0"/>
        <pt x="1104" y="7" on="1"/>
        <pt x="1073" y="-39" on="0"/>
        <pt x="1056" y="-48" on="1"/>
        <pt x="1006" y="-75" on="0"/>
        <pt x="866" y="-95" on="1"/>
        <pt x="741" y="-113" on="0"/>
        <pt x="646" y="-113" on="1"/>
        <pt x="600" y="-113" on="0"/>
        <pt x="554" y="-95" on="1"/>
        <pt x="523" y="-88" on="0"/>
        <pt x="470" y="-58" on="1"/>
        <pt x="412" y="2" on="0"/>
        <pt x="397" y="201" on="1"/>
        <pt x="390" y="328" on="0"/>
        <pt x="383" y="455" on="1"/>
        <pt x="371" y="552" on="0"/>
        <pt x="358" y="737" on="1"/>
        <pt x="348" y="891" on="0"/>
        <pt x="348" y="927" on="1"/>
        <pt x="348" y="998" on="0"/>
        <pt x="382" y="1054" on="1"/>
        <pt x="406" y="1040" on="0"/>
        <pt x="417" y="951" on="1"/>
        <pt x="417" y="950" on="0"/>
        <pt x="428" y="804" on="1"/>
        <pt x="437" y="587" on="0"/>
        <pt x="470" y="190" on="1"/>
        <pt x="481" y="112" on="0"/>
        <pt x="530" y="74" on="1"/>
        <pt x="572" y="41" on="0"/>
        <pt x="662" y="41" on="1"/>
        <pt x="796" y="41" on="0"/>
        <pt x="884" y="51" on="1"/>
        <pt x="933" y="57" on="0"/>
        <pt x="1003" y="84" on="1"/>
        <pt x="1071" y="109" on="0"/>
        <pt x="1078" y="123" on="1"/>
        <pt x="1097" y="158" on="0"/>
        <pt x="1131" y="220" on="1"/>
        <pt x="1137" y="225" on="0"/>
        <pt x="1149" y="246" on="1"/>
        <pt x="1180" y="210" on="0"/>
        <pt x="1234" y="145" on="1"/>
        <pt x="1317" y="51" on="0"/>
        <pt x="1480" y="51" on="1"/>
        <pt x="1566" y="51" on="1"/>
        <pt x="1638" y="51" on="0"/>
        <pt x="1780" y="100" on="1"/>
        <pt x="1907" y="143" on="0"/>
        <pt x="1935" y="165" on="1"/>
        <pt x="1949" y="178" on="0"/>
        <pt x="1967" y="213" on="1"/>
        <pt x="1992" y="265" on="0"/>
        <pt x="1999" y="276" on="1"/>
        <pt x="2015" y="265" on="1"/>
        <pt x="2023" y="245" on="0"/>
        <pt x="2021" y="199" on="1"/>
        <pt x="2019" y="152" on="0"/>
        <pt x="2009" y="129" on="1"/>
        <pt x="2025" y="102" on="0"/>
        <pt x="2038" y="102" on="1"/>
        <pt x="2063" y="102" on="0"/>
        <pt x="2099" y="122" on="1"/>
        <pt x="2138" y="143" on="0"/>
        <pt x="2154" y="172" on="1"/>
        <pt x="2161" y="185" on="0"/>
        <pt x="2189" y="283" on="1"/>
        <pt x="2210" y="353" on="0"/>
        <pt x="2236" y="357" on="1"/>
        <pt x="2244" y="297" on="0"/>
        <pt x="2231" y="190" on="1"/>
        <pt x="2280" y="153" on="0"/>
        <pt x="2301" y="153" on="1"/>
        <pt x="2316" y="153" on="0"/>
        <pt x="2330" y="181" on="1"/>
        <pt x="2332" y="198" on="0"/>
        <pt x="2328" y="240" on="1"/>
        <pt x="2322" y="288" on="0"/>
        <pt x="2322" y="313" on="1"/>
        <pt x="2322" y="368" on="0"/>
        <pt x="2340" y="408" on="1"/>
        <pt x="2344" y="409" on="0"/>
        <pt x="2355" y="419" on="1"/>
        <pt x="2371" y="403" on="0"/>
        <pt x="2384" y="324" on="1"/>
        <pt x="2396" y="255" on="0"/>
      </contour>
      <contour>
        <pt x="861" y="1244" on="1"/>
        <pt x="855" y="1217" on="0"/>
        <pt x="838" y="1178" on="1"/>
        <pt x="757" y="1106" on="0"/>
        <pt x="593" y="942" on="1"/>
        <pt x="565" y="942" on="1"/>
        <pt x="557" y="944" on="0"/>
        <pt x="557" y="967" on="1"/>
        <pt x="557" y="1035" on="0"/>
        <pt x="654" y="1118" on="1"/>
        <pt x="714" y="1169" on="0"/>
        <pt x="813" y="1269" on="1"/>
        <pt x="847" y="1269" on="1"/>
      </contour>
      <contour>
        <pt x="894" y="1070" on="1"/>
        <pt x="894" y="1026" on="0"/>
        <pt x="767" y="913" on="1"/>
        <pt x="683" y="840" on="0"/>
        <pt x="599" y="768" on="1"/>
        <pt x="571" y="768" on="1"/>
        <pt x="571" y="773" on="0"/>
        <pt x="564" y="784" on="0"/>
        <pt x="564" y="799" on="1"/>
        <pt x="564" y="850" on="0"/>
        <pt x="660" y="933" on="1"/>
        <pt x="714" y="974" on="0"/>
        <pt x="768" y="1016" on="1"/>
        <pt x="801" y="1046" on="0"/>
        <pt x="864" y="1094" on="1"/>
        <pt x="886" y="1094" on="1"/>
        <pt x="894" y="1094" on="0"/>
      </contour>
      <contour>
        <pt x="938" y="319" on="1"/>
        <pt x="911" y="287" on="0"/>
        <pt x="819" y="252" on="1"/>
        <pt x="734" y="220" on="0"/>
        <pt x="708" y="174" on="1"/>
        <pt x="686" y="174" on="1"/>
        <pt x="682" y="185" on="0"/>
        <pt x="686" y="210" on="1"/>
        <pt x="690" y="242" on="0"/>
        <pt x="690" y="251" on="1"/>
        <pt x="690" y="262" on="0"/>
        <pt x="640" y="339" on="0"/>
        <pt x="640" y="358" on="1"/>
        <pt x="640" y="414" on="0"/>
        <pt x="699" y="492" on="1"/>
        <pt x="753" y="563" on="0"/>
        <pt x="776" y="563" on="1"/>
        <pt x="799" y="563" on="0"/>
        <pt x="818" y="530" on="1"/>
        <pt x="836" y="498" on="0"/>
        <pt x="836" y="465" on="1"/>
        <pt x="836" y="446" on="0"/>
        <pt x="809" y="399" on="0"/>
        <pt x="795" y="399" on="1"/>
        <pt x="787" y="399" on="0"/>
        <pt x="752" y="451" on="0"/>
        <pt x="744" y="451" on="1"/>
        <pt x="733" y="451" on="0"/>
        <pt x="715" y="424" on="1"/>
        <pt x="715" y="395" on="1"/>
        <pt x="748" y="348" on="0"/>
        <pt x="767" y="348" on="1"/>
        <pt x="853" y="348" on="0"/>
        <pt x="929" y="378" on="1"/>
        <pt x="938" y="366" on="1"/>
      </contour>
      <contour>
        <pt x="1292" y="-297" on="1"/>
        <pt x="1292" y="-326" on="0"/>
        <pt x="1268" y="-365" on="1"/>
        <pt x="1245" y="-399" on="0"/>
        <pt x="1239" y="-399" on="1"/>
        <pt x="1232" y="-399" on="0"/>
        <pt x="1187" y="-358" on="0"/>
        <pt x="1178" y="-358" on="1"/>
        <pt x="1167" y="-358" on="0"/>
        <pt x="1144" y="-420" on="0"/>
        <pt x="1118" y="-420" on="1"/>
        <pt x="1110" y="-420" on="0"/>
        <pt x="1110" y="-425" on="1"/>
        <pt x="1110" y="-425" on="1"/>
        <pt x="1110" y="-430" on="0"/>
        <pt x="1102" y="-430" on="1"/>
        <pt x="1086" y="-430" on="0"/>
        <pt x="1045" y="-365" on="0"/>
        <pt x="1045" y="-343" on="1"/>
        <pt x="1045" y="-310" on="0"/>
        <pt x="1078" y="-245" on="0"/>
        <pt x="1093" y="-245" on="1"/>
        <pt x="1101" y="-245" on="0"/>
        <pt x="1152" y="-286" on="0"/>
        <pt x="1160" y="-286" on="1"/>
        <pt x="1167" y="-286" on="0"/>
        <pt x="1218" y="-204" on="0"/>
        <pt x="1226" y="-204" on="1"/>
        <pt x="1239" y="-204" on="0"/>
        <pt x="1292" y="-275" on="0"/>
      </contour>
    </TTGlyph>
    <TTGlyph name="endash" xMin="348" yMin="-430" xMax="1372" yMax="1474">
      <contour>
        <pt x="1252" y="834" on="1"/>
        <pt x="1252" y="800" on="0"/>
        <pt x="1238" y="767" on="1"/>
        <pt x="1226" y="737" on="0"/>
        <pt x="1220" y="737" on="1"/>
        <pt x="1207" y="737" on="0"/>
        <pt x="1197" y="770" on="1"/>
        <pt x="1188" y="799" on="0"/>
        <pt x="1188" y="824" on="1"/>
        <pt x="1188" y="841" on="0"/>
        <pt x="1196" y="877" on="1"/>
        <pt x="1205" y="922" on="0"/>
        <pt x="1215" y="922" on="1"/>
        <pt x="1225" y="922" on="0"/>
        <pt x="1252" y="859" on="0"/>
      </contour>
      <contour>
        <pt x="1305" y="670" on="1"/>
        <pt x="1305" y="636" on="0"/>
        <pt x="1290" y="596" on="1"/>
        <pt x="1277" y="563" on="0"/>
        <pt x="1272" y="563" on="1"/>
        <pt x="1269" y="563" on="0"/>
        <pt x="1244" y="604" on="0"/>
        <pt x="1240" y="604" on="1"/>
        <pt x="1237" y="604" on="0"/>
        <pt x="1213" y="532" on="0"/>
        <pt x="1209" y="532" on="1"/>
        <pt x="1200" y="532" on="0"/>
        <pt x="1172" y="596" on="0"/>
        <pt x="1172" y="619" on="1"/>
        <pt x="1172" y="652" on="0"/>
        <pt x="1186" y="686" on="1"/>
        <pt x="1197" y="717" on="0"/>
        <pt x="1204" y="717" on="1"/>
        <pt x="1207" y="717" on="0"/>
        <pt x="1225" y="686" on="0"/>
        <pt x="1229" y="686" on="1"/>
        <pt x="1233" y="686" on="0"/>
        <pt x="1260" y="758" on="0"/>
        <pt x="1264" y="758" on="1"/>
        <pt x="1272" y="758" on="0"/>
        <pt x="1305" y="683" on="0"/>
      </contour>
      <contour>
        <pt x="1340" y="1443" on="1"/>
        <pt x="1340" y="1381" on="0"/>
        <pt x="1326" y="1355" on="1"/>
        <pt x="1280" y="1284" on="0"/>
        <pt x="1187" y="1133" on="1"/>
        <pt x="1182" y="1124" on="0"/>
        <pt x="860" y="542" on="1"/>
        <pt x="855" y="557" on="0"/>
        <pt x="855" y="578" on="1"/>
        <pt x="855" y="654" on="0"/>
        <pt x="911" y="766" on="1"/>
        <pt x="943" y="824" on="0"/>
        <pt x="977" y="882" on="1"/>
        <pt x="1026" y="972" on="0"/>
        <pt x="1126" y="1149" on="1"/>
        <pt x="1317" y="1474" on="0"/>
        <pt x="1323" y="1474" on="1"/>
        <pt x="1336" y="1474" on="1"/>
        <pt x="1340" y="1461" on="0"/>
      </contour>
      <contour>
        <pt x="849" y="967" on="1"/>
        <pt x="831" y="881" on="0"/>
        <pt x="813" y="843" on="1"/>
        <pt x="799" y="812" on="0"/>
        <pt x="777" y="775" on="1"/>
        <pt x="754" y="737" on="0"/>
        <pt x="749" y="738" on="1"/>
        <pt x="725" y="738" on="1"/>
        <pt x="725" y="775" on="1"/>
        <pt x="732" y="793" on="0"/>
        <pt x="754" y="835" on="1"/>
        <pt x="772" y="868" on="0"/>
        <pt x="779" y="904" on="1"/>
        <pt x="767" y="922" on="0"/>
        <pt x="754" y="922" on="1"/>
        <pt x="749" y="922" on="0"/>
        <pt x="720" y="860" on="1"/>
        <pt x="716" y="862" on="0"/>
        <pt x="716" y="886" on="1"/>
        <pt x="716" y="918" on="0"/>
        <pt x="731" y="972" on="1"/>
        <pt x="744" y="1022" on="0"/>
        <pt x="751" y="1030" on="1"/>
        <pt x="755" y="1034" on="0"/>
        <pt x="773" y="1034" on="1"/>
        <pt x="795" y="1034" on="0"/>
        <pt x="829" y="1009" on="1"/>
        <pt x="840" y="1001" on="0"/>
      </contour>
      <contour>
        <pt x="1372" y="205" on="1"/>
        <pt x="1372" y="0" on="0"/>
        <pt x="1320" y="0" on="1"/>
        <pt x="1292" y="0" on="0"/>
        <pt x="1267" y="51" on="0"/>
        <pt x="1264" y="51" on="1"/>
        <pt x="1261" y="51" on="0"/>
        <pt x="1254" y="31" on="1"/>
        <pt x="1246" y="7" on="0"/>
        <pt x="1244" y="3" on="1"/>
        <pt x="1220" y="-40" on="0"/>
        <pt x="1195" y="-40" on="1"/>
        <pt x="1178" y="-40" on="0"/>
        <pt x="1143" y="20" on="0"/>
        <pt x="1140" y="20" on="1"/>
        <pt x="1137" y="20" on="0"/>
        <pt x="1121" y="-4" on="1"/>
        <pt x="1102" y="-32" on="0"/>
        <pt x="1095" y="-38" on="1"/>
        <pt x="1003" y="-102" on="0"/>
        <pt x="972" y="-102" on="1"/>
        <pt x="910" y="-102" on="1"/>
        <pt x="821" y="-102" on="0"/>
        <pt x="774" y="-17" on="1"/>
        <pt x="771" y="-13" on="0"/>
        <pt x="758" y="23" on="1"/>
        <pt x="748" y="51" on="0"/>
        <pt x="743" y="51" on="1"/>
        <pt x="740" y="51" on="0"/>
        <pt x="726" y="7" on="1"/>
        <pt x="711" y="-39" on="0"/>
        <pt x="702" y="-48" on="1"/>
        <pt x="677" y="-75" on="0"/>
        <pt x="607" y="-95" on="1"/>
        <pt x="545" y="-113" on="0"/>
        <pt x="497" y="-113" on="1"/>
        <pt x="474" y="-113" on="0"/>
        <pt x="451" y="-95" on="1"/>
        <pt x="435" y="-88" on="0"/>
        <pt x="409" y="-58" on="1"/>
        <pt x="380" y="2" on="0"/>
        <pt x="372" y="201" on="1"/>
        <pt x="369" y="328" on="0"/>
        <pt x="366" y="455" on="1"/>
        <pt x="359" y="552" on="0"/>
        <pt x="353" y="737" on="1"/>
        <pt x="348" y="891" on="0"/>
        <pt x="348" y="927" on="1"/>
        <pt x="348" y="998" on="0"/>
        <pt x="365" y="1054" on="1"/>
        <pt x="377" y="1040" on="0"/>
        <pt x="382" y="951" on="1"/>
        <pt x="382" y="950" on="0"/>
        <pt x="388" y="804" on="1"/>
        <pt x="393" y="587" on="0"/>
        <pt x="409" y="190" on="1"/>
        <pt x="414" y="112" on="0"/>
        <pt x="439" y="74" on="1"/>
        <pt x="460" y="41" on="0"/>
        <pt x="505" y="41" on="1"/>
        <pt x="572" y="41" on="0"/>
        <pt x="616" y="51" on="1"/>
        <pt x="641" y="57" on="0"/>
        <pt x="676" y="84" on="1"/>
        <pt x="710" y="109" on="0"/>
        <pt x="713" y="123" on="1"/>
        <pt x="722" y="158" on="0"/>
        <pt x="739" y="220" on="1"/>
        <pt x="742" y="225" on="0"/>
        <pt x="749" y="246" on="1"/>
        <pt x="764" y="210" on="0"/>
        <pt x="791" y="145" on="1"/>
        <pt x="833" y="51" on="0"/>
        <pt x="914" y="51" on="1"/>
        <pt x="957" y="51" on="1"/>
        <pt x="993" y="51" on="0"/>
        <pt x="1064" y="100" on="1"/>
        <pt x="1128" y="143" on="0"/>
        <pt x="1141" y="165" on="1"/>
        <pt x="1148" y="178" on="0"/>
        <pt x="1157" y="213" on="1"/>
        <pt x="1170" y="265" on="0"/>
        <pt x="1174" y="276" on="1"/>
        <pt x="1181" y="265" on="1"/>
        <pt x="1185" y="245" on="0"/>
        <pt x="1184" y="199" on="1"/>
        <pt x="1183" y="152" on="0"/>
        <pt x="1178" y="129" on="1"/>
        <pt x="1187" y="102" on="0"/>
        <pt x="1193" y="102" on="1"/>
        <pt x="1205" y="102" on="0"/>
        <pt x="1223" y="122" on="1"/>
        <pt x="1243" y="143" on="0"/>
        <pt x="1251" y="172" on="1"/>
        <pt x="1254" y="185" on="0"/>
        <pt x="1269" y="283" on="1"/>
        <pt x="1279" y="353" on="0"/>
        <pt x="1292" y="357" on="1"/>
        <pt x="1296" y="297" on="0"/>
        <pt x="1289" y="190" on="1"/>
        <pt x="1314" y="153" on="0"/>
        <pt x="1324" y="153" on="1"/>
        <pt x="1332" y="153" on="0"/>
        <pt x="1339" y="181" on="1"/>
        <pt x="1340" y="198" on="0"/>
        <pt x="1338" y="240" on="1"/>
        <pt x="1335" y="288" on="0"/>
        <pt x="1335" y="313" on="1"/>
        <pt x="1335" y="368" on="0"/>
        <pt x="1344" y="408" on="1"/>
        <pt x="1346" y="409" on="0"/>
        <pt x="1351" y="419" on="1"/>
        <pt x="1359" y="403" on="0"/>
        <pt x="1366" y="324" on="1"/>
        <pt x="1372" y="255" on="0"/>
      </contour>
      <contour>
        <pt x="605" y="1244" on="1"/>
        <pt x="602" y="1217" on="0"/>
        <pt x="593" y="1178" on="1"/>
        <pt x="552" y="1106" on="0"/>
        <pt x="471" y="942" on="1"/>
        <pt x="457" y="942" on="1"/>
        <pt x="453" y="944" on="0"/>
        <pt x="453" y="967" on="1"/>
        <pt x="453" y="1035" on="0"/>
        <pt x="501" y="1118" on="1"/>
        <pt x="531" y="1169" on="0"/>
        <pt x="581" y="1269" on="1"/>
        <pt x="598" y="1269" on="1"/>
      </contour>
      <contour>
        <pt x="621" y="1070" on="1"/>
        <pt x="621" y="1026" on="0"/>
        <pt x="558" y="913" on="1"/>
        <pt x="516" y="840" on="0"/>
        <pt x="474" y="768" on="1"/>
        <pt x="459" y="768" on="1"/>
        <pt x="459" y="773" on="0"/>
        <pt x="456" y="784" on="0"/>
        <pt x="456" y="799" on="1"/>
        <pt x="456" y="850" on="0"/>
        <pt x="504" y="933" on="1"/>
        <pt x="531" y="974" on="0"/>
        <pt x="558" y="1016" on="1"/>
        <pt x="574" y="1046" on="0"/>
        <pt x="606" y="1094" on="1"/>
        <pt x="617" y="1094" on="1"/>
        <pt x="621" y="1094" on="0"/>
      </contour>
      <contour>
        <pt x="643" y="319" on="1"/>
        <pt x="629" y="287" on="0"/>
        <pt x="584" y="252" on="1"/>
        <pt x="541" y="220" on="0"/>
        <pt x="528" y="174" on="1"/>
        <pt x="517" y="174" on="1"/>
        <pt x="515" y="185" on="0"/>
        <pt x="517" y="210" on="1"/>
        <pt x="519" y="242" on="0"/>
        <pt x="519" y="251" on="1"/>
        <pt x="519" y="262" on="0"/>
        <pt x="494" y="339" on="0"/>
        <pt x="494" y="358" on="1"/>
        <pt x="494" y="414" on="0"/>
        <pt x="523" y="492" on="1"/>
        <pt x="551" y="563" on="0"/>
        <pt x="562" y="563" on="1"/>
        <pt x="573" y="563" on="0"/>
        <pt x="583" y="530" on="1"/>
        <pt x="592" y="498" on="0"/>
        <pt x="592" y="465" on="1"/>
        <pt x="592" y="446" on="0"/>
        <pt x="579" y="399" on="0"/>
        <pt x="572" y="399" on="1"/>
        <pt x="568" y="399" on="0"/>
        <pt x="550" y="451" on="0"/>
        <pt x="546" y="451" on="1"/>
        <pt x="541" y="451" on="0"/>
        <pt x="532" y="424" on="1"/>
        <pt x="532" y="395" on="1"/>
        <pt x="548" y="348" on="0"/>
        <pt x="557" y="348" on="1"/>
        <pt x="601" y="348" on="0"/>
        <pt x="638" y="378" on="1"/>
        <pt x="643" y="366" on="1"/>
      </contour>
      <contour>
        <pt x="820" y="-297" on="1"/>
        <pt x="820" y="-326" on="0"/>
        <pt x="808" y="-365" on="1"/>
        <pt x="797" y="-399" on="0"/>
        <pt x="794" y="-399" on="1"/>
        <pt x="790" y="-399" on="0"/>
        <pt x="767" y="-358" on="0"/>
        <pt x="763" y="-358" on="1"/>
        <pt x="757" y="-358" on="0"/>
        <pt x="746" y="-420" on="0"/>
        <pt x="733" y="-420" on="1"/>
        <pt x="729" y="-420" on="0"/>
        <pt x="729" y="-425" on="1"/>
        <pt x="729" y="-425" on="1"/>
        <pt x="729" y="-430" on="0"/>
        <pt x="725" y="-430" on="1"/>
        <pt x="717" y="-430" on="0"/>
        <pt x="697" y="-365" on="0"/>
        <pt x="697" y="-343" on="1"/>
        <pt x="697" y="-310" on="0"/>
        <pt x="713" y="-245" on="0"/>
        <pt x="721" y="-245" on="1"/>
        <pt x="725" y="-245" on="0"/>
        <pt x="750" y="-286" on="0"/>
        <pt x="754" y="-286" on="1"/>
        <pt x="758" y="-286" on="0"/>
        <pt x="783" y="-204" on="0"/>
        <pt x="787" y="-204" on="1"/>
        <pt x="794" y="-204" on="0"/>
        <pt x="820" y="-275" on="0"/>
      </contour>
    </TTGlyph>
    <TTGlyph name="equal" xMin="142" yMin="226" xMax="842" yMax="1588">
      <contour>
        <pt x="142" y="226" on="1"/>
        <pt x="142" y="1588" on="1"/>
        <pt x="842" y="1588" on="1"/>
        <pt x="842" y="226" on="1"/>
      </contour>
      <contour>
        <pt x="284" y="368" on="1"/>
        <pt x="700" y="368" on="1"/>
        <pt x="700" y="1447" on="1"/>
        <pt x="284" y="1447" on="1"/>
      </contour>
    </TTGlyph>
    <TTGlyph name="exclam" xMin="142" yMin="226" xMax="842" yMax="1588">
      <contour>
        <pt x="142" y="226" on="1"/>
        <pt x="142" y="1588" on="1"/>
        <pt x="842" y="1588" on="1"/>
        <pt x="842" y="226" on="1"/>
      </contour>
      <contour>
        <pt x="284" y="368" on="1"/>
        <pt x="700" y="368" on="1"/>
        <pt x="700" y="1447" on="1"/>
        <pt x="284" y="1447" on="1"/>
      </contour>
    </TTGlyph>
    <TTGlyph name="figuredash" xMin="348" yMin="-430" xMax="3655" yMax="1474">
      <contour>
        <pt x="3266" y="834" on="1"/>
        <pt x="3266" y="800" on="0"/>
        <pt x="3223" y="767" on="1"/>
        <pt x="3185" y="737" on="0"/>
        <pt x="3164" y="737" on="1"/>
        <pt x="3123" y="737" on="0"/>
        <pt x="3090" y="770" on="1"/>
        <pt x="3061" y="799" on="0"/>
        <pt x="3061" y="824" on="1"/>
        <pt x="3061" y="841" on="0"/>
        <pt x="3086" y="877" on="1"/>
        <pt x="3116" y="922" on="0"/>
        <pt x="3148" y="922" on="1"/>
        <pt x="3181" y="922" on="0"/>
        <pt x="3266" y="859" on="0"/>
      </contour>
      <contour>
        <pt x="3440" y="670" on="1"/>
        <pt x="3440" y="636" on="0"/>
        <pt x="3391" y="596" on="1"/>
        <pt x="3349" y="563" on="0"/>
        <pt x="3332" y="563" on="1"/>
        <pt x="3321" y="563" on="0"/>
        <pt x="3241" y="604" on="0"/>
        <pt x="3230" y="604" on="1"/>
        <pt x="3218" y="604" on="0"/>
        <pt x="3141" y="532" on="0"/>
        <pt x="3128" y="532" on="1"/>
        <pt x="3099" y="532" on="0"/>
        <pt x="3010" y="596" on="0"/>
        <pt x="3010" y="619" on="1"/>
        <pt x="3010" y="652" on="0"/>
        <pt x="3053" y="686" on="1"/>
        <pt x="3091" y="717" on="0"/>
        <pt x="3112" y="717" on="1"/>
        <pt x="3123" y="717" on="0"/>
        <pt x="3181" y="686" on="0"/>
        <pt x="3194" y="686" on="1"/>
        <pt x="3207" y="686" on="0"/>
        <pt x="3294" y="758" on="0"/>
        <pt x="3307" y="758" on="1"/>
        <pt x="3332" y="758" on="0"/>
        <pt x="3440" y="683" on="0"/>
      </contour>
      <contour>
        <pt x="3553" y="1443" on="1"/>
        <pt x="3553" y="1381" on="0"/>
        <pt x="3505" y="1355" on="1"/>
        <pt x="3357" y="1284" on="0"/>
        <pt x="3059" y="1133" on="1"/>
        <pt x="3042" y="1124" on="0"/>
        <pt x="2001" y="542" on="1"/>
        <pt x="1986" y="557" on="0"/>
        <pt x="1986" y="578" on="1"/>
        <pt x="1986" y="654" on="0"/>
        <pt x="2166" y="766" on="1"/>
        <pt x="2271" y="824" on="0"/>
        <pt x="2378" y="882" on="1"/>
        <pt x="2537" y="972" on="0"/>
        <pt x="2859" y="1149" on="1"/>
        <pt x="3476" y="1474" on="0"/>
        <pt x="3498" y="1474" on="1"/>
        <pt x="3540" y="1474" on="1"/>
        <pt x="3553" y="1461" on="0"/>
      </contour>
      <contour>
        <pt x="1966" y="967" on="1"/>
        <pt x="1907" y="881" on="0"/>
        <pt x="1850" y="843" on="1"/>
        <pt x="1806" y="812" on="0"/>
        <pt x="1735" y="775" on="1"/>
        <pt x="1660" y="737" on="0"/>
        <pt x="1642" y="738" on="1"/>
        <pt x="1567" y="738" on="1"/>
        <pt x="1567" y="775" on="1"/>
        <pt x="1587" y="793" on="0"/>
        <pt x="1659" y="835" on="1"/>
        <pt x="1716" y="868" on="0"/>
        <pt x="1741" y="904" on="1"/>
        <pt x="1700" y="922" on="0"/>
        <pt x="1659" y="922" on="1"/>
        <pt x="1642" y="922" on="0"/>
        <pt x="1550" y="860" on="1"/>
        <pt x="1536" y="862" on="0"/>
        <pt x="1536" y="886" on="1"/>
        <pt x="1536" y="918" on="0"/>
        <pt x="1584" y="972" on="1"/>
        <pt x="1628" y="1022" on="0"/>
        <pt x="1651" y="1030" on="1"/>
        <pt x="1664" y="1034" on="0"/>
        <pt x="1720" y="1034" on="1"/>
        <pt x="1792" y="1034" on="0"/>
        <pt x="1900" y="1009" on="1"/>
        <pt x="1936" y="1001" on="0"/>
      </contour>
      <contour>
        <pt x="3655" y="205" on="1"/>
        <pt x="3655" y="0" on="0"/>
        <pt x="3486" y="0" on="1"/>
        <pt x="3397" y="0" on="0"/>
        <pt x="3317" y="51" on="0"/>
        <pt x="3307" y="51" on="1"/>
        <pt x="3295" y="51" on="0"/>
        <pt x="3274" y="31" on="1"/>
        <pt x="3249" y="7" on="0"/>
        <pt x="3243" y="3" on="1"/>
        <pt x="3164" y="-40" on="0"/>
        <pt x="3082" y="-40" on="1"/>
        <pt x="3027" y="-40" on="0"/>
        <pt x="2915" y="20" on="0"/>
        <pt x="2907" y="20" on="1"/>
        <pt x="2897" y="20" on="0"/>
        <pt x="2843" y="-4" on="1"/>
        <pt x="2784" y="-32" on="0"/>
        <pt x="2761" y="-38" on="1"/>
        <pt x="2463" y="-102" on="0"/>
        <pt x="2363" y="-102" on="1"/>
        <pt x="2162" y="-102" on="1"/>
        <pt x="1877" y="-102" on="0"/>
        <pt x="1723" y="-17" on="1"/>
        <pt x="1714" y="-13" on="0"/>
        <pt x="1673" y="23" on="1"/>
        <pt x="1641" y="51" on="0"/>
        <pt x="1623" y="51" on="1"/>
        <pt x="1614" y="51" on="0"/>
        <pt x="1569" y="7" on="1"/>
        <pt x="1519" y="-39" on="0"/>
        <pt x="1491" y="-48" on="1"/>
        <pt x="1410" y="-75" on="0"/>
        <pt x="1185" y="-95" on="1"/>
        <pt x="983" y="-113" on="0"/>
        <pt x="829" y="-113" on="1"/>
        <pt x="755" y="-113" on="0"/>
        <pt x="680" y="-95" on="1"/>
        <pt x="630" y="-88" on="0"/>
        <pt x="545" y="-58" on="1"/>
        <pt x="452" y="2" on="0"/>
        <pt x="427" y="201" on="1"/>
        <pt x="416" y="328" on="0"/>
        <pt x="405" y="455" on="1"/>
        <pt x="385" y="552" on="0"/>
        <pt x="364" y="737" on="1"/>
        <pt x="348" y="891" on="0"/>
        <pt x="348" y="927" on="1"/>
        <pt x="348" y="998" on="0"/>
        <pt x="403" y="1054" on="1"/>
        <pt x="442" y="1040" on="0"/>
        <pt x="459" y="951" on="1"/>
        <pt x="459" y="950" on="0"/>
        <pt x="477" y="804" on="1"/>
        <pt x="492" y="587" on="0"/>
        <pt x="545" y="190" on="1"/>
        <pt x="562" y="112" on="0"/>
        <pt x="642" y="74" on="1"/>
        <pt x="710" y="41" on="0"/>
        <pt x="855" y="41" on="1"/>
        <pt x="1071" y="41" on="0"/>
        <pt x="1213" y="51" on="1"/>
        <pt x="1293" y="57" on="0"/>
        <pt x="1406" y="84" on="1"/>
        <pt x="1516" y="109" on="0"/>
        <pt x="1526" y="123" on="1"/>
        <pt x="1557" y="158" on="0"/>
        <pt x="1612" y="220" on="1"/>
        <pt x="1622" y="225" on="0"/>
        <pt x="1642" y="246" on="1"/>
        <pt x="1691" y="210" on="0"/>
        <pt x="1779" y="145" on="1"/>
        <pt x="1913" y="51" on="0"/>
        <pt x="2176" y="51" on="1"/>
        <pt x="2314" y="51" on="1"/>
        <pt x="2431" y="51" on="0"/>
        <pt x="2661" y="100" on="1"/>
        <pt x="2866" y="143" on="0"/>
        <pt x="2910" y="165" on="1"/>
        <pt x="2933" y="178" on="0"/>
        <pt x="2962" y="213" on="1"/>
        <pt x="3003" y="265" on="0"/>
        <pt x="3014" y="276" on="1"/>
        <pt x="3039" y="265" on="1"/>
        <pt x="3052" y="245" on="0"/>
        <pt x="3049" y="199" on="1"/>
        <pt x="3046" y="152" on="0"/>
        <pt x="3030" y="129" on="1"/>
        <pt x="3056" y="102" on="0"/>
        <pt x="3077" y="102" on="1"/>
        <pt x="3117" y="102" on="0"/>
        <pt x="3175" y="122" on="1"/>
        <pt x="3238" y="143" on="0"/>
        <pt x="3264" y="172" on="1"/>
        <pt x="3275" y="185" on="0"/>
        <pt x="3321" y="283" on="1"/>
        <pt x="3354" y="353" on="0"/>
        <pt x="3397" y="357" on="1"/>
        <pt x="3409" y="297" on="0"/>
        <pt x="3388" y="190" on="1"/>
        <pt x="3467" y="153" on="0"/>
        <pt x="3501" y="153" on="1"/>
        <pt x="3526" y="153" on="0"/>
        <pt x="3549" y="181" on="1"/>
        <pt x="3551" y="198" on="0"/>
        <pt x="3545" y="240" on="1"/>
        <pt x="3536" y="288" on="0"/>
        <pt x="3536" y="313" on="1"/>
        <pt x="3536" y="368" on="0"/>
        <pt x="3564" y="408" on="1"/>
        <pt x="3571" y="409" on="0"/>
        <pt x="3588" y="419" on="1"/>
        <pt x="3614" y="403" on="0"/>
        <pt x="3635" y="324" on="1"/>
        <pt x="3655" y="255" on="0"/>
      </contour>
      <contour>
        <pt x="1177" y="1244" on="1"/>
        <pt x="1167" y="1217" on="0"/>
        <pt x="1140" y="1178" on="1"/>
        <pt x="1008" y="1106" on="0"/>
        <pt x="744" y="942" on="1"/>
        <pt x="699" y="942" on="1"/>
        <pt x="686" y="944" on="0"/>
        <pt x="686" y="967" on="1"/>
        <pt x="686" y="1035" on="0"/>
        <pt x="842" y="1118" on="1"/>
        <pt x="939" y="1169" on="0"/>
        <pt x="1099" y="1269" on="1"/>
        <pt x="1154" y="1269" on="1"/>
      </contour>
      <contour>
        <pt x="1229" y="1070" on="1"/>
        <pt x="1229" y="1026" on="0"/>
        <pt x="1025" y="913" on="1"/>
        <pt x="889" y="840" on="0"/>
        <pt x="754" y="768" on="1"/>
        <pt x="708" y="768" on="1"/>
        <pt x="708" y="773" on="0"/>
        <pt x="696" y="784" on="0"/>
        <pt x="696" y="799" on="1"/>
        <pt x="696" y="850" on="0"/>
        <pt x="851" y="933" on="1"/>
        <pt x="939" y="974" on="0"/>
        <pt x="1026" y="1016" on="1"/>
        <pt x="1079" y="1046" on="0"/>
        <pt x="1181" y="1094" on="1"/>
        <pt x="1216" y="1094" on="1"/>
        <pt x="1229" y="1094" on="0"/>
      </contour>
      <contour>
        <pt x="1300" y="319" on="1"/>
        <pt x="1257" y="287" on="0"/>
        <pt x="1109" y="252" on="1"/>
        <pt x="971" y="220" on="0"/>
        <pt x="929" y="174" on="1"/>
        <pt x="893" y="174" on="1"/>
        <pt x="887" y="185" on="0"/>
        <pt x="893" y="210" on="1"/>
        <pt x="901" y="242" on="0"/>
        <pt x="901" y="251" on="1"/>
        <pt x="901" y="262" on="0"/>
        <pt x="819" y="339" on="0"/>
        <pt x="819" y="358" on="1"/>
        <pt x="819" y="414" on="0"/>
        <pt x="914" y="492" on="1"/>
        <pt x="1002" y="563" on="0"/>
        <pt x="1039" y="563" on="1"/>
        <pt x="1076" y="563" on="0"/>
        <pt x="1107" y="530" on="1"/>
        <pt x="1136" y="498" on="0"/>
        <pt x="1136" y="465" on="1"/>
        <pt x="1136" y="446" on="0"/>
        <pt x="1093" y="399" on="0"/>
        <pt x="1070" y="399" on="1"/>
        <pt x="1057" y="399" on="0"/>
        <pt x="1001" y="451" on="0"/>
        <pt x="988" y="451" on="1"/>
        <pt x="970" y="451" on="0"/>
        <pt x="941" y="424" on="1"/>
        <pt x="941" y="395" on="1"/>
        <pt x="994" y="348" on="0"/>
        <pt x="1024" y="348" on="1"/>
        <pt x="1164" y="348" on="0"/>
        <pt x="1286" y="378" on="1"/>
        <pt x="1300" y="366" on="1"/>
      </contour>
      <contour>
        <pt x="1873" y="-297" on="1"/>
        <pt x="1873" y="-326" on="0"/>
        <pt x="1833" y="-365" on="1"/>
        <pt x="1797" y="-399" on="0"/>
        <pt x="1787" y="-399" on="1"/>
        <pt x="1775" y="-399" on="0"/>
        <pt x="1702" y="-358" on="0"/>
        <pt x="1689" y="-358" on="1"/>
        <pt x="1670" y="-358" on="0"/>
        <pt x="1634" y="-420" on="0"/>
        <pt x="1592" y="-420" on="1"/>
        <pt x="1579" y="-420" on="0"/>
        <pt x="1579" y="-425" on="1"/>
        <pt x="1579" y="-425" on="1"/>
        <pt x="1578" y="-430" on="0"/>
        <pt x="1566" y="-430" on="1"/>
        <pt x="1540" y="-430" on="0"/>
        <pt x="1474" y="-365" on="0"/>
        <pt x="1474" y="-343" on="1"/>
        <pt x="1474" y="-310" on="0"/>
        <pt x="1527" y="-245" on="0"/>
        <pt x="1551" y="-245" on="1"/>
        <pt x="1564" y="-245" on="0"/>
        <pt x="1647" y="-286" on="0"/>
        <pt x="1659" y="-286" on="1"/>
        <pt x="1671" y="-286" on="0"/>
        <pt x="1753" y="-204" on="0"/>
        <pt x="1766" y="-204" on="1"/>
        <pt x="1787" y="-204" on="0"/>
        <pt x="1873" y="-275" on="0"/>
      </contour>
    </TTGlyph>
    <TTGlyph name="gaffinalarabic" xMin="142" yMin="226" xMax="842" yMax="1588">
      <contour>
        <pt x="142" y="226" on="1"/>
        <pt x="142" y="1588" on="1"/>
        <pt x="842" y="1588" on="1"/>
        <pt x="842" y="226" on="1"/>
      </contour>
      <contour>
        <pt x="284" y="368" on="1"/>
        <pt x="700" y="368" on="1"/>
        <pt x="700" y="1447" on="1"/>
        <pt x="284" y="1447" on="1"/>
      </contour>
    </TTGlyph>
    <TTGlyph name="gafinitialarabic" xMin="142" yMin="226" xMax="842" yMax="1588">
      <contour>
        <pt x="142" y="226" on="1"/>
        <pt x="142" y="1588" on="1"/>
        <pt x="842" y="1588" on="1"/>
        <pt x="842" y="226" on="1"/>
      </contour>
      <contour>
        <pt x="284" y="368" on="1"/>
        <pt x="700" y="368" on="1"/>
        <pt x="700" y="1447" on="1"/>
        <pt x="284" y="1447" on="1"/>
      </contour>
    </TTGlyph>
    <TTGlyph name="gafmedialarabic" xMin="142" yMin="226" xMax="842" yMax="1588">
      <contour>
        <pt x="142" y="226" on="1"/>
        <pt x="142" y="1588" on="1"/>
        <pt x="842" y="1588" on="1"/>
        <pt x="842" y="226" on="1"/>
      </contour>
      <contour>
        <pt x="284" y="368" on="1"/>
        <pt x="700" y="368" on="1"/>
        <pt x="700" y="1447" on="1"/>
        <pt x="284" y="1447" on="1"/>
      </contour>
    </TTGlyph>
    <TTGlyph name="glyph41" xMin="142" yMin="226" xMax="842" yMax="1588">
      <contour>
        <pt x="142" y="226" on="1"/>
        <pt x="142" y="1588" on="1"/>
        <pt x="842" y="1588" on="1"/>
        <pt x="842" y="226" on="1"/>
      </contour>
      <contour>
        <pt x="284" y="368" on="1"/>
        <pt x="700" y="368" on="1"/>
        <pt x="700" y="1447" on="1"/>
        <pt x="284" y="1447" on="1"/>
      </contour>
    </TTGlyph>
    <TTGlyph name="glyph42" xMin="142" yMin="226" xMax="842" yMax="1588">
      <contour>
        <pt x="142" y="226" on="1"/>
        <pt x="142" y="1588" on="1"/>
        <pt x="842" y="1588" on="1"/>
        <pt x="842" y="226" on="1"/>
      </contour>
      <contour>
        <pt x="284" y="368" on="1"/>
        <pt x="700" y="368" on="1"/>
        <pt x="700" y="1447" on="1"/>
        <pt x="284" y="1447" on="1"/>
      </contour>
    </TTGlyph>
    <TTGlyph name="glyph43" xMin="142" yMin="226" xMax="842" yMax="1588">
      <contour>
        <pt x="142" y="226" on="1"/>
        <pt x="142" y="1588" on="1"/>
        <pt x="842" y="1588" on="1"/>
        <pt x="842" y="226" on="1"/>
      </contour>
      <contour>
        <pt x="284" y="368" on="1"/>
        <pt x="700" y="368" on="1"/>
        <pt x="700" y="1447" on="1"/>
        <pt x="284" y="1447" on="1"/>
      </contour>
    </TTGlyph>
    <TTGlyph name="glyph44" xMin="142" yMin="226" xMax="842" yMax="1588">
      <contour>
        <pt x="142" y="226" on="1"/>
        <pt x="142" y="1588" on="1"/>
        <pt x="842" y="1588" on="1"/>
        <pt x="842" y="226" on="1"/>
      </contour>
      <contour>
        <pt x="284" y="368" on="1"/>
        <pt x="700" y="368" on="1"/>
        <pt x="700" y="1447" on="1"/>
        <pt x="284" y="1447" on="1"/>
      </contour>
    </TTGlyph>
    <TTGlyph name="glyph45" xMin="142" yMin="226" xMax="842" yMax="1588">
      <contour>
        <pt x="142" y="226" on="1"/>
        <pt x="142" y="1588" on="1"/>
        <pt x="842" y="1588" on="1"/>
        <pt x="842" y="226" on="1"/>
      </contour>
      <contour>
        <pt x="284" y="368" on="1"/>
        <pt x="700" y="368" on="1"/>
        <pt x="700" y="1447" on="1"/>
        <pt x="284" y="1447" on="1"/>
      </contour>
    </TTGlyph>
    <TTGlyph name="glyph46" xMin="142" yMin="226" xMax="842" yMax="1588">
      <contour>
        <pt x="142" y="226" on="1"/>
        <pt x="142" y="1588" on="1"/>
        <pt x="842" y="1588" on="1"/>
        <pt x="842" y="226" on="1"/>
      </contour>
      <contour>
        <pt x="284" y="368" on="1"/>
        <pt x="700" y="368" on="1"/>
        <pt x="700" y="1447" on="1"/>
        <pt x="284" y="1447" on="1"/>
      </contour>
    </TTGlyph>
    <TTGlyph name="glyph47" xMin="142" yMin="226" xMax="842" yMax="1588">
      <contour>
        <pt x="142" y="226" on="1"/>
        <pt x="142" y="1588" on="1"/>
        <pt x="842" y="1588" on="1"/>
        <pt x="842" y="226" on="1"/>
      </contour>
      <contour>
        <pt x="284" y="368" on="1"/>
        <pt x="700" y="368" on="1"/>
        <pt x="700" y="1447" on="1"/>
        <pt x="284" y="1447" on="1"/>
      </contour>
    </TTGlyph>
    <TTGlyph name="glyph48" xMin="142" yMin="226" xMax="842" yMax="1588">
      <contour>
        <pt x="142" y="226" on="1"/>
        <pt x="142" y="1588" on="1"/>
        <pt x="842" y="1588" on="1"/>
        <pt x="842" y="226" on="1"/>
      </contour>
      <contour>
        <pt x="284" y="368" on="1"/>
        <pt x="700" y="368" on="1"/>
        <pt x="700" y="1447" on="1"/>
        <pt x="284" y="1447" on="1"/>
      </contour>
    </TTGlyph>
    <TTGlyph name="glyph50" xMin="142" yMin="226" xMax="842" yMax="1588">
      <contour>
        <pt x="142" y="226" on="1"/>
        <pt x="142" y="1588" on="1"/>
        <pt x="842" y="1588" on="1"/>
        <pt x="842" y="226" on="1"/>
      </contour>
      <contour>
        <pt x="284" y="368" on="1"/>
        <pt x="700" y="368" on="1"/>
        <pt x="700" y="1447" on="1"/>
        <pt x="284" y="1447" on="1"/>
      </contour>
    </TTGlyph>
    <TTGlyph name="glyph51" xMin="142" yMin="226" xMax="842" yMax="1588">
      <contour>
        <pt x="142" y="226" on="1"/>
        <pt x="142" y="1588" on="1"/>
        <pt x="842" y="1588" on="1"/>
        <pt x="842" y="226" on="1"/>
      </contour>
      <contour>
        <pt x="284" y="368" on="1"/>
        <pt x="700" y="368" on="1"/>
        <pt x="700" y="1447" on="1"/>
        <pt x="284" y="1447" on="1"/>
      </contour>
    </TTGlyph>
    <TTGlyph name="greater" xMin="142" yMin="226" xMax="842" yMax="1588">
      <contour>
        <pt x="142" y="226" on="1"/>
        <pt x="142" y="1588" on="1"/>
        <pt x="842" y="1588" on="1"/>
        <pt x="842" y="226" on="1"/>
      </contour>
      <contour>
        <pt x="284" y="368" on="1"/>
        <pt x="700" y="368" on="1"/>
        <pt x="700" y="1447" on="1"/>
        <pt x="284" y="1447" on="1"/>
      </contour>
    </TTGlyph>
    <TTGlyph name="hahhamzabovefinal" xMin="142" yMin="226" xMax="842" yMax="1588">
      <contour>
        <pt x="142" y="226" on="1"/>
        <pt x="142" y="1588" on="1"/>
        <pt x="842" y="1588" on="1"/>
        <pt x="842" y="226" on="1"/>
      </contour>
      <contour>
        <pt x="284" y="368" on="1"/>
        <pt x="700" y="368" on="1"/>
        <pt x="700" y="1447" on="1"/>
        <pt x="284" y="1447" on="1"/>
      </contour>
    </TTGlyph>
    <TTGlyph name="hahhamzaboveinitial" xMin="142" yMin="226" xMax="842" yMax="1588">
      <contour>
        <pt x="142" y="226" on="1"/>
        <pt x="142" y="1588" on="1"/>
        <pt x="842" y="1588" on="1"/>
        <pt x="842" y="226" on="1"/>
      </contour>
      <contour>
        <pt x="284" y="368" on="1"/>
        <pt x="700" y="368" on="1"/>
        <pt x="700" y="1447" on="1"/>
        <pt x="284" y="1447" on="1"/>
      </contour>
    </TTGlyph>
    <TTGlyph name="hahhamzabovemedial" xMin="142" yMin="226" xMax="842" yMax="1588">
      <contour>
        <pt x="142" y="226" on="1"/>
        <pt x="142" y="1588" on="1"/>
        <pt x="842" y="1588" on="1"/>
        <pt x="842" y="226" on="1"/>
      </contour>
      <contour>
        <pt x="284" y="368" on="1"/>
        <pt x="700" y="368" on="1"/>
        <pt x="700" y="1447" on="1"/>
        <pt x="284" y="1447" on="1"/>
      </contour>
    </TTGlyph>
    <TTGlyph name="hahthreedotsabovefinal" xMin="142" yMin="226" xMax="842" yMax="1588">
      <contour>
        <pt x="142" y="226" on="1"/>
        <pt x="142" y="1588" on="1"/>
        <pt x="842" y="1588" on="1"/>
        <pt x="842" y="226" on="1"/>
      </contour>
      <contour>
        <pt x="284" y="368" on="1"/>
        <pt x="700" y="368" on="1"/>
        <pt x="700" y="1447" on="1"/>
        <pt x="284" y="1447" on="1"/>
      </contour>
    </TTGlyph>
    <TTGlyph name="hahthreedotsaboveinitial" xMin="142" yMin="226" xMax="842" yMax="1588">
      <contour>
        <pt x="142" y="226" on="1"/>
        <pt x="142" y="1588" on="1"/>
        <pt x="842" y="1588" on="1"/>
        <pt x="842" y="226" on="1"/>
      </contour>
      <contour>
        <pt x="284" y="368" on="1"/>
        <pt x="700" y="368" on="1"/>
        <pt x="700" y="1447" on="1"/>
        <pt x="284" y="1447" on="1"/>
      </contour>
    </TTGlyph>
    <TTGlyph name="hahthreedotsabovemedial" xMin="142" yMin="226" xMax="842" yMax="1588">
      <contour>
        <pt x="142" y="226" on="1"/>
        <pt x="142" y="1588" on="1"/>
        <pt x="842" y="1588" on="1"/>
        <pt x="842" y="226" on="1"/>
      </contour>
      <contour>
        <pt x="284" y="368" on="1"/>
        <pt x="700" y="368" on="1"/>
        <pt x="700" y="1447" on="1"/>
        <pt x="284" y="1447" on="1"/>
      </contour>
    </TTGlyph>
    <TTGlyph name="hehdoachashmeefinalarabic" xMin="142" yMin="226" xMax="842" yMax="1588">
      <contour>
        <pt x="142" y="226" on="1"/>
        <pt x="142" y="1588" on="1"/>
        <pt x="842" y="1588" on="1"/>
        <pt x="842" y="226" on="1"/>
      </contour>
      <contour>
        <pt x="284" y="368" on="1"/>
        <pt x="700" y="368" on="1"/>
        <pt x="700" y="1447" on="1"/>
        <pt x="284" y="1447" on="1"/>
      </contour>
    </TTGlyph>
    <TTGlyph name="hehdoachashmeeinitialarabic" xMin="142" yMin="226" xMax="842" yMax="1588">
      <contour>
        <pt x="142" y="226" on="1"/>
        <pt x="142" y="1588" on="1"/>
        <pt x="842" y="1588" on="1"/>
        <pt x="842" y="226" on="1"/>
      </contour>
      <contour>
        <pt x="284" y="368" on="1"/>
        <pt x="700" y="368" on="1"/>
        <pt x="700" y="1447" on="1"/>
        <pt x="284" y="1447" on="1"/>
      </contour>
    </TTGlyph>
    <TTGlyph name="hehdoachashmeemedialarabic" xMin="142" yMin="226" xMax="842" yMax="1588">
      <contour>
        <pt x="142" y="226" on="1"/>
        <pt x="142" y="1588" on="1"/>
        <pt x="842" y="1588" on="1"/>
        <pt x="842" y="226" on="1"/>
      </contour>
      <contour>
        <pt x="284" y="368" on="1"/>
        <pt x="700" y="368" on="1"/>
        <pt x="700" y="1447" on="1"/>
        <pt x="284" y="1447" on="1"/>
      </contour>
    </TTGlyph>
    <TTGlyph name="hehfinalaltonearabic" xMin="142" yMin="226" xMax="842" yMax="1588">
      <contour>
        <pt x="142" y="226" on="1"/>
        <pt x="142" y="1588" on="1"/>
        <pt x="842" y="1588" on="1"/>
        <pt x="842" y="226" on="1"/>
      </contour>
      <contour>
        <pt x="284" y="368" on="1"/>
        <pt x="700" y="368" on="1"/>
        <pt x="700" y="1447" on="1"/>
        <pt x="284" y="1447" on="1"/>
      </contour>
    </TTGlyph>
    <TTGlyph name="hehhamzaabovefinalarabic" xMin="142" yMin="226" xMax="842" yMax="1588">
      <contour>
        <pt x="142" y="226" on="1"/>
        <pt x="142" y="1588" on="1"/>
        <pt x="842" y="1588" on="1"/>
        <pt x="842" y="226" on="1"/>
      </contour>
      <contour>
        <pt x="284" y="368" on="1"/>
        <pt x="700" y="368" on="1"/>
        <pt x="700" y="1447" on="1"/>
        <pt x="284" y="1447" on="1"/>
      </contour>
    </TTGlyph>
    <TTGlyph name="hehinitialaltonearabic" xMin="142" yMin="226" xMax="842" yMax="1588">
      <contour>
        <pt x="142" y="226" on="1"/>
        <pt x="142" y="1588" on="1"/>
        <pt x="842" y="1588" on="1"/>
        <pt x="842" y="226" on="1"/>
      </contour>
      <contour>
        <pt x="284" y="368" on="1"/>
        <pt x="700" y="368" on="1"/>
        <pt x="700" y="1447" on="1"/>
        <pt x="284" y="1447" on="1"/>
      </contour>
    </TTGlyph>
    <TTGlyph name="hehmedialaltonearabic" xMin="142" yMin="226" xMax="842" yMax="1588">
      <contour>
        <pt x="142" y="226" on="1"/>
        <pt x="142" y="1588" on="1"/>
        <pt x="842" y="1588" on="1"/>
        <pt x="842" y="226" on="1"/>
      </contour>
      <contour>
        <pt x="284" y="368" on="1"/>
        <pt x="700" y="368" on="1"/>
        <pt x="700" y="1447" on="1"/>
        <pt x="284" y="1447" on="1"/>
      </contour>
    </TTGlyph>
    <TTGlyph name="hyphen" xMin="348" yMin="-430" xMax="3655" yMax="1474">
      <contour>
        <pt x="3266" y="834" on="1"/>
        <pt x="3266" y="800" on="0"/>
        <pt x="3223" y="767" on="1"/>
        <pt x="3185" y="737" on="0"/>
        <pt x="3164" y="737" on="1"/>
        <pt x="3123" y="737" on="0"/>
        <pt x="3090" y="770" on="1"/>
        <pt x="3061" y="799" on="0"/>
        <pt x="3061" y="824" on="1"/>
        <pt x="3061" y="841" on="0"/>
        <pt x="3086" y="877" on="1"/>
        <pt x="3116" y="922" on="0"/>
        <pt x="3148" y="922" on="1"/>
        <pt x="3181" y="922" on="0"/>
        <pt x="3266" y="859" on="0"/>
      </contour>
      <contour>
        <pt x="3440" y="670" on="1"/>
        <pt x="3440" y="636" on="0"/>
        <pt x="3391" y="596" on="1"/>
        <pt x="3349" y="563" on="0"/>
        <pt x="3332" y="563" on="1"/>
        <pt x="3321" y="563" on="0"/>
        <pt x="3241" y="604" on="0"/>
        <pt x="3230" y="604" on="1"/>
        <pt x="3218" y="604" on="0"/>
        <pt x="3141" y="532" on="0"/>
        <pt x="3128" y="532" on="1"/>
        <pt x="3099" y="532" on="0"/>
        <pt x="3010" y="596" on="0"/>
        <pt x="3010" y="619" on="1"/>
        <pt x="3010" y="652" on="0"/>
        <pt x="3053" y="686" on="1"/>
        <pt x="3091" y="717" on="0"/>
        <pt x="3112" y="717" on="1"/>
        <pt x="3123" y="717" on="0"/>
        <pt x="3181" y="686" on="0"/>
        <pt x="3194" y="686" on="1"/>
        <pt x="3207" y="686" on="0"/>
        <pt x="3294" y="758" on="0"/>
        <pt x="3307" y="758" on="1"/>
        <pt x="3332" y="758" on="0"/>
        <pt x="3440" y="683" on="0"/>
      </contour>
      <contour>
        <pt x="3553" y="1443" on="1"/>
        <pt x="3553" y="1381" on="0"/>
        <pt x="3505" y="1355" on="1"/>
        <pt x="3357" y="1284" on="0"/>
        <pt x="3059" y="1133" on="1"/>
        <pt x="3042" y="1124" on="0"/>
        <pt x="2001" y="542" on="1"/>
        <pt x="1986" y="557" on="0"/>
        <pt x="1986" y="578" on="1"/>
        <pt x="1986" y="654" on="0"/>
        <pt x="2166" y="766" on="1"/>
        <pt x="2271" y="824" on="0"/>
        <pt x="2378" y="882" on="1"/>
        <pt x="2537" y="972" on="0"/>
        <pt x="2859" y="1149" on="1"/>
        <pt x="3476" y="1474" on="0"/>
        <pt x="3498" y="1474" on="1"/>
        <pt x="3540" y="1474" on="1"/>
        <pt x="3553" y="1461" on="0"/>
      </contour>
      <contour>
        <pt x="1966" y="967" on="1"/>
        <pt x="1907" y="881" on="0"/>
        <pt x="1850" y="843" on="1"/>
        <pt x="1806" y="812" on="0"/>
        <pt x="1735" y="775" on="1"/>
        <pt x="1660" y="737" on="0"/>
        <pt x="1642" y="738" on="1"/>
        <pt x="1567" y="738" on="1"/>
        <pt x="1567" y="775" on="1"/>
        <pt x="1587" y="793" on="0"/>
        <pt x="1659" y="835" on="1"/>
        <pt x="1716" y="868" on="0"/>
        <pt x="1741" y="904" on="1"/>
        <pt x="1700" y="922" on="0"/>
        <pt x="1659" y="922" on="1"/>
        <pt x="1642" y="922" on="0"/>
        <pt x="1550" y="860" on="1"/>
        <pt x="1536" y="862" on="0"/>
        <pt x="1536" y="886" on="1"/>
        <pt x="1536" y="918" on="0"/>
        <pt x="1584" y="972" on="1"/>
        <pt x="1628" y="1022" on="0"/>
        <pt x="1651" y="1030" on="1"/>
        <pt x="1664" y="1034" on="0"/>
        <pt x="1720" y="1034" on="1"/>
        <pt x="1792" y="1034" on="0"/>
        <pt x="1900" y="1009" on="1"/>
        <pt x="1936" y="1001" on="0"/>
      </contour>
      <contour>
        <pt x="3655" y="205" on="1"/>
        <pt x="3655" y="0" on="0"/>
        <pt x="3486" y="0" on="1"/>
        <pt x="3397" y="0" on="0"/>
        <pt x="3317" y="51" on="0"/>
        <pt x="3307" y="51" on="1"/>
        <pt x="3295" y="51" on="0"/>
        <pt x="3274" y="31" on="1"/>
        <pt x="3249" y="7" on="0"/>
        <pt x="3243" y="3" on="1"/>
        <pt x="3164" y="-40" on="0"/>
        <pt x="3082" y="-40" on="1"/>
        <pt x="3027" y="-40" on="0"/>
        <pt x="2915" y="20" on="0"/>
        <pt x="2907" y="20" on="1"/>
        <pt x="2897" y="20" on="0"/>
        <pt x="2843" y="-4" on="1"/>
        <pt x="2784" y="-32" on="0"/>
        <pt x="2761" y="-38" on="1"/>
        <pt x="2463" y="-102" on="0"/>
        <pt x="2363" y="-102" on="1"/>
        <pt x="2162" y="-102" on="1"/>
        <pt x="1877" y="-102" on="0"/>
        <pt x="1723" y="-17" on="1"/>
        <pt x="1714" y="-13" on="0"/>
        <pt x="1673" y="23" on="1"/>
        <pt x="1641" y="51" on="0"/>
        <pt x="1623" y="51" on="1"/>
        <pt x="1614" y="51" on="0"/>
        <pt x="1569" y="7" on="1"/>
        <pt x="1519" y="-39" on="0"/>
        <pt x="1491" y="-48" on="1"/>
        <pt x="1410" y="-75" on="0"/>
        <pt x="1185" y="-95" on="1"/>
        <pt x="983" y="-113" on="0"/>
        <pt x="829" y="-113" on="1"/>
        <pt x="755" y="-113" on="0"/>
        <pt x="680" y="-95" on="1"/>
        <pt x="630" y="-88" on="0"/>
        <pt x="545" y="-58" on="1"/>
        <pt x="452" y="2" on="0"/>
        <pt x="427" y="201" on="1"/>
        <pt x="416" y="328" on="0"/>
        <pt x="405" y="455" on="1"/>
        <pt x="385" y="552" on="0"/>
        <pt x="364" y="737" on="1"/>
        <pt x="348" y="891" on="0"/>
        <pt x="348" y="927" on="1"/>
        <pt x="348" y="998" on="0"/>
        <pt x="403" y="1054" on="1"/>
        <pt x="442" y="1040" on="0"/>
        <pt x="459" y="951" on="1"/>
        <pt x="459" y="950" on="0"/>
        <pt x="477" y="804" on="1"/>
        <pt x="492" y="587" on="0"/>
        <pt x="545" y="190" on="1"/>
        <pt x="562" y="112" on="0"/>
        <pt x="642" y="74" on="1"/>
        <pt x="710" y="41" on="0"/>
        <pt x="855" y="41" on="1"/>
        <pt x="1071" y="41" on="0"/>
        <pt x="1213" y="51" on="1"/>
        <pt x="1293" y="57" on="0"/>
        <pt x="1406" y="84" on="1"/>
        <pt x="1516" y="109" on="0"/>
        <pt x="1526" y="123" on="1"/>
        <pt x="1557" y="158" on="0"/>
        <pt x="1612" y="220" on="1"/>
        <pt x="1622" y="225" on="0"/>
        <pt x="1642" y="246" on="1"/>
        <pt x="1691" y="210" on="0"/>
        <pt x="1779" y="145" on="1"/>
        <pt x="1913" y="51" on="0"/>
        <pt x="2176" y="51" on="1"/>
        <pt x="2314" y="51" on="1"/>
        <pt x="2431" y="51" on="0"/>
        <pt x="2661" y="100" on="1"/>
        <pt x="2866" y="143" on="0"/>
        <pt x="2910" y="165" on="1"/>
        <pt x="2933" y="178" on="0"/>
        <pt x="2962" y="213" on="1"/>
        <pt x="3003" y="265" on="0"/>
        <pt x="3014" y="276" on="1"/>
        <pt x="3039" y="265" on="1"/>
        <pt x="3052" y="245" on="0"/>
        <pt x="3049" y="199" on="1"/>
        <pt x="3046" y="152" on="0"/>
        <pt x="3030" y="129" on="1"/>
        <pt x="3056" y="102" on="0"/>
        <pt x="3077" y="102" on="1"/>
        <pt x="3117" y="102" on="0"/>
        <pt x="3175" y="122" on="1"/>
        <pt x="3238" y="143" on="0"/>
        <pt x="3264" y="172" on="1"/>
        <pt x="3275" y="185" on="0"/>
        <pt x="3321" y="283" on="1"/>
        <pt x="3354" y="353" on="0"/>
        <pt x="3397" y="357" on="1"/>
        <pt x="3409" y="297" on="0"/>
        <pt x="3388" y="190" on="1"/>
        <pt x="3467" y="153" on="0"/>
        <pt x="3501" y="153" on="1"/>
        <pt x="3526" y="153" on="0"/>
        <pt x="3549" y="181" on="1"/>
        <pt x="3551" y="198" on="0"/>
        <pt x="3545" y="240" on="1"/>
        <pt x="3536" y="288" on="0"/>
        <pt x="3536" y="313" on="1"/>
        <pt x="3536" y="368" on="0"/>
        <pt x="3564" y="408" on="1"/>
        <pt x="3571" y="409" on="0"/>
        <pt x="3588" y="419" on="1"/>
        <pt x="3614" y="403" on="0"/>
        <pt x="3635" y="324" on="1"/>
        <pt x="3655" y="255" on="0"/>
      </contour>
      <contour>
        <pt x="1177" y="1244" on="1"/>
        <pt x="1167" y="1217" on="0"/>
        <pt x="1140" y="1178" on="1"/>
        <pt x="1008" y="1106" on="0"/>
        <pt x="744" y="942" on="1"/>
        <pt x="699" y="942" on="1"/>
        <pt x="686" y="944" on="0"/>
        <pt x="686" y="967" on="1"/>
        <pt x="686" y="1035" on="0"/>
        <pt x="842" y="1118" on="1"/>
        <pt x="939" y="1169" on="0"/>
        <pt x="1099" y="1269" on="1"/>
        <pt x="1154" y="1269" on="1"/>
      </contour>
      <contour>
        <pt x="1229" y="1070" on="1"/>
        <pt x="1229" y="1026" on="0"/>
        <pt x="1025" y="913" on="1"/>
        <pt x="889" y="840" on="0"/>
        <pt x="754" y="768" on="1"/>
        <pt x="708" y="768" on="1"/>
        <pt x="708" y="773" on="0"/>
        <pt x="696" y="784" on="0"/>
        <pt x="696" y="799" on="1"/>
        <pt x="696" y="850" on="0"/>
        <pt x="851" y="933" on="1"/>
        <pt x="939" y="974" on="0"/>
        <pt x="1026" y="1016" on="1"/>
        <pt x="1079" y="1046" on="0"/>
        <pt x="1181" y="1094" on="1"/>
        <pt x="1216" y="1094" on="1"/>
        <pt x="1229" y="1094" on="0"/>
      </contour>
      <contour>
        <pt x="1300" y="319" on="1"/>
        <pt x="1257" y="287" on="0"/>
        <pt x="1109" y="252" on="1"/>
        <pt x="971" y="220" on="0"/>
        <pt x="929" y="174" on="1"/>
        <pt x="893" y="174" on="1"/>
        <pt x="887" y="185" on="0"/>
        <pt x="893" y="210" on="1"/>
        <pt x="901" y="242" on="0"/>
        <pt x="901" y="251" on="1"/>
        <pt x="901" y="262" on="0"/>
        <pt x="819" y="339" on="0"/>
        <pt x="819" y="358" on="1"/>
        <pt x="819" y="414" on="0"/>
        <pt x="914" y="492" on="1"/>
        <pt x="1002" y="563" on="0"/>
        <pt x="1039" y="563" on="1"/>
        <pt x="1076" y="563" on="0"/>
        <pt x="1107" y="530" on="1"/>
        <pt x="1136" y="498" on="0"/>
        <pt x="1136" y="465" on="1"/>
        <pt x="1136" y="446" on="0"/>
        <pt x="1093" y="399" on="0"/>
        <pt x="1070" y="399" on="1"/>
        <pt x="1057" y="399" on="0"/>
        <pt x="1001" y="451" on="0"/>
        <pt x="988" y="451" on="1"/>
        <pt x="970" y="451" on="0"/>
        <pt x="941" y="424" on="1"/>
        <pt x="941" y="395" on="1"/>
        <pt x="994" y="348" on="0"/>
        <pt x="1024" y="348" on="1"/>
        <pt x="1164" y="348" on="0"/>
        <pt x="1286" y="378" on="1"/>
        <pt x="1300" y="366" on="1"/>
      </contour>
      <contour>
        <pt x="1873" y="-297" on="1"/>
        <pt x="1873" y="-326" on="0"/>
        <pt x="1833" y="-365" on="1"/>
        <pt x="1797" y="-399" on="0"/>
        <pt x="1787" y="-399" on="1"/>
        <pt x="1775" y="-399" on="0"/>
        <pt x="1702" y="-358" on="0"/>
        <pt x="1689" y="-358" on="1"/>
        <pt x="1670" y="-358" on="0"/>
        <pt x="1634" y="-420" on="0"/>
        <pt x="1592" y="-420" on="1"/>
        <pt x="1579" y="-420" on="0"/>
        <pt x="1579" y="-425" on="1"/>
        <pt x="1579" y="-425" on="1"/>
        <pt x="1578" y="-430" on="0"/>
        <pt x="1566" y="-430" on="1"/>
        <pt x="1540" y="-430" on="0"/>
        <pt x="1474" y="-365" on="0"/>
        <pt x="1474" y="-343" on="1"/>
        <pt x="1474" y="-310" on="0"/>
        <pt x="1527" y="-245" on="0"/>
        <pt x="1551" y="-245" on="1"/>
        <pt x="1564" y="-245" on="0"/>
        <pt x="1647" y="-286" on="0"/>
        <pt x="1659" y="-286" on="1"/>
        <pt x="1671" y="-286" on="0"/>
        <pt x="1753" y="-204" on="0"/>
        <pt x="1766" y="-204" on="1"/>
        <pt x="1787" y="-204" on="0"/>
        <pt x="1873" y="-275" on="0"/>
      </contour>
    </TTGlyph>
    <TTGlyph name="irghizufinal" xMin="142" yMin="226" xMax="842" yMax="1588">
      <contour>
        <pt x="142" y="226" on="1"/>
        <pt x="142" y="1588" on="1"/>
        <pt x="842" y="1588" on="1"/>
        <pt x="842" y="226" on="1"/>
      </contour>
      <contour>
        <pt x="284" y="368" on="1"/>
        <pt x="700" y="368" on="1"/>
        <pt x="700" y="1447" on="1"/>
        <pt x="284" y="1447" on="1"/>
      </contour>
    </TTGlyph>
    <TTGlyph name="jehfinalarabic" xMin="142" yMin="226" xMax="842" yMax="1588">
      <contour>
        <pt x="142" y="226" on="1"/>
        <pt x="142" y="1588" on="1"/>
        <pt x="842" y="1588" on="1"/>
        <pt x="842" y="226" on="1"/>
      </contour>
      <contour>
        <pt x="284" y="368" on="1"/>
        <pt x="700" y="368" on="1"/>
        <pt x="700" y="1447" on="1"/>
        <pt x="284" y="1447" on="1"/>
      </contour>
    </TTGlyph>
    <TTGlyph name="kafringfinal" xMin="142" yMin="226" xMax="842" yMax="1588">
      <contour>
        <pt x="142" y="226" on="1"/>
        <pt x="142" y="1588" on="1"/>
        <pt x="842" y="1588" on="1"/>
        <pt x="842" y="226" on="1"/>
      </contour>
      <contour>
        <pt x="284" y="368" on="1"/>
        <pt x="700" y="368" on="1"/>
        <pt x="700" y="1447" on="1"/>
        <pt x="284" y="1447" on="1"/>
      </contour>
    </TTGlyph>
    <TTGlyph name="kafringinitial" xMin="142" yMin="226" xMax="842" yMax="1588">
      <contour>
        <pt x="142" y="226" on="1"/>
        <pt x="142" y="1588" on="1"/>
        <pt x="842" y="1588" on="1"/>
        <pt x="842" y="226" on="1"/>
      </contour>
      <contour>
        <pt x="284" y="368" on="1"/>
        <pt x="700" y="368" on="1"/>
        <pt x="700" y="1447" on="1"/>
        <pt x="284" y="1447" on="1"/>
      </contour>
    </TTGlyph>
    <TTGlyph name="kafringmedial" xMin="142" yMin="226" xMax="842" yMax="1588">
      <contour>
        <pt x="142" y="226" on="1"/>
        <pt x="142" y="1588" on="1"/>
        <pt x="842" y="1588" on="1"/>
        <pt x="842" y="226" on="1"/>
      </contour>
      <contour>
        <pt x="284" y="368" on="1"/>
        <pt x="700" y="368" on="1"/>
        <pt x="700" y="1447" on="1"/>
        <pt x="284" y="1447" on="1"/>
      </contour>
    </TTGlyph>
    <TTGlyph name="kashidaautoarabic" xMin="142" yMin="226" xMax="842" yMax="1588">
      <contour>
        <pt x="142" y="226" on="1"/>
        <pt x="142" y="1588" on="1"/>
        <pt x="842" y="1588" on="1"/>
        <pt x="842" y="226" on="1"/>
      </contour>
      <contour>
        <pt x="284" y="368" on="1"/>
        <pt x="700" y="368" on="1"/>
        <pt x="700" y="1447" on="1"/>
        <pt x="284" y="1447" on="1"/>
      </contour>
    </TTGlyph>
    <TTGlyph name="kashidaautonosidebearingarabic" xMin="142" yMin="226" xMax="842" yMax="1588">
      <contour>
        <pt x="142" y="226" on="1"/>
        <pt x="142" y="1588" on="1"/>
        <pt x="842" y="1588" on="1"/>
        <pt x="842" y="226" on="1"/>
      </contour>
      <contour>
        <pt x="284" y="368" on="1"/>
        <pt x="700" y="368" on="1"/>
        <pt x="700" y="1447" on="1"/>
        <pt x="284" y="1447" on="1"/>
      </contour>
    </TTGlyph>
    <TTGlyph name="kehehfinalarabic" xMin="142" yMin="226" xMax="842" yMax="1588">
      <contour>
        <pt x="142" y="226" on="1"/>
        <pt x="142" y="1588" on="1"/>
        <pt x="842" y="1588" on="1"/>
        <pt x="842" y="226" on="1"/>
      </contour>
      <contour>
        <pt x="284" y="368" on="1"/>
        <pt x="700" y="368" on="1"/>
        <pt x="700" y="1447" on="1"/>
        <pt x="284" y="1447" on="1"/>
      </contour>
    </TTGlyph>
    <TTGlyph name="kehehinitialarabic" xMin="142" yMin="226" xMax="842" yMax="1588">
      <contour>
        <pt x="142" y="226" on="1"/>
        <pt x="142" y="1588" on="1"/>
        <pt x="842" y="1588" on="1"/>
        <pt x="842" y="226" on="1"/>
      </contour>
      <contour>
        <pt x="284" y="368" on="1"/>
        <pt x="700" y="368" on="1"/>
        <pt x="700" y="1447" on="1"/>
        <pt x="284" y="1447" on="1"/>
      </contour>
    </TTGlyph>
    <TTGlyph name="kehehmedialarabic" xMin="142" yMin="226" xMax="842" yMax="1588">
      <contour>
        <pt x="142" y="226" on="1"/>
        <pt x="142" y="1588" on="1"/>
        <pt x="842" y="1588" on="1"/>
        <pt x="842" y="226" on="1"/>
      </contour>
      <contour>
        <pt x="284" y="368" on="1"/>
        <pt x="700" y="368" on="1"/>
        <pt x="700" y="1447" on="1"/>
        <pt x="284" y="1447" on="1"/>
      </contour>
    </TTGlyph>
    <TTGlyph name="kirghizyifinal" xMin="142" yMin="226" xMax="842" yMax="1588">
      <contour>
        <pt x="142" y="226" on="1"/>
        <pt x="142" y="1588" on="1"/>
        <pt x="842" y="1588" on="1"/>
        <pt x="842" y="226" on="1"/>
      </contour>
      <contour>
        <pt x="284" y="368" on="1"/>
        <pt x="700" y="368" on="1"/>
        <pt x="700" y="1447" on="1"/>
        <pt x="284" y="1447" on="1"/>
      </contour>
    </TTGlyph>
    <TTGlyph name="lammeemjeeminitialarabic" xMin="142" yMin="226" xMax="842" yMax="1588">
      <contour>
        <pt x="142" y="226" on="1"/>
        <pt x="142" y="1588" on="1"/>
        <pt x="842" y="1588" on="1"/>
        <pt x="842" y="226" on="1"/>
      </contour>
      <contour>
        <pt x="284" y="368" on="1"/>
        <pt x="700" y="368" on="1"/>
        <pt x="700" y="1447" on="1"/>
        <pt x="284" y="1447" on="1"/>
      </contour>
    </TTGlyph>
    <TTGlyph name="lammeemkhahinitialarabic" xMin="142" yMin="226" xMax="842" yMax="1588">
      <contour>
        <pt x="142" y="226" on="1"/>
        <pt x="142" y="1588" on="1"/>
        <pt x="842" y="1588" on="1"/>
        <pt x="842" y="226" on="1"/>
      </contour>
      <contour>
        <pt x="284" y="368" on="1"/>
        <pt x="700" y="368" on="1"/>
        <pt x="700" y="1447" on="1"/>
        <pt x="284" y="1447" on="1"/>
      </contour>
    </TTGlyph>
    <TTGlyph name="lamthreedotsabovefinal" xMin="142" yMin="226" xMax="842" yMax="1588">
      <contour>
        <pt x="142" y="226" on="1"/>
        <pt x="142" y="1588" on="1"/>
        <pt x="842" y="1588" on="1"/>
        <pt x="842" y="226" on="1"/>
      </contour>
      <contour>
        <pt x="284" y="368" on="1"/>
        <pt x="700" y="368" on="1"/>
        <pt x="700" y="1447" on="1"/>
        <pt x="284" y="1447" on="1"/>
      </contour>
    </TTGlyph>
    <TTGlyph name="lamthreedotsaboveinitial" xMin="142" yMin="226" xMax="842" yMax="1588">
      <contour>
        <pt x="142" y="226" on="1"/>
        <pt x="142" y="1588" on="1"/>
        <pt x="842" y="1588" on="1"/>
        <pt x="842" y="226" on="1"/>
      </contour>
      <contour>
        <pt x="284" y="368" on="1"/>
        <pt x="700" y="368" on="1"/>
        <pt x="700" y="1447" on="1"/>
        <pt x="284" y="1447" on="1"/>
      </contour>
    </TTGlyph>
    <TTGlyph name="lamthreedotsabovemedial" xMin="142" yMin="226" xMax="842" yMax="1588">
      <contour>
        <pt x="142" y="226" on="1"/>
        <pt x="142" y="1588" on="1"/>
        <pt x="842" y="1588" on="1"/>
        <pt x="842" y="226" on="1"/>
      </contour>
      <contour>
        <pt x="284" y="368" on="1"/>
        <pt x="700" y="368" on="1"/>
        <pt x="700" y="1447" on="1"/>
        <pt x="284" y="1447" on="1"/>
      </contour>
    </TTGlyph>
    <TTGlyph name="less" xMin="142" yMin="226" xMax="842" yMax="1588">
      <contour>
        <pt x="142" y="226" on="1"/>
        <pt x="142" y="1588" on="1"/>
        <pt x="842" y="1588" on="1"/>
        <pt x="842" y="226" on="1"/>
      </contour>
      <contour>
        <pt x="284" y="368" on="1"/>
        <pt x="700" y="368" on="1"/>
        <pt x="700" y="1447" on="1"/>
        <pt x="284" y="1447" on="1"/>
      </contour>
    </TTGlyph>
    <TTGlyph name="meemmeemisolatedarabic" xMin="142" yMin="226" xMax="842" yMax="1588">
      <contour>
        <pt x="142" y="226" on="1"/>
        <pt x="142" y="1588" on="1"/>
        <pt x="842" y="1588" on="1"/>
        <pt x="842" y="226" on="1"/>
      </contour>
      <contour>
        <pt x="284" y="368" on="1"/>
        <pt x="700" y="368" on="1"/>
        <pt x="700" y="1447" on="1"/>
        <pt x="284" y="1447" on="1"/>
      </contour>
    </TTGlyph>
    <TTGlyph name="multiply" xMin="142" yMin="226" xMax="842" yMax="1588">
      <contour>
        <pt x="142" y="226" on="1"/>
        <pt x="142" y="1588" on="1"/>
        <pt x="842" y="1588" on="1"/>
        <pt x="842" y="226" on="1"/>
      </contour>
      <contour>
        <pt x="284" y="368" on="1"/>
        <pt x="700" y="368" on="1"/>
        <pt x="700" y="1447" on="1"/>
        <pt x="284" y="1447" on="1"/>
      </contour>
    </TTGlyph>
    <TTGlyph name="noonghunnafinalarabic" xMin="142" yMin="226" xMax="842" yMax="1588">
      <contour>
        <pt x="142" y="226" on="1"/>
        <pt x="142" y="1588" on="1"/>
        <pt x="842" y="1588" on="1"/>
        <pt x="842" y="226" on="1"/>
      </contour>
      <contour>
        <pt x="284" y="368" on="1"/>
        <pt x="700" y="368" on="1"/>
        <pt x="700" y="1447" on="1"/>
        <pt x="284" y="1447" on="1"/>
      </contour>
    </TTGlyph>
    <TTGlyph name="noonjeemisolatedarabic" xMin="142" yMin="226" xMax="842" yMax="1588">
      <contour>
        <pt x="142" y="226" on="1"/>
        <pt x="142" y="1588" on="1"/>
        <pt x="842" y="1588" on="1"/>
        <pt x="842" y="226" on="1"/>
      </contour>
      <contour>
        <pt x="284" y="368" on="1"/>
        <pt x="700" y="368" on="1"/>
        <pt x="700" y="1447" on="1"/>
        <pt x="284" y="1447" on="1"/>
      </contour>
    </TTGlyph>
    <TTGlyph name="noonmeemisolatedarabic" xMin="142" yMin="226" xMax="842" yMax="1588">
      <contour>
        <pt x="142" y="226" on="1"/>
        <pt x="142" y="1588" on="1"/>
        <pt x="842" y="1588" on="1"/>
        <pt x="842" y="226" on="1"/>
      </contour>
      <contour>
        <pt x="284" y="368" on="1"/>
        <pt x="700" y="368" on="1"/>
        <pt x="700" y="1447" on="1"/>
        <pt x="284" y="1447" on="1"/>
      </contour>
    </TTGlyph>
    <TTGlyph name="noonringfinal" xMin="142" yMin="226" xMax="842" yMax="1588">
      <contour>
        <pt x="142" y="226" on="1"/>
        <pt x="142" y="1588" on="1"/>
        <pt x="842" y="1588" on="1"/>
        <pt x="842" y="226" on="1"/>
      </contour>
      <contour>
        <pt x="284" y="368" on="1"/>
        <pt x="700" y="368" on="1"/>
        <pt x="700" y="1447" on="1"/>
        <pt x="284" y="1447" on="1"/>
      </contour>
    </TTGlyph>
    <TTGlyph name="noonringinitial" xMin="142" yMin="226" xMax="842" yMax="1588">
      <contour>
        <pt x="142" y="226" on="1"/>
        <pt x="142" y="1588" on="1"/>
        <pt x="842" y="1588" on="1"/>
        <pt x="842" y="226" on="1"/>
      </contour>
      <contour>
        <pt x="284" y="368" on="1"/>
        <pt x="700" y="368" on="1"/>
        <pt x="700" y="1447" on="1"/>
        <pt x="284" y="1447" on="1"/>
      </contour>
    </TTGlyph>
    <TTGlyph name="noonringmedial" xMin="142" yMin="226" xMax="842" yMax="1588">
      <contour>
        <pt x="142" y="226" on="1"/>
        <pt x="142" y="1588" on="1"/>
        <pt x="842" y="1588" on="1"/>
        <pt x="842" y="226" on="1"/>
      </contour>
      <contour>
        <pt x="284" y="368" on="1"/>
        <pt x="700" y="368" on="1"/>
        <pt x="700" y="1447" on="1"/>
        <pt x="284" y="1447" on="1"/>
      </contour>
    </TTGlyph>
    <TTGlyph name="numbersign" xMin="142" yMin="226" xMax="842" yMax="1588">
      <contour>
        <pt x="142" y="226" on="1"/>
        <pt x="142" y="1588" on="1"/>
        <pt x="842" y="1588" on="1"/>
        <pt x="842" y="226" on="1"/>
      </contour>
      <contour>
        <pt x="284" y="368" on="1"/>
        <pt x="700" y="368" on="1"/>
        <pt x="700" y="1447" on="1"/>
        <pt x="284" y="1447" on="1"/>
      </contour>
    </TTGlyph>
    <TTGlyph name="parenleft" xMin="142" yMin="226" xMax="842" yMax="1588">
      <contour>
        <pt x="142" y="226" on="1"/>
        <pt x="142" y="1588" on="1"/>
        <pt x="842" y="1588" on="1"/>
        <pt x="842" y="226" on="1"/>
      </contour>
      <contour>
        <pt x="284" y="368" on="1"/>
        <pt x="700" y="368" on="1"/>
        <pt x="700" y="1447" on="1"/>
        <pt x="284" y="1447" on="1"/>
      </contour>
    </TTGlyph>
    <TTGlyph name="parenright" xMin="142" yMin="226" xMax="842" yMax="1588">
      <contour>
        <pt x="142" y="226" on="1"/>
        <pt x="142" y="1588" on="1"/>
        <pt x="842" y="1588" on="1"/>
        <pt x="842" y="226" on="1"/>
      </contour>
      <contour>
        <pt x="284" y="368" on="1"/>
        <pt x="700" y="368" on="1"/>
        <pt x="700" y="1447" on="1"/>
        <pt x="284" y="1447" on="1"/>
      </contour>
    </TTGlyph>
    <TTGlyph name="pashtoefinal" xMin="142" yMin="226" xMax="842" yMax="1588">
      <contour>
        <pt x="142" y="226" on="1"/>
        <pt x="142" y="1588" on="1"/>
        <pt x="842" y="1588" on="1"/>
        <pt x="842" y="226" on="1"/>
      </contour>
      <contour>
        <pt x="284" y="368" on="1"/>
        <pt x="700" y="368" on="1"/>
        <pt x="700" y="1447" on="1"/>
        <pt x="284" y="1447" on="1"/>
      </contour>
    </TTGlyph>
    <TTGlyph name="pashtoeinitial" xMin="142" yMin="226" xMax="842" yMax="1588">
      <contour>
        <pt x="142" y="226" on="1"/>
        <pt x="142" y="1588" on="1"/>
        <pt x="842" y="1588" on="1"/>
        <pt x="842" y="226" on="1"/>
      </contour>
      <contour>
        <pt x="284" y="368" on="1"/>
        <pt x="700" y="368" on="1"/>
        <pt x="700" y="1447" on="1"/>
        <pt x="284" y="1447" on="1"/>
      </contour>
    </TTGlyph>
    <TTGlyph name="pashtoemedial" xMin="142" yMin="226" xMax="842" yMax="1588">
      <contour>
        <pt x="142" y="226" on="1"/>
        <pt x="142" y="1588" on="1"/>
        <pt x="842" y="1588" on="1"/>
        <pt x="842" y="226" on="1"/>
      </contour>
      <contour>
        <pt x="284" y="368" on="1"/>
        <pt x="700" y="368" on="1"/>
        <pt x="700" y="1447" on="1"/>
        <pt x="284" y="1447" on="1"/>
      </contour>
    </TTGlyph>
    <TTGlyph name="pehfinalarabic" xMin="142" yMin="226" xMax="842" yMax="1588">
      <contour>
        <pt x="142" y="226" on="1"/>
        <pt x="142" y="1588" on="1"/>
        <pt x="842" y="1588" on="1"/>
        <pt x="842" y="226" on="1"/>
      </contour>
      <contour>
        <pt x="284" y="368" on="1"/>
        <pt x="700" y="368" on="1"/>
        <pt x="700" y="1447" on="1"/>
        <pt x="284" y="1447" on="1"/>
      </contour>
    </TTGlyph>
    <TTGlyph name="pehinitialarabic" xMin="142" yMin="226" xMax="842" yMax="1588">
      <contour>
        <pt x="142" y="226" on="1"/>
        <pt x="142" y="1588" on="1"/>
        <pt x="842" y="1588" on="1"/>
        <pt x="842" y="226" on="1"/>
      </contour>
      <contour>
        <pt x="284" y="368" on="1"/>
        <pt x="700" y="368" on="1"/>
        <pt x="700" y="1447" on="1"/>
        <pt x="284" y="1447" on="1"/>
      </contour>
    </TTGlyph>
    <TTGlyph name="pehmedialarabic" xMin="142" yMin="226" xMax="842" yMax="1588">
      <contour>
        <pt x="142" y="226" on="1"/>
        <pt x="142" y="1588" on="1"/>
        <pt x="842" y="1588" on="1"/>
        <pt x="842" y="226" on="1"/>
      </contour>
      <contour>
        <pt x="284" y="368" on="1"/>
        <pt x="700" y="368" on="1"/>
        <pt x="700" y="1447" on="1"/>
        <pt x="284" y="1447" on="1"/>
      </contour>
    </TTGlyph>
    <TTGlyph name="percent" xMin="142" yMin="226" xMax="842" yMax="1588">
      <contour>
        <pt x="142" y="226" on="1"/>
        <pt x="142" y="1588" on="1"/>
        <pt x="842" y="1588" on="1"/>
        <pt x="842" y="226" on="1"/>
      </contour>
      <contour>
        <pt x="284" y="368" on="1"/>
        <pt x="700" y="368" on="1"/>
        <pt x="700" y="1447" on="1"/>
        <pt x="284" y="1447" on="1"/>
      </contour>
    </TTGlyph>
    <TTGlyph name="period" xMin="142" yMin="226" xMax="842" yMax="1588">
      <contour>
        <pt x="142" y="226" on="1"/>
        <pt x="142" y="1588" on="1"/>
        <pt x="842" y="1588" on="1"/>
        <pt x="842" y="226" on="1"/>
      </contour>
      <contour>
        <pt x="284" y="368" on="1"/>
        <pt x="700" y="368" on="1"/>
        <pt x="700" y="1447" on="1"/>
        <pt x="284" y="1447" on="1"/>
      </contour>
    </TTGlyph>
    <TTGlyph name="plus" xMin="142" yMin="226" xMax="842" yMax="1588">
      <contour>
        <pt x="142" y="226" on="1"/>
        <pt x="142" y="1588" on="1"/>
        <pt x="842" y="1588" on="1"/>
        <pt x="842" y="226" on="1"/>
      </contour>
      <contour>
        <pt x="284" y="368" on="1"/>
        <pt x="700" y="368" on="1"/>
        <pt x="700" y="1447" on="1"/>
        <pt x="284" y="1447" on="1"/>
      </contour>
    </TTGlyph>
    <TTGlyph name="quotedbl" xMin="142" yMin="226" xMax="842" yMax="1588">
      <contour>
        <pt x="142" y="226" on="1"/>
        <pt x="142" y="1588" on="1"/>
        <pt x="842" y="1588" on="1"/>
        <pt x="842" y="226" on="1"/>
      </contour>
      <contour>
        <pt x="284" y="368" on="1"/>
        <pt x="700" y="368" on="1"/>
        <pt x="700" y="1447" on="1"/>
        <pt x="284" y="1447" on="1"/>
      </contour>
    </TTGlyph>
    <TTGlyph name="quotesingle" xMin="142" yMin="226" xMax="842" yMax="1588">
      <contour>
        <pt x="142" y="226" on="1"/>
        <pt x="142" y="1588" on="1"/>
        <pt x="842" y="1588" on="1"/>
        <pt x="842" y="226" on="1"/>
      </contour>
      <contour>
        <pt x="284" y="368" on="1"/>
        <pt x="700" y="368" on="1"/>
        <pt x="700" y="1447" on="1"/>
        <pt x="284" y="1447" on="1"/>
      </contour>
    </TTGlyph>
    <TTGlyph name="rehdotbelowdotabovefinal" xMin="142" yMin="226" xMax="842" yMax="1588">
      <contour>
        <pt x="142" y="226" on="1"/>
        <pt x="142" y="1588" on="1"/>
        <pt x="842" y="1588" on="1"/>
        <pt x="842" y="226" on="1"/>
      </contour>
      <contour>
        <pt x="284" y="368" on="1"/>
        <pt x="700" y="368" on="1"/>
        <pt x="700" y="1447" on="1"/>
        <pt x="284" y="1447" on="1"/>
      </contour>
    </TTGlyph>
    <TTGlyph name="rehringfinal" xMin="142" yMin="226" xMax="842" yMax="1588">
      <contour>
        <pt x="142" y="226" on="1"/>
        <pt x="142" y="1588" on="1"/>
        <pt x="842" y="1588" on="1"/>
        <pt x="842" y="226" on="1"/>
      </contour>
      <contour>
        <pt x="284" y="368" on="1"/>
        <pt x="700" y="368" on="1"/>
        <pt x="700" y="1447" on="1"/>
        <pt x="284" y="1447" on="1"/>
      </contour>
    </TTGlyph>
    <TTGlyph name="rrehfinalarabic" xMin="142" yMin="226" xMax="842" yMax="1588">
      <contour>
        <pt x="142" y="226" on="1"/>
        <pt x="142" y="1588" on="1"/>
        <pt x="842" y="1588" on="1"/>
        <pt x="842" y="226" on="1"/>
      </contour>
      <contour>
        <pt x="284" y="368" on="1"/>
        <pt x="700" y="368" on="1"/>
        <pt x="700" y="1447" on="1"/>
        <pt x="284" y="1447" on="1"/>
      </contour>
    </TTGlyph>
    <TTGlyph name="seendotbelowdotabovefinal" xMin="142" yMin="226" xMax="842" yMax="1588">
      <contour>
        <pt x="142" y="226" on="1"/>
        <pt x="142" y="1588" on="1"/>
        <pt x="842" y="1588" on="1"/>
        <pt x="842" y="226" on="1"/>
      </contour>
      <contour>
        <pt x="284" y="368" on="1"/>
        <pt x="700" y="368" on="1"/>
        <pt x="700" y="1447" on="1"/>
        <pt x="284" y="1447" on="1"/>
      </contour>
    </TTGlyph>
    <TTGlyph name="seendotbelowdotaboveinitial" xMin="142" yMin="226" xMax="842" yMax="1588">
      <contour>
        <pt x="142" y="226" on="1"/>
        <pt x="142" y="1588" on="1"/>
        <pt x="842" y="1588" on="1"/>
        <pt x="842" y="226" on="1"/>
      </contour>
      <contour>
        <pt x="284" y="368" on="1"/>
        <pt x="700" y="368" on="1"/>
        <pt x="700" y="1447" on="1"/>
        <pt x="284" y="1447" on="1"/>
      </contour>
    </TTGlyph>
    <TTGlyph name="seendotbelowdotabovemedial" xMin="142" yMin="226" xMax="842" yMax="1588">
      <contour>
        <pt x="142" y="226" on="1"/>
        <pt x="142" y="1588" on="1"/>
        <pt x="842" y="1588" on="1"/>
        <pt x="842" y="226" on="1"/>
      </contour>
      <contour>
        <pt x="284" y="368" on="1"/>
        <pt x="700" y="368" on="1"/>
        <pt x="700" y="1447" on="1"/>
        <pt x="284" y="1447" on="1"/>
      </contour>
    </TTGlyph>
    <TTGlyph name="shaddadammaarabic" xMin="142" yMin="226" xMax="842" yMax="1588">
      <contour>
        <pt x="142" y="226" on="1"/>
        <pt x="142" y="1588" on="1"/>
        <pt x="842" y="1588" on="1"/>
        <pt x="842" y="226" on="1"/>
      </contour>
      <contour>
        <pt x="284" y="368" on="1"/>
        <pt x="700" y="368" on="1"/>
        <pt x="700" y="1447" on="1"/>
        <pt x="284" y="1447" on="1"/>
      </contour>
    </TTGlyph>
    <TTGlyph name="shaddadammatanarabic" xMin="142" yMin="226" xMax="842" yMax="1588">
      <contour>
        <pt x="142" y="226" on="1"/>
        <pt x="142" y="1588" on="1"/>
        <pt x="842" y="1588" on="1"/>
        <pt x="842" y="226" on="1"/>
      </contour>
      <contour>
        <pt x="284" y="368" on="1"/>
        <pt x="700" y="368" on="1"/>
        <pt x="700" y="1447" on="1"/>
        <pt x="284" y="1447" on="1"/>
      </contour>
    </TTGlyph>
    <TTGlyph name="shaddafathaarabic" xMin="142" yMin="226" xMax="842" yMax="1588">
      <contour>
        <pt x="142" y="226" on="1"/>
        <pt x="142" y="1588" on="1"/>
        <pt x="842" y="1588" on="1"/>
        <pt x="842" y="226" on="1"/>
      </contour>
      <contour>
        <pt x="284" y="368" on="1"/>
        <pt x="700" y="368" on="1"/>
        <pt x="700" y="1447" on="1"/>
        <pt x="284" y="1447" on="1"/>
      </contour>
    </TTGlyph>
    <TTGlyph name="shaddakasraarabic" xMin="142" yMin="226" xMax="842" yMax="1588">
      <contour>
        <pt x="142" y="226" on="1"/>
        <pt x="142" y="1588" on="1"/>
        <pt x="842" y="1588" on="1"/>
        <pt x="842" y="226" on="1"/>
      </contour>
      <contour>
        <pt x="284" y="368" on="1"/>
        <pt x="700" y="368" on="1"/>
        <pt x="700" y="1447" on="1"/>
        <pt x="284" y="1447" on="1"/>
      </contour>
    </TTGlyph>
    <TTGlyph name="shaddakasratanarabic" xMin="142" yMin="226" xMax="842" yMax="1588">
      <contour>
        <pt x="142" y="226" on="1"/>
        <pt x="142" y="1588" on="1"/>
        <pt x="842" y="1588" on="1"/>
        <pt x="842" y="226" on="1"/>
      </contour>
      <contour>
        <pt x="284" y="368" on="1"/>
        <pt x="700" y="368" on="1"/>
        <pt x="700" y="1447" on="1"/>
        <pt x="284" y="1447" on="1"/>
      </contour>
    </TTGlyph>
    <TTGlyph name="slash" xMin="142" yMin="226" xMax="842" yMax="1588">
      <contour>
        <pt x="142" y="226" on="1"/>
        <pt x="142" y="1588" on="1"/>
        <pt x="842" y="1588" on="1"/>
        <pt x="842" y="226" on="1"/>
      </contour>
      <contour>
        <pt x="284" y="368" on="1"/>
        <pt x="700" y="368" on="1"/>
        <pt x="700" y="1447" on="1"/>
        <pt x="284" y="1447" on="1"/>
      </contour>
    </TTGlyph>
    <TTGlyph name="space" xMin="142" yMin="226" xMax="842" yMax="1588">
      <contour>
        <pt x="142" y="226" on="1"/>
        <pt x="142" y="1588" on="1"/>
        <pt x="842" y="1588" on="1"/>
        <pt x="842" y="226" on="1"/>
      </contour>
      <contour>
        <pt x="284" y="368" on="1"/>
        <pt x="700" y="368" on="1"/>
        <pt x="700" y="1447" on="1"/>
        <pt x="284" y="1447" on="1"/>
      </contour>
    </TTGlyph>
    <TTGlyph name="tchehfinalarabic" xMin="142" yMin="226" xMax="842" yMax="1588">
      <contour>
        <pt x="142" y="226" on="1"/>
        <pt x="142" y="1588" on="1"/>
        <pt x="842" y="1588" on="1"/>
        <pt x="842" y="226" on="1"/>
      </contour>
      <contour>
        <pt x="284" y="368" on="1"/>
        <pt x="700" y="368" on="1"/>
        <pt x="700" y="1447" on="1"/>
        <pt x="284" y="1447" on="1"/>
      </contour>
    </TTGlyph>
    <TTGlyph name="tchehinitialarabic" xMin="142" yMin="226" xMax="842" yMax="1588">
      <contour>
        <pt x="142" y="226" on="1"/>
        <pt x="142" y="1588" on="1"/>
        <pt x="842" y="1588" on="1"/>
        <pt x="842" y="226" on="1"/>
      </contour>
      <contour>
        <pt x="284" y="368" on="1"/>
        <pt x="700" y="368" on="1"/>
        <pt x="700" y="1447" on="1"/>
        <pt x="284" y="1447" on="1"/>
      </contour>
    </TTGlyph>
    <TTGlyph name="tchehmedialarabic" xMin="142" yMin="226" xMax="842" yMax="1588">
      <contour>
        <pt x="142" y="226" on="1"/>
        <pt x="142" y="1588" on="1"/>
        <pt x="842" y="1588" on="1"/>
        <pt x="842" y="226" on="1"/>
      </contour>
      <contour>
        <pt x="284" y="368" on="1"/>
        <pt x="700" y="368" on="1"/>
        <pt x="700" y="1447" on="1"/>
        <pt x="284" y="1447" on="1"/>
      </contour>
    </TTGlyph>
    <TTGlyph name="tehhahisolatedarabic" xMin="142" yMin="226" xMax="842" yMax="1588">
      <contour>
        <pt x="142" y="226" on="1"/>
        <pt x="142" y="1588" on="1"/>
        <pt x="842" y="1588" on="1"/>
        <pt x="842" y="226" on="1"/>
      </contour>
      <contour>
        <pt x="284" y="368" on="1"/>
        <pt x="700" y="368" on="1"/>
        <pt x="700" y="1447" on="1"/>
        <pt x="284" y="1447" on="1"/>
      </contour>
    </TTGlyph>
    <TTGlyph name="tehjeemisolatedarabic" xMin="142" yMin="226" xMax="842" yMax="1588">
      <contour>
        <pt x="142" y="226" on="1"/>
        <pt x="142" y="1588" on="1"/>
        <pt x="842" y="1588" on="1"/>
        <pt x="842" y="226" on="1"/>
      </contour>
      <contour>
        <pt x="284" y="368" on="1"/>
        <pt x="700" y="368" on="1"/>
        <pt x="700" y="1447" on="1"/>
        <pt x="284" y="1447" on="1"/>
      </contour>
    </TTGlyph>
    <TTGlyph name="tehmeemisolatedarabic" xMin="142" yMin="226" xMax="842" yMax="1588">
      <contour>
        <pt x="142" y="226" on="1"/>
        <pt x="142" y="1588" on="1"/>
        <pt x="842" y="1588" on="1"/>
        <pt x="842" y="226" on="1"/>
      </contour>
      <contour>
        <pt x="284" y="368" on="1"/>
        <pt x="700" y="368" on="1"/>
        <pt x="700" y="1447" on="1"/>
        <pt x="284" y="1447" on="1"/>
      </contour>
    </TTGlyph>
    <TTGlyph name="tehnoonfinalarabic" xMin="142" yMin="226" xMax="842" yMax="1588">
      <contour>
        <pt x="142" y="226" on="1"/>
        <pt x="142" y="1588" on="1"/>
        <pt x="842" y="1588" on="1"/>
        <pt x="842" y="226" on="1"/>
      </contour>
      <contour>
        <pt x="284" y="368" on="1"/>
        <pt x="700" y="368" on="1"/>
        <pt x="700" y="1447" on="1"/>
        <pt x="284" y="1447" on="1"/>
      </contour>
    </TTGlyph>
    <TTGlyph name="tehringfinal" xMin="142" yMin="226" xMax="842" yMax="1588">
      <contour>
        <pt x="142" y="226" on="1"/>
        <pt x="142" y="1588" on="1"/>
        <pt x="842" y="1588" on="1"/>
        <pt x="842" y="226" on="1"/>
      </contour>
      <contour>
        <pt x="284" y="368" on="1"/>
        <pt x="700" y="368" on="1"/>
        <pt x="700" y="1447" on="1"/>
        <pt x="284" y="1447" on="1"/>
      </contour>
    </TTGlyph>
    <TTGlyph name="tehringinitial" xMin="142" yMin="226" xMax="842" yMax="1588">
      <contour>
        <pt x="142" y="226" on="1"/>
        <pt x="142" y="1588" on="1"/>
        <pt x="842" y="1588" on="1"/>
        <pt x="842" y="226" on="1"/>
      </contour>
      <contour>
        <pt x="284" y="368" on="1"/>
        <pt x="700" y="368" on="1"/>
        <pt x="700" y="1447" on="1"/>
        <pt x="284" y="1447" on="1"/>
      </contour>
    </TTGlyph>
    <TTGlyph name="tehringmedial" xMin="142" yMin="226" xMax="842" yMax="1588">
      <contour>
        <pt x="142" y="226" on="1"/>
        <pt x="142" y="1588" on="1"/>
        <pt x="842" y="1588" on="1"/>
        <pt x="842" y="226" on="1"/>
      </contour>
      <contour>
        <pt x="284" y="368" on="1"/>
        <pt x="700" y="368" on="1"/>
        <pt x="700" y="1447" on="1"/>
        <pt x="284" y="1447" on="1"/>
      </contour>
    </TTGlyph>
    <TTGlyph name="ttehfinalarabic" xMin="142" yMin="226" xMax="842" yMax="1588">
      <contour>
        <pt x="142" y="226" on="1"/>
        <pt x="142" y="1588" on="1"/>
        <pt x="842" y="1588" on="1"/>
        <pt x="842" y="226" on="1"/>
      </contour>
      <contour>
        <pt x="284" y="368" on="1"/>
        <pt x="700" y="368" on="1"/>
        <pt x="700" y="1447" on="1"/>
        <pt x="284" y="1447" on="1"/>
      </contour>
    </TTGlyph>
    <TTGlyph name="ttehinitialarabic" xMin="142" yMin="226" xMax="842" yMax="1588">
      <contour>
        <pt x="142" y="226" on="1"/>
        <pt x="142" y="1588" on="1"/>
        <pt x="842" y="1588" on="1"/>
        <pt x="842" y="226" on="1"/>
      </contour>
      <contour>
        <pt x="284" y="368" on="1"/>
        <pt x="700" y="368" on="1"/>
        <pt x="700" y="1447" on="1"/>
        <pt x="284" y="1447" on="1"/>
      </contour>
    </TTGlyph>
    <TTGlyph name="ttehmedialarabic" xMin="142" yMin="226" xMax="842" yMax="1588">
      <contour>
        <pt x="142" y="226" on="1"/>
        <pt x="142" y="1588" on="1"/>
        <pt x="842" y="1588" on="1"/>
        <pt x="842" y="226" on="1"/>
      </contour>
      <contour>
        <pt x="284" y="368" on="1"/>
        <pt x="700" y="368" on="1"/>
        <pt x="700" y="1447" on="1"/>
        <pt x="284" y="1447" on="1"/>
      </contour>
    </TTGlyph>
    <TTGlyph name="uni000D" xMin="142" yMin="226" xMax="842" yMax="1588">
      <contour>
        <pt x="142" y="226" on="1"/>
        <pt x="142" y="1588" on="1"/>
        <pt x="842" y="1588" on="1"/>
        <pt x="842" y="226" on="1"/>
      </contour>
      <contour>
        <pt x="284" y="368" on="1"/>
        <pt x="700" y="368" on="1"/>
        <pt x="700" y="1447" on="1"/>
        <pt x="284" y="1447" on="1"/>
      </contour>
    </TTGlyph>
    <TTGlyph name="uni00A0" xMin="142" yMin="226" xMax="842" yMax="1588">
      <contour>
        <pt x="142" y="226" on="1"/>
        <pt x="142" y="1588" on="1"/>
        <pt x="842" y="1588" on="1"/>
        <pt x="842" y="226" on="1"/>
      </contour>
      <contour>
        <pt x="284" y="368" on="1"/>
        <pt x="700" y="368" on="1"/>
        <pt x="700" y="1447" on="1"/>
        <pt x="284" y="1447" on="1"/>
      </contour>
    </TTGlyph>
    <TTGlyph name="uni00AD" xMin="142" yMin="226" xMax="842" yMax="1588">
      <contour>
        <pt x="142" y="226" on="1"/>
        <pt x="142" y="1588" on="1"/>
        <pt x="842" y="1588" on="1"/>
        <pt x="842" y="226" on="1"/>
      </contour>
      <contour>
        <pt x="284" y="368" on="1"/>
        <pt x="700" y="368" on="1"/>
        <pt x="700" y="1447" on="1"/>
        <pt x="284" y="1447" on="1"/>
      </contour>
    </TTGlyph>
    <TTGlyph name="uni0653" xMin="142" yMin="226" xMax="842" yMax="1588">
      <contour>
        <pt x="142" y="226" on="1"/>
        <pt x="142" y="1588" on="1"/>
        <pt x="842" y="1588" on="1"/>
        <pt x="842" y="226" on="1"/>
      </contour>
      <contour>
        <pt x="284" y="368" on="1"/>
        <pt x="700" y="368" on="1"/>
        <pt x="700" y="1447" on="1"/>
        <pt x="284" y="1447" on="1"/>
      </contour>
    </TTGlyph>
    <TTGlyph name="uni0654" xMin="142" yMin="226" xMax="842" yMax="1588">
      <contour>
        <pt x="142" y="226" on="1"/>
        <pt x="142" y="1588" on="1"/>
        <pt x="842" y="1588" on="1"/>
        <pt x="842" y="226" on="1"/>
      </contour>
      <contour>
        <pt x="284" y="368" on="1"/>
        <pt x="700" y="368" on="1"/>
        <pt x="700" y="1447" on="1"/>
        <pt x="284" y="1447" on="1"/>
      </contour>
    </TTGlyph>
    <TTGlyph name="uni0655" xMin="142" yMin="226" xMax="842" yMax="1588">
      <contour>
        <pt x="142" y="226" on="1"/>
        <pt x="142" y="1588" on="1"/>
        <pt x="842" y="1588" on="1"/>
        <pt x="842" y="226" on="1"/>
      </contour>
      <contour>
        <pt x="284" y="368" on="1"/>
        <pt x="700" y="368" on="1"/>
        <pt x="700" y="1447" on="1"/>
        <pt x="284" y="1447" on="1"/>
      </contour>
    </TTGlyph>
    <TTGlyph name="uni066B" xMin="142" yMin="226" xMax="842" yMax="1588">
      <contour>
        <pt x="142" y="226" on="1"/>
        <pt x="142" y="1588" on="1"/>
        <pt x="842" y="1588" on="1"/>
        <pt x="842" y="226" on="1"/>
      </contour>
      <contour>
        <pt x="284" y="368" on="1"/>
        <pt x="700" y="368" on="1"/>
        <pt x="700" y="1447" on="1"/>
        <pt x="284" y="1447" on="1"/>
      </contour>
    </TTGlyph>
    <TTGlyph name="uni066C" xMin="142" yMin="226" xMax="842" yMax="1588">
      <contour>
        <pt x="142" y="226" on="1"/>
        <pt x="142" y="1588" on="1"/>
        <pt x="842" y="1588" on="1"/>
        <pt x="842" y="226" on="1"/>
      </contour>
      <contour>
        <pt x="284" y="368" on="1"/>
        <pt x="700" y="368" on="1"/>
        <pt x="700" y="1447" on="1"/>
        <pt x="284" y="1447" on="1"/>
      </contour>
    </TTGlyph>
    <TTGlyph name="uni0671" xMin="142" yMin="226" xMax="842" yMax="1588">
      <contour>
        <pt x="142" y="226" on="1"/>
        <pt x="142" y="1588" on="1"/>
        <pt x="842" y="1588" on="1"/>
        <pt x="842" y="226" on="1"/>
      </contour>
      <contour>
        <pt x="284" y="368" on="1"/>
        <pt x="700" y="368" on="1"/>
        <pt x="700" y="1447" on="1"/>
        <pt x="284" y="1447" on="1"/>
      </contour>
    </TTGlyph>
    <TTGlyph name="uni067C" xMin="142" yMin="226" xMax="842" yMax="1588">
      <contour>
        <pt x="142" y="226" on="1"/>
        <pt x="142" y="1588" on="1"/>
        <pt x="842" y="1588" on="1"/>
        <pt x="842" y="226" on="1"/>
      </contour>
      <contour>
        <pt x="284" y="368" on="1"/>
        <pt x="700" y="368" on="1"/>
        <pt x="700" y="1447" on="1"/>
        <pt x="284" y="1447" on="1"/>
      </contour>
    </TTGlyph>
    <TTGlyph name="uni0681" xMin="142" yMin="226" xMax="842" yMax="1588">
      <contour>
        <pt x="142" y="226" on="1"/>
        <pt x="142" y="1588" on="1"/>
        <pt x="842" y="1588" on="1"/>
        <pt x="842" y="226" on="1"/>
      </contour>
      <contour>
        <pt x="284" y="368" on="1"/>
        <pt x="700" y="368" on="1"/>
        <pt x="700" y="1447" on="1"/>
        <pt x="284" y="1447" on="1"/>
      </contour>
    </TTGlyph>
    <TTGlyph name="uni0685" xMin="142" yMin="226" xMax="842" yMax="1588">
      <contour>
        <pt x="142" y="226" on="1"/>
        <pt x="142" y="1588" on="1"/>
        <pt x="842" y="1588" on="1"/>
        <pt x="842" y="226" on="1"/>
      </contour>
      <contour>
        <pt x="284" y="368" on="1"/>
        <pt x="700" y="368" on="1"/>
        <pt x="700" y="1447" on="1"/>
        <pt x="284" y="1447" on="1"/>
      </contour>
    </TTGlyph>
    <TTGlyph name="uni0689" xMin="142" yMin="226" xMax="842" yMax="1588">
      <contour>
        <pt x="142" y="226" on="1"/>
        <pt x="142" y="1588" on="1"/>
        <pt x="842" y="1588" on="1"/>
        <pt x="842" y="226" on="1"/>
      </contour>
      <contour>
        <pt x="284" y="368" on="1"/>
        <pt x="700" y="368" on="1"/>
        <pt x="700" y="1447" on="1"/>
        <pt x="284" y="1447" on="1"/>
      </contour>
    </TTGlyph>
    <TTGlyph name="uni0693" xMin="142" yMin="226" xMax="842" yMax="1588">
      <contour>
        <pt x="142" y="226" on="1"/>
        <pt x="142" y="1588" on="1"/>
        <pt x="842" y="1588" on="1"/>
        <pt x="842" y="226" on="1"/>
      </contour>
      <contour>
        <pt x="284" y="368" on="1"/>
        <pt x="700" y="368" on="1"/>
        <pt x="700" y="1447" on="1"/>
        <pt x="284" y="1447" on="1"/>
      </contour>
    </TTGlyph>
    <TTGlyph name="uni0696" xMin="142" yMin="226" xMax="842" yMax="1588">
      <contour>
        <pt x="142" y="226" on="1"/>
        <pt x="142" y="1588" on="1"/>
        <pt x="842" y="1588" on="1"/>
        <pt x="842" y="226" on="1"/>
      </contour>
      <contour>
        <pt x="284" y="368" on="1"/>
        <pt x="700" y="368" on="1"/>
        <pt x="700" y="1447" on="1"/>
        <pt x="284" y="1447" on="1"/>
      </contour>
    </TTGlyph>
    <TTGlyph name="uni069A" xMin="142" yMin="226" xMax="842" yMax="1588">
      <contour>
        <pt x="142" y="226" on="1"/>
        <pt x="142" y="1588" on="1"/>
        <pt x="842" y="1588" on="1"/>
        <pt x="842" y="226" on="1"/>
      </contour>
      <contour>
        <pt x="284" y="368" on="1"/>
        <pt x="700" y="368" on="1"/>
        <pt x="700" y="1447" on="1"/>
        <pt x="284" y="1447" on="1"/>
      </contour>
    </TTGlyph>
    <TTGlyph name="uni06A9" xMin="142" yMin="226" xMax="842" yMax="1588">
      <contour>
        <pt x="142" y="226" on="1"/>
        <pt x="142" y="1588" on="1"/>
        <pt x="842" y="1588" on="1"/>
        <pt x="842" y="226" on="1"/>
      </contour>
      <contour>
        <pt x="284" y="368" on="1"/>
        <pt x="700" y="368" on="1"/>
        <pt x="700" y="1447" on="1"/>
        <pt x="284" y="1447" on="1"/>
      </contour>
    </TTGlyph>
    <TTGlyph name="uni06AB" xMin="142" yMin="226" xMax="842" yMax="1588">
      <contour>
        <pt x="142" y="226" on="1"/>
        <pt x="142" y="1588" on="1"/>
        <pt x="842" y="1588" on="1"/>
        <pt x="842" y="226" on="1"/>
      </contour>
      <contour>
        <pt x="284" y="368" on="1"/>
        <pt x="700" y="368" on="1"/>
        <pt x="700" y="1447" on="1"/>
        <pt x="284" y="1447" on="1"/>
      </contour>
    </TTGlyph>
    <TTGlyph name="uni06B7" xMin="142" yMin="226" xMax="842" yMax="1588">
      <contour>
        <pt x="142" y="226" on="1"/>
        <pt x="142" y="1588" on="1"/>
        <pt x="842" y="1588" on="1"/>
        <pt x="842" y="226" on="1"/>
      </contour>
      <contour>
        <pt x="284" y="368" on="1"/>
        <pt x="700" y="368" on="1"/>
        <pt x="700" y="1447" on="1"/>
        <pt x="284" y="1447" on="1"/>
      </contour>
    </TTGlyph>
    <TTGlyph name="uni06BC" xMin="142" yMin="226" xMax="842" yMax="1588">
      <contour>
        <pt x="142" y="226" on="1"/>
        <pt x="142" y="1588" on="1"/>
        <pt x="842" y="1588" on="1"/>
        <pt x="842" y="226" on="1"/>
      </contour>
      <contour>
        <pt x="284" y="368" on="1"/>
        <pt x="700" y="368" on="1"/>
        <pt x="700" y="1447" on="1"/>
        <pt x="284" y="1447" on="1"/>
      </contour>
    </TTGlyph>
    <TTGlyph name="uni06BE" xMin="142" yMin="226" xMax="842" yMax="1588">
      <contour>
        <pt x="142" y="226" on="1"/>
        <pt x="142" y="1588" on="1"/>
        <pt x="842" y="1588" on="1"/>
        <pt x="842" y="226" on="1"/>
      </contour>
      <contour>
        <pt x="284" y="368" on="1"/>
        <pt x="700" y="368" on="1"/>
        <pt x="700" y="1447" on="1"/>
        <pt x="284" y="1447" on="1"/>
      </contour>
    </TTGlyph>
    <TTGlyph name="uni06C2" xMin="142" yMin="226" xMax="842" yMax="1588">
      <contour>
        <pt x="142" y="226" on="1"/>
        <pt x="142" y="1588" on="1"/>
        <pt x="842" y="1588" on="1"/>
        <pt x="842" y="226" on="1"/>
      </contour>
      <contour>
        <pt x="284" y="368" on="1"/>
        <pt x="700" y="368" on="1"/>
        <pt x="700" y="1447" on="1"/>
        <pt x="284" y="1447" on="1"/>
      </contour>
    </TTGlyph>
    <TTGlyph name="uni06C7" xMin="142" yMin="226" xMax="842" yMax="1588">
      <contour>
        <pt x="142" y="226" on="1"/>
        <pt x="142" y="1588" on="1"/>
        <pt x="842" y="1588" on="1"/>
        <pt x="842" y="226" on="1"/>
      </contour>
      <contour>
        <pt x="284" y="368" on="1"/>
        <pt x="700" y="368" on="1"/>
        <pt x="700" y="1447" on="1"/>
        <pt x="284" y="1447" on="1"/>
      </contour>
    </TTGlyph>
    <TTGlyph name="uni06C9" xMin="142" yMin="226" xMax="842" yMax="1588">
      <contour>
        <pt x="142" y="226" on="1"/>
        <pt x="142" y="1588" on="1"/>
        <pt x="842" y="1588" on="1"/>
        <pt x="842" y="226" on="1"/>
      </contour>
      <contour>
        <pt x="284" y="368" on="1"/>
        <pt x="700" y="368" on="1"/>
        <pt x="700" y="1447" on="1"/>
        <pt x="284" y="1447" on="1"/>
      </contour>
    </TTGlyph>
    <TTGlyph name="uni06CC" xMin="142" yMin="226" xMax="842" yMax="1588">
      <contour>
        <pt x="142" y="226" on="1"/>
        <pt x="142" y="1588" on="1"/>
        <pt x="842" y="1588" on="1"/>
        <pt x="842" y="226" on="1"/>
      </contour>
      <contour>
        <pt x="284" y="368" on="1"/>
        <pt x="700" y="368" on="1"/>
        <pt x="700" y="1447" on="1"/>
        <pt x="284" y="1447" on="1"/>
      </contour>
    </TTGlyph>
    <TTGlyph name="uni06CD" xMin="142" yMin="226" xMax="842" yMax="1588">
      <contour>
        <pt x="142" y="226" on="1"/>
        <pt x="142" y="1588" on="1"/>
        <pt x="842" y="1588" on="1"/>
        <pt x="842" y="226" on="1"/>
      </contour>
      <contour>
        <pt x="284" y="368" on="1"/>
        <pt x="700" y="368" on="1"/>
        <pt x="700" y="1447" on="1"/>
        <pt x="284" y="1447" on="1"/>
      </contour>
    </TTGlyph>
    <TTGlyph name="uni06D0" xMin="142" yMin="226" xMax="842" yMax="1588">
      <contour>
        <pt x="142" y="226" on="1"/>
        <pt x="142" y="1588" on="1"/>
        <pt x="842" y="1588" on="1"/>
        <pt x="842" y="226" on="1"/>
      </contour>
      <contour>
        <pt x="284" y="368" on="1"/>
        <pt x="700" y="368" on="1"/>
        <pt x="700" y="1447" on="1"/>
        <pt x="284" y="1447" on="1"/>
      </contour>
    </TTGlyph>
    <TTGlyph name="uni06D1" xMin="142" yMin="226" xMax="842" yMax="1588">
      <contour>
        <pt x="142" y="226" on="1"/>
        <pt x="142" y="1588" on="1"/>
        <pt x="842" y="1588" on="1"/>
        <pt x="842" y="226" on="1"/>
      </contour>
      <contour>
        <pt x="284" y="368" on="1"/>
        <pt x="700" y="368" on="1"/>
        <pt x="700" y="1447" on="1"/>
        <pt x="284" y="1447" on="1"/>
      </contour>
    </TTGlyph>
    <TTGlyph name="uni06D3" xMin="142" yMin="226" xMax="842" yMax="1588">
      <contour>
        <pt x="142" y="226" on="1"/>
        <pt x="142" y="1588" on="1"/>
        <pt x="842" y="1588" on="1"/>
        <pt x="842" y="226" on="1"/>
      </contour>
      <contour>
        <pt x="284" y="368" on="1"/>
        <pt x="700" y="368" on="1"/>
        <pt x="700" y="1447" on="1"/>
        <pt x="284" y="1447" on="1"/>
      </contour>
    </TTGlyph>
    <TTGlyph name="uni06D4" xMin="142" yMin="226" xMax="842" yMax="1588">
      <contour>
        <pt x="142" y="226" on="1"/>
        <pt x="142" y="1588" on="1"/>
        <pt x="842" y="1588" on="1"/>
        <pt x="842" y="226" on="1"/>
      </contour>
      <contour>
        <pt x="284" y="368" on="1"/>
        <pt x="700" y="368" on="1"/>
        <pt x="700" y="1447" on="1"/>
        <pt x="284" y="1447" on="1"/>
      </contour>
    </TTGlyph>
    <TTGlyph name="uni06F0" xMin="142" yMin="226" xMax="842" yMax="1588">
      <contour>
        <pt x="142" y="226" on="1"/>
        <pt x="142" y="1588" on="1"/>
        <pt x="842" y="1588" on="1"/>
        <pt x="842" y="226" on="1"/>
      </contour>
      <contour>
        <pt x="284" y="368" on="1"/>
        <pt x="700" y="368" on="1"/>
        <pt x="700" y="1447" on="1"/>
        <pt x="284" y="1447" on="1"/>
      </contour>
    </TTGlyph>
    <TTGlyph name="uni06F1" xMin="142" yMin="226" xMax="842" yMax="1588">
      <contour>
        <pt x="142" y="226" on="1"/>
        <pt x="142" y="1588" on="1"/>
        <pt x="842" y="1588" on="1"/>
        <pt x="842" y="226" on="1"/>
      </contour>
      <contour>
        <pt x="284" y="368" on="1"/>
        <pt x="700" y="368" on="1"/>
        <pt x="700" y="1447" on="1"/>
        <pt x="284" y="1447" on="1"/>
      </contour>
    </TTGlyph>
    <TTGlyph name="uni06F2" xMin="142" yMin="226" xMax="842" yMax="1588">
      <contour>
        <pt x="142" y="226" on="1"/>
        <pt x="142" y="1588" on="1"/>
        <pt x="842" y="1588" on="1"/>
        <pt x="842" y="226" on="1"/>
      </contour>
      <contour>
        <pt x="284" y="368" on="1"/>
        <pt x="700" y="368" on="1"/>
        <pt x="700" y="1447" on="1"/>
        <pt x="284" y="1447" on="1"/>
      </contour>
    </TTGlyph>
    <TTGlyph name="uni06F3" xMin="142" yMin="226" xMax="842" yMax="1588">
      <contour>
        <pt x="142" y="226" on="1"/>
        <pt x="142" y="1588" on="1"/>
        <pt x="842" y="1588" on="1"/>
        <pt x="842" y="226" on="1"/>
      </contour>
      <contour>
        <pt x="284" y="368" on="1"/>
        <pt x="700" y="368" on="1"/>
        <pt x="700" y="1447" on="1"/>
        <pt x="284" y="1447" on="1"/>
      </contour>
    </TTGlyph>
    <TTGlyph name="uni06F4" xMin="142" yMin="226" xMax="842" yMax="1588">
      <contour>
        <pt x="142" y="226" on="1"/>
        <pt x="142" y="1588" on="1"/>
        <pt x="842" y="1588" on="1"/>
        <pt x="842" y="226" on="1"/>
      </contour>
      <contour>
        <pt x="284" y="368" on="1"/>
        <pt x="700" y="368" on="1"/>
        <pt x="700" y="1447" on="1"/>
        <pt x="284" y="1447" on="1"/>
      </contour>
    </TTGlyph>
    <TTGlyph name="uni06F5" xMin="142" yMin="226" xMax="842" yMax="1588">
      <contour>
        <pt x="142" y="226" on="1"/>
        <pt x="142" y="1588" on="1"/>
        <pt x="842" y="1588" on="1"/>
        <pt x="842" y="226" on="1"/>
      </contour>
      <contour>
        <pt x="284" y="368" on="1"/>
        <pt x="700" y="368" on="1"/>
        <pt x="700" y="1447" on="1"/>
        <pt x="284" y="1447" on="1"/>
      </contour>
    </TTGlyph>
    <TTGlyph name="uni06F6" xMin="142" yMin="226" xMax="842" yMax="1588">
      <contour>
        <pt x="142" y="226" on="1"/>
        <pt x="142" y="1588" on="1"/>
        <pt x="842" y="1588" on="1"/>
        <pt x="842" y="226" on="1"/>
      </contour>
      <contour>
        <pt x="284" y="368" on="1"/>
        <pt x="700" y="368" on="1"/>
        <pt x="700" y="1447" on="1"/>
        <pt x="284" y="1447" on="1"/>
      </contour>
    </TTGlyph>
    <TTGlyph name="uni06F7" xMin="142" yMin="226" xMax="842" yMax="1588">
      <contour>
        <pt x="142" y="226" on="1"/>
        <pt x="142" y="1588" on="1"/>
        <pt x="842" y="1588" on="1"/>
        <pt x="842" y="226" on="1"/>
      </contour>
      <contour>
        <pt x="284" y="368" on="1"/>
        <pt x="700" y="368" on="1"/>
        <pt x="700" y="1447" on="1"/>
        <pt x="284" y="1447" on="1"/>
      </contour>
    </TTGlyph>
    <TTGlyph name="uni06F8" xMin="142" yMin="226" xMax="842" yMax="1588">
      <contour>
        <pt x="142" y="226" on="1"/>
        <pt x="142" y="1588" on="1"/>
        <pt x="842" y="1588" on="1"/>
        <pt x="842" y="226" on="1"/>
      </contour>
      <contour>
        <pt x="284" y="368" on="1"/>
        <pt x="700" y="368" on="1"/>
        <pt x="700" y="1447" on="1"/>
        <pt x="284" y="1447" on="1"/>
      </contour>
    </TTGlyph>
    <TTGlyph name="uni06F9" xMin="142" yMin="226" xMax="842" yMax="1588">
      <contour>
        <pt x="142" y="226" on="1"/>
        <pt x="142" y="1588" on="1"/>
        <pt x="842" y="1588" on="1"/>
        <pt x="842" y="226" on="1"/>
      </contour>
      <contour>
        <pt x="284" y="368" on="1"/>
        <pt x="700" y="368" on="1"/>
        <pt x="700" y="1447" on="1"/>
        <pt x="284" y="1447" on="1"/>
      </contour>
    </TTGlyph>
    <TTGlyph name="uni2010" xMin="348" yMin="-430" xMax="3655" yMax="1474">
      <contour>
        <pt x="3266" y="834" on="1"/>
        <pt x="3266" y="800" on="0"/>
        <pt x="3223" y="767" on="1"/>
        <pt x="3185" y="737" on="0"/>
        <pt x="3164" y="737" on="1"/>
        <pt x="3123" y="737" on="0"/>
        <pt x="3090" y="770" on="1"/>
        <pt x="3061" y="799" on="0"/>
        <pt x="3061" y="824" on="1"/>
        <pt x="3061" y="841" on="0"/>
        <pt x="3086" y="877" on="1"/>
        <pt x="3116" y="922" on="0"/>
        <pt x="3148" y="922" on="1"/>
        <pt x="3181" y="922" on="0"/>
        <pt x="3266" y="859" on="0"/>
      </contour>
      <contour>
        <pt x="3440" y="670" on="1"/>
        <pt x="3440" y="636" on="0"/>
        <pt x="3391" y="596" on="1"/>
        <pt x="3349" y="563" on="0"/>
        <pt x="3332" y="563" on="1"/>
        <pt x="3321" y="563" on="0"/>
        <pt x="3241" y="604" on="0"/>
        <pt x="3230" y="604" on="1"/>
        <pt x="3218" y="604" on="0"/>
        <pt x="3141" y="532" on="0"/>
        <pt x="3128" y="532" on="1"/>
        <pt x="3099" y="532" on="0"/>
        <pt x="3010" y="596" on="0"/>
        <pt x="3010" y="619" on="1"/>
        <pt x="3010" y="652" on="0"/>
        <pt x="3053" y="686" on="1"/>
        <pt x="3091" y="717" on="0"/>
        <pt x="3112" y="717" on="1"/>
        <pt x="3123" y="717" on="0"/>
        <pt x="3181" y="686" on="0"/>
        <pt x="3194" y="686" on="1"/>
        <pt x="3207" y="686" on="0"/>
        <pt x="3294" y="758" on="0"/>
        <pt x="3307" y="758" on="1"/>
        <pt x="3332" y="758" on="0"/>
        <pt x="3440" y="683" on="0"/>
      </contour>
      <contour>
        <pt x="3553" y="1443" on="1"/>
        <pt x="3553" y="1381" on="0"/>
        <pt x="3505" y="1355" on="1"/>
        <pt x="3357" y="1284" on="0"/>
        <pt x="3059" y="1133" on="1"/>
        <pt x="3042" y="1124" on="0"/>
        <pt x="2001" y="542" on="1"/>
        <pt x="1986" y="557" on="0"/>
        <pt x="1986" y="578" on="1"/>
        <pt x="1986" y="654" on="0"/>
        <pt x="2166" y="766" on="1"/>
        <pt x="2271" y="824" on="0"/>
        <pt x="2378" y="882" on="1"/>
        <pt x="2537" y="972" on="0"/>
        <pt x="2859" y="1149" on="1"/>
        <pt x="3476" y="1474" on="0"/>
        <pt x="3498" y="1474" on="1"/>
        <pt x="3540" y="1474" on="1"/>
        <pt x="3553" y="1461" on="0"/>
      </contour>
      <contour>
        <pt x="1966" y="967" on="1"/>
        <pt x="1907" y="881" on="0"/>
        <pt x="1850" y="843" on="1"/>
        <pt x="1806" y="812" on="0"/>
        <pt x="1735" y="775" on="1"/>
        <pt x="1660" y="737" on="0"/>
        <pt x="1642" y="738" on="1"/>
        <pt x="1567" y="738" on="1"/>
        <pt x="1567" y="775" on="1"/>
        <pt x="1587" y="793" on="0"/>
        <pt x="1659" y="835" on="1"/>
        <pt x="1716" y="868" on="0"/>
        <pt x="1741" y="904" on="1"/>
        <pt x="1700" y="922" on="0"/>
        <pt x="1659" y="922" on="1"/>
        <pt x="1642" y="922" on="0"/>
        <pt x="1550" y="860" on="1"/>
        <pt x="1536" y="862" on="0"/>
        <pt x="1536" y="886" on="1"/>
        <pt x="1536" y="918" on="0"/>
        <pt x="1584" y="972" on="1"/>
        <pt x="1628" y="1022" on="0"/>
        <pt x="1651" y="1030" on="1"/>
        <pt x="1664" y="1034" on="0"/>
        <pt x="1720" y="1034" on="1"/>
        <pt x="1792" y="1034" on="0"/>
        <pt x="1900" y="1009" on="1"/>
        <pt x="1936" y="1001" on="0"/>
      </contour>
      <contour>
        <pt x="3655" y="205" on="1"/>
        <pt x="3655" y="0" on="0"/>
        <pt x="3486" y="0" on="1"/>
        <pt x="3397" y="0" on="0"/>
        <pt x="3317" y="51" on="0"/>
        <pt x="3307" y="51" on="1"/>
        <pt x="3295" y="51" on="0"/>
        <pt x="3274" y="31" on="1"/>
        <pt x="3249" y="7" on="0"/>
        <pt x="3243" y="3" on="1"/>
        <pt x="3164" y="-40" on="0"/>
        <pt x="3082" y="-40" on="1"/>
        <pt x="3027" y="-40" on="0"/>
        <pt x="2915" y="20" on="0"/>
        <pt x="2907" y="20" on="1"/>
        <pt x="2897" y="20" on="0"/>
        <pt x="2843" y="-4" on="1"/>
        <pt x="2784" y="-32" on="0"/>
        <pt x="2761" y="-38" on="1"/>
        <pt x="2463" y="-102" on="0"/>
        <pt x="2363" y="-102" on="1"/>
        <pt x="2162" y="-102" on="1"/>
        <pt x="1877" y="-102" on="0"/>
        <pt x="1723" y="-17" on="1"/>
        <pt x="1714" y="-13" on="0"/>
        <pt x="1673" y="23" on="1"/>
        <pt x="1641" y="51" on="0"/>
        <pt x="1623" y="51" on="1"/>
        <pt x="1614" y="51" on="0"/>
        <pt x="1569" y="7" on="1"/>
        <pt x="1519" y="-39" on="0"/>
        <pt x="1491" y="-48" on="1"/>
        <pt x="1410" y="-75" on="0"/>
        <pt x="1185" y="-95" on="1"/>
        <pt x="983" y="-113" on="0"/>
        <pt x="829" y="-113" on="1"/>
        <pt x="755" y="-113" on="0"/>
        <pt x="680" y="-95" on="1"/>
        <pt x="630" y="-88" on="0"/>
        <pt x="545" y="-58" on="1"/>
        <pt x="452" y="2" on="0"/>
        <pt x="427" y="201" on="1"/>
        <pt x="416" y="328" on="0"/>
        <pt x="405" y="455" on="1"/>
        <pt x="385" y="552" on="0"/>
        <pt x="364" y="737" on="1"/>
        <pt x="348" y="891" on="0"/>
        <pt x="348" y="927" on="1"/>
        <pt x="348" y="998" on="0"/>
        <pt x="403" y="1054" on="1"/>
        <pt x="442" y="1040" on="0"/>
        <pt x="459" y="951" on="1"/>
        <pt x="459" y="950" on="0"/>
        <pt x="477" y="804" on="1"/>
        <pt x="492" y="587" on="0"/>
        <pt x="545" y="190" on="1"/>
        <pt x="562" y="112" on="0"/>
        <pt x="642" y="74" on="1"/>
        <pt x="710" y="41" on="0"/>
        <pt x="855" y="41" on="1"/>
        <pt x="1071" y="41" on="0"/>
        <pt x="1213" y="51" on="1"/>
        <pt x="1293" y="57" on="0"/>
        <pt x="1406" y="84" on="1"/>
        <pt x="1516" y="109" on="0"/>
        <pt x="1526" y="123" on="1"/>
        <pt x="1557" y="158" on="0"/>
        <pt x="1612" y="220" on="1"/>
        <pt x="1622" y="225" on="0"/>
        <pt x="1642" y="246" on="1"/>
        <pt x="1691" y="210" on="0"/>
        <pt x="1779" y="145" on="1"/>
        <pt x="1913" y="51" on="0"/>
        <pt x="2176" y="51" on="1"/>
        <pt x="2314" y="51" on="1"/>
        <pt x="2431" y="51" on="0"/>
        <pt x="2661" y="100" on="1"/>
        <pt x="2866" y="143" on="0"/>
        <pt x="2910" y="165" on="1"/>
        <pt x="2933" y="178" on="0"/>
        <pt x="2962" y="213" on="1"/>
        <pt x="3003" y="265" on="0"/>
        <pt x="3014" y="276" on="1"/>
        <pt x="3039" y="265" on="1"/>
        <pt x="3052" y="245" on="0"/>
        <pt x="3049" y="199" on="1"/>
        <pt x="3046" y="152" on="0"/>
        <pt x="3030" y="129" on="1"/>
        <pt x="3056" y="102" on="0"/>
        <pt x="3077" y="102" on="1"/>
        <pt x="3117" y="102" on="0"/>
        <pt x="3175" y="122" on="1"/>
        <pt x="3238" y="143" on="0"/>
        <pt x="3264" y="172" on="1"/>
        <pt x="3275" y="185" on="0"/>
        <pt x="3321" y="283" on="1"/>
        <pt x="3354" y="353" on="0"/>
        <pt x="3397" y="357" on="1"/>
        <pt x="3409" y="297" on="0"/>
        <pt x="3388" y="190" on="1"/>
        <pt x="3467" y="153" on="0"/>
        <pt x="3501" y="153" on="1"/>
        <pt x="3526" y="153" on="0"/>
        <pt x="3549" y="181" on="1"/>
        <pt x="3551" y="198" on="0"/>
        <pt x="3545" y="240" on="1"/>
        <pt x="3536" y="288" on="0"/>
        <pt x="3536" y="313" on="1"/>
        <pt x="3536" y="368" on="0"/>
        <pt x="3564" y="408" on="1"/>
        <pt x="3571" y="409" on="0"/>
        <pt x="3588" y="419" on="1"/>
        <pt x="3614" y="403" on="0"/>
        <pt x="3635" y="324" on="1"/>
        <pt x="3655" y="255" on="0"/>
      </contour>
      <contour>
        <pt x="1177" y="1244" on="1"/>
        <pt x="1167" y="1217" on="0"/>
        <pt x="1140" y="1178" on="1"/>
        <pt x="1008" y="1106" on="0"/>
        <pt x="744" y="942" on="1"/>
        <pt x="699" y="942" on="1"/>
        <pt x="686" y="944" on="0"/>
        <pt x="686" y="967" on="1"/>
        <pt x="686" y="1035" on="0"/>
        <pt x="842" y="1118" on="1"/>
        <pt x="939" y="1169" on="0"/>
        <pt x="1099" y="1269" on="1"/>
        <pt x="1154" y="1269" on="1"/>
      </contour>
      <contour>
        <pt x="1229" y="1070" on="1"/>
        <pt x="1229" y="1026" on="0"/>
        <pt x="1025" y="913" on="1"/>
        <pt x="889" y="840" on="0"/>
        <pt x="754" y="768" on="1"/>
        <pt x="708" y="768" on="1"/>
        <pt x="708" y="773" on="0"/>
        <pt x="696" y="784" on="0"/>
        <pt x="696" y="799" on="1"/>
        <pt x="696" y="850" on="0"/>
        <pt x="851" y="933" on="1"/>
        <pt x="939" y="974" on="0"/>
        <pt x="1026" y="1016" on="1"/>
        <pt x="1079" y="1046" on="0"/>
        <pt x="1181" y="1094" on="1"/>
        <pt x="1216" y="1094" on="1"/>
        <pt x="1229" y="1094" on="0"/>
      </contour>
      <contour>
        <pt x="1300" y="319" on="1"/>
        <pt x="1257" y="287" on="0"/>
        <pt x="1109" y="252" on="1"/>
        <pt x="971" y="220" on="0"/>
        <pt x="929" y="174" on="1"/>
        <pt x="893" y="174" on="1"/>
        <pt x="887" y="185" on="0"/>
        <pt x="893" y="210" on="1"/>
        <pt x="901" y="242" on="0"/>
        <pt x="901" y="251" on="1"/>
        <pt x="901" y="262" on="0"/>
        <pt x="819" y="339" on="0"/>
        <pt x="819" y="358" on="1"/>
        <pt x="819" y="414" on="0"/>
        <pt x="914" y="492" on="1"/>
        <pt x="1002" y="563" on="0"/>
        <pt x="1039" y="563" on="1"/>
        <pt x="1076" y="563" on="0"/>
        <pt x="1107" y="530" on="1"/>
        <pt x="1136" y="498" on="0"/>
        <pt x="1136" y="465" on="1"/>
        <pt x="1136" y="446" on="0"/>
        <pt x="1093" y="399" on="0"/>
        <pt x="1070" y="399" on="1"/>
        <pt x="1057" y="399" on="0"/>
        <pt x="1001" y="451" on="0"/>
        <pt x="988" y="451" on="1"/>
        <pt x="970" y="451" on="0"/>
        <pt x="941" y="424" on="1"/>
        <pt x="941" y="395" on="1"/>
        <pt x="994" y="348" on="0"/>
        <pt x="1024" y="348" on="1"/>
        <pt x="1164" y="348" on="0"/>
        <pt x="1286" y="378" on="1"/>
        <pt x="1300" y="366" on="1"/>
      </contour>
      <contour>
        <pt x="1873" y="-297" on="1"/>
        <pt x="1873" y="-326" on="0"/>
        <pt x="1833" y="-365" on="1"/>
        <pt x="1797" y="-399" on="0"/>
        <pt x="1787" y="-399" on="1"/>
        <pt x="1775" y="-399" on="0"/>
        <pt x="1702" y="-358" on="0"/>
        <pt x="1689" y="-358" on="1"/>
        <pt x="1670" y="-358" on="0"/>
        <pt x="1634" y="-420" on="0"/>
        <pt x="1592" y="-420" on="1"/>
        <pt x="1579" y="-420" on="0"/>
        <pt x="1579" y="-425" on="1"/>
        <pt x="1579" y="-425" on="1"/>
        <pt x="1578" y="-430" on="0"/>
        <pt x="1566" y="-430" on="1"/>
        <pt x="1540" y="-430" on="0"/>
        <pt x="1474" y="-365" on="0"/>
        <pt x="1474" y="-343" on="1"/>
        <pt x="1474" y="-310" on="0"/>
        <pt x="1527" y="-245" on="0"/>
        <pt x="1551" y="-245" on="1"/>
        <pt x="1564" y="-245" on="0"/>
        <pt x="1647" y="-286" on="0"/>
        <pt x="1659" y="-286" on="1"/>
        <pt x="1671" y="-286" on="0"/>
        <pt x="1753" y="-204" on="0"/>
        <pt x="1766" y="-204" on="1"/>
        <pt x="1787" y="-204" on="0"/>
        <pt x="1873" y="-275" on="0"/>
      </contour>
    </TTGlyph>
    <TTGlyph name="uni2011" xMin="348" yMin="-430" xMax="3655" yMax="1474">
      <contour>
        <pt x="3266" y="834" on="1"/>
        <pt x="3266" y="800" on="0"/>
        <pt x="3223" y="767" on="1"/>
        <pt x="3185" y="737" on="0"/>
        <pt x="3164" y="737" on="1"/>
        <pt x="3123" y="737" on="0"/>
        <pt x="3090" y="770" on="1"/>
        <pt x="3061" y="799" on="0"/>
        <pt x="3061" y="824" on="1"/>
        <pt x="3061" y="841" on="0"/>
        <pt x="3086" y="877" on="1"/>
        <pt x="3116" y="922" on="0"/>
        <pt x="3148" y="922" on="1"/>
        <pt x="3181" y="922" on="0"/>
        <pt x="3266" y="859" on="0"/>
      </contour>
      <contour>
        <pt x="3440" y="670" on="1"/>
        <pt x="3440" y="636" on="0"/>
        <pt x="3391" y="596" on="1"/>
        <pt x="3349" y="563" on="0"/>
        <pt x="3332" y="563" on="1"/>
        <pt x="3321" y="563" on="0"/>
        <pt x="3241" y="604" on="0"/>
        <pt x="3230" y="604" on="1"/>
        <pt x="3218" y="604" on="0"/>
        <pt x="3141" y="532" on="0"/>
        <pt x="3128" y="532" on="1"/>
        <pt x="3099" y="532" on="0"/>
        <pt x="3010" y="596" on="0"/>
        <pt x="3010" y="619" on="1"/>
        <pt x="3010" y="652" on="0"/>
        <pt x="3053" y="686" on="1"/>
        <pt x="3091" y="717" on="0"/>
        <pt x="3112" y="717" on="1"/>
        <pt x="3123" y="717" on="0"/>
        <pt x="3181" y="686" on="0"/>
        <pt x="3194" y="686" on="1"/>
        <pt x="3207" y="686" on="0"/>
        <pt x="3294" y="758" on="0"/>
        <pt x="3307" y="758" on="1"/>
        <pt x="3332" y="758" on="0"/>
        <pt x="3440" y="683" on="0"/>
      </contour>
      <contour>
        <pt x="3553" y="1443" on="1"/>
        <pt x="3553" y="1381" on="0"/>
        <pt x="3505" y="1355" on="1"/>
        <pt x="3357" y="1284" on="0"/>
        <pt x="3059" y="1133" on="1"/>
        <pt x="3042" y="1124" on="0"/>
        <pt x="2001" y="542" on="1"/>
        <pt x="1986" y="557" on="0"/>
        <pt x="1986" y="578" on="1"/>
        <pt x="1986" y="654" on="0"/>
        <pt x="2166" y="766" on="1"/>
        <pt x="2271" y="824" on="0"/>
        <pt x="2378" y="882" on="1"/>
        <pt x="2537" y="972" on="0"/>
        <pt x="2859" y="1149" on="1"/>
        <pt x="3476" y="1474" on="0"/>
        <pt x="3498" y="1474" on="1"/>
        <pt x="3540" y="1474" on="1"/>
        <pt x="3553" y="1461" on="0"/>
      </contour>
      <contour>
        <pt x="1966" y="967" on="1"/>
        <pt x="1907" y="881" on="0"/>
        <pt x="1850" y="843" on="1"/>
        <pt x="1806" y="812" on="0"/>
        <pt x="1735" y="775" on="1"/>
        <pt x="1660" y="737" on="0"/>
        <pt x="1642" y="738" on="1"/>
        <pt x="1567" y="738" on="1"/>
        <pt x="1567" y="775" on="1"/>
        <pt x="1587" y="793" on="0"/>
        <pt x="1659" y="835" on="1"/>
        <pt x="1716" y="868" on="0"/>
        <pt x="1741" y="904" on="1"/>
        <pt x="1700" y="922" on="0"/>
        <pt x="1659" y="922" on="1"/>
        <pt x="1642" y="922" on="0"/>
        <pt x="1550" y="860" on="1"/>
        <pt x="1536" y="862" on="0"/>
        <pt x="1536" y="886" on="1"/>
        <pt x="1536" y="918" on="0"/>
        <pt x="1584" y="972" on="1"/>
        <pt x="1628" y="1022" on="0"/>
        <pt x="1651" y="1030" on="1"/>
        <pt x="1664" y="1034" on="0"/>
        <pt x="1720" y="1034" on="1"/>
        <pt x="1792" y="1034" on="0"/>
        <pt x="1900" y="1009" on="1"/>
        <pt x="1936" y="1001" on="0"/>
      </contour>
      <contour>
        <pt x="3655" y="205" on="1"/>
        <pt x="3655" y="0" on="0"/>
        <pt x="3486" y="0" on="1"/>
        <pt x="3397" y="0" on="0"/>
        <pt x="3317" y="51" on="0"/>
        <pt x="3307" y="51" on="1"/>
        <pt x="3295" y="51" on="0"/>
        <pt x="3274" y="31" on="1"/>
        <pt x="3249" y="7" on="0"/>
        <pt x="3243" y="3" on="1"/>
        <pt x="3164" y="-40" on="0"/>
        <pt x="3082" y="-40" on="1"/>
        <pt x="3027" y="-40" on="0"/>
        <pt x="2915" y="20" on="0"/>
        <pt x="2907" y="20" on="1"/>
        <pt x="2897" y="20" on="0"/>
        <pt x="2843" y="-4" on="1"/>
        <pt x="2784" y="-32" on="0"/>
        <pt x="2761" y="-38" on="1"/>
        <pt x="2463" y="-102" on="0"/>
        <pt x="2363" y="-102" on="1"/>
        <pt x="2162" y="-102" on="1"/>
        <pt x="1877" y="-102" on="0"/>
        <pt x="1723" y="-17" on="1"/>
        <pt x="1714" y="-13" on="0"/>
        <pt x="1673" y="23" on="1"/>
        <pt x="1641" y="51" on="0"/>
        <pt x="1623" y="51" on="1"/>
        <pt x="1614" y="51" on="0"/>
        <pt x="1569" y="7" on="1"/>
        <pt x="1519" y="-39" on="0"/>
        <pt x="1491" y="-48" on="1"/>
        <pt x="1410" y="-75" on="0"/>
        <pt x="1185" y="-95" on="1"/>
        <pt x="983" y="-113" on="0"/>
        <pt x="829" y="-113" on="1"/>
        <pt x="755" y="-113" on="0"/>
        <pt x="680" y="-95" on="1"/>
        <pt x="630" y="-88" on="0"/>
        <pt x="545" y="-58" on="1"/>
        <pt x="452" y="2" on="0"/>
        <pt x="427" y="201" on="1"/>
        <pt x="416" y="328" on="0"/>
        <pt x="405" y="455" on="1"/>
        <pt x="385" y="552" on="0"/>
        <pt x="364" y="737" on="1"/>
        <pt x="348" y="891" on="0"/>
        <pt x="348" y="927" on="1"/>
        <pt x="348" y="998" on="0"/>
        <pt x="403" y="1054" on="1"/>
        <pt x="442" y="1040" on="0"/>
        <pt x="459" y="951" on="1"/>
        <pt x="459" y="950" on="0"/>
        <pt x="477" y="804" on="1"/>
        <pt x="492" y="587" on="0"/>
        <pt x="545" y="190" on="1"/>
        <pt x="562" y="112" on="0"/>
        <pt x="642" y="74" on="1"/>
        <pt x="710" y="41" on="0"/>
        <pt x="855" y="41" on="1"/>
        <pt x="1071" y="41" on="0"/>
        <pt x="1213" y="51" on="1"/>
        <pt x="1293" y="57" on="0"/>
        <pt x="1406" y="84" on="1"/>
        <pt x="1516" y="109" on="0"/>
        <pt x="1526" y="123" on="1"/>
        <pt x="1557" y="158" on="0"/>
        <pt x="1612" y="220" on="1"/>
        <pt x="1622" y="225" on="0"/>
        <pt x="1642" y="246" on="1"/>
        <pt x="1691" y="210" on="0"/>
        <pt x="1779" y="145" on="1"/>
        <pt x="1913" y="51" on="0"/>
        <pt x="2176" y="51" on="1"/>
        <pt x="2314" y="51" on="1"/>
        <pt x="2431" y="51" on="0"/>
        <pt x="2661" y="100" on="1"/>
        <pt x="2866" y="143" on="0"/>
        <pt x="2910" y="165" on="1"/>
        <pt x="2933" y="178" on="0"/>
        <pt x="2962" y="213" on="1"/>
        <pt x="3003" y="265" on="0"/>
        <pt x="3014" y="276" on="1"/>
        <pt x="3039" y="265" on="1"/>
        <pt x="3052" y="245" on="0"/>
        <pt x="3049" y="199" on="1"/>
        <pt x="3046" y="152" on="0"/>
        <pt x="3030" y="129" on="1"/>
        <pt x="3056" y="102" on="0"/>
        <pt x="3077" y="102" on="1"/>
        <pt x="3117" y="102" on="0"/>
        <pt x="3175" y="122" on="1"/>
        <pt x="3238" y="143" on="0"/>
        <pt x="3264" y="172" on="1"/>
        <pt x="3275" y="185" on="0"/>
        <pt x="3321" y="283" on="1"/>
        <pt x="3354" y="353" on="0"/>
        <pt x="3397" y="357" on="1"/>
        <pt x="3409" y="297" on="0"/>
        <pt x="3388" y="190" on="1"/>
        <pt x="3467" y="153" on="0"/>
        <pt x="3501" y="153" on="1"/>
        <pt x="3526" y="153" on="0"/>
        <pt x="3549" y="181" on="1"/>
        <pt x="3551" y="198" on="0"/>
        <pt x="3545" y="240" on="1"/>
        <pt x="3536" y="288" on="0"/>
        <pt x="3536" y="313" on="1"/>
        <pt x="3536" y="368" on="0"/>
        <pt x="3564" y="408" on="1"/>
        <pt x="3571" y="409" on="0"/>
        <pt x="3588" y="419" on="1"/>
        <pt x="3614" y="403" on="0"/>
        <pt x="3635" y="324" on="1"/>
        <pt x="3655" y="255" on="0"/>
      </contour>
      <contour>
        <pt x="1177" y="1244" on="1"/>
        <pt x="1167" y="1217" on="0"/>
        <pt x="1140" y="1178" on="1"/>
        <pt x="1008" y="1106" on="0"/>
        <pt x="744" y="942" on="1"/>
        <pt x="699" y="942" on="1"/>
        <pt x="686" y="944" on="0"/>
        <pt x="686" y="967" on="1"/>
        <pt x="686" y="1035" on="0"/>
        <pt x="842" y="1118" on="1"/>
        <pt x="939" y="1169" on="0"/>
        <pt x="1099" y="1269" on="1"/>
        <pt x="1154" y="1269" on="1"/>
      </contour>
      <contour>
        <pt x="1229" y="1070" on="1"/>
        <pt x="1229" y="1026" on="0"/>
        <pt x="1025" y="913" on="1"/>
        <pt x="889" y="840" on="0"/>
        <pt x="754" y="768" on="1"/>
        <pt x="708" y="768" on="1"/>
        <pt x="708" y="773" on="0"/>
        <pt x="696" y="784" on="0"/>
        <pt x="696" y="799" on="1"/>
        <pt x="696" y="850" on="0"/>
        <pt x="851" y="933" on="1"/>
        <pt x="939" y="974" on="0"/>
        <pt x="1026" y="1016" on="1"/>
        <pt x="1079" y="1046" on="0"/>
        <pt x="1181" y="1094" on="1"/>
        <pt x="1216" y="1094" on="1"/>
        <pt x="1229" y="1094" on="0"/>
      </contour>
      <contour>
        <pt x="1300" y="319" on="1"/>
        <pt x="1257" y="287" on="0"/>
        <pt x="1109" y="252" on="1"/>
        <pt x="971" y="220" on="0"/>
        <pt x="929" y="174" on="1"/>
        <pt x="893" y="174" on="1"/>
        <pt x="887" y="185" on="0"/>
        <pt x="893" y="210" on="1"/>
        <pt x="901" y="242" on="0"/>
        <pt x="901" y="251" on="1"/>
        <pt x="901" y="262" on="0"/>
        <pt x="819" y="339" on="0"/>
        <pt x="819" y="358" on="1"/>
        <pt x="819" y="414" on="0"/>
        <pt x="914" y="492" on="1"/>
        <pt x="1002" y="563" on="0"/>
        <pt x="1039" y="563" on="1"/>
        <pt x="1076" y="563" on="0"/>
        <pt x="1107" y="530" on="1"/>
        <pt x="1136" y="498" on="0"/>
        <pt x="1136" y="465" on="1"/>
        <pt x="1136" y="446" on="0"/>
        <pt x="1093" y="399" on="0"/>
        <pt x="1070" y="399" on="1"/>
        <pt x="1057" y="399" on="0"/>
        <pt x="1001" y="451" on="0"/>
        <pt x="988" y="451" on="1"/>
        <pt x="970" y="451" on="0"/>
        <pt x="941" y="424" on="1"/>
        <pt x="941" y="395" on="1"/>
        <pt x="994" y="348" on="0"/>
        <pt x="1024" y="348" on="1"/>
        <pt x="1164" y="348" on="0"/>
        <pt x="1286" y="378" on="1"/>
        <pt x="1300" y="366" on="1"/>
      </contour>
      <contour>
        <pt x="1873" y="-297" on="1"/>
        <pt x="1873" y="-326" on="0"/>
        <pt x="1833" y="-365" on="1"/>
        <pt x="1797" y="-399" on="0"/>
        <pt x="1787" y="-399" on="1"/>
        <pt x="1775" y="-399" on="0"/>
        <pt x="1702" y="-358" on="0"/>
        <pt x="1689" y="-358" on="1"/>
        <pt x="1670" y="-358" on="0"/>
        <pt x="1634" y="-420" on="0"/>
        <pt x="1592" y="-420" on="1"/>
        <pt x="1579" y="-420" on="0"/>
        <pt x="1579" y="-425" on="1"/>
        <pt x="1579" y="-425" on="1"/>
        <pt x="1578" y="-430" on="0"/>
        <pt x="1566" y="-430" on="1"/>
        <pt x="1540" y="-430" on="0"/>
        <pt x="1474" y="-365" on="0"/>
        <pt x="1474" y="-343" on="1"/>
        <pt x="1474" y="-310" on="0"/>
        <pt x="1527" y="-245" on="0"/>
        <pt x="1551" y="-245" on="1"/>
        <pt x="1564" y="-245" on="0"/>
        <pt x="1647" y="-286" on="0"/>
        <pt x="1659" y="-286" on="1"/>
        <pt x="1671" y="-286" on="0"/>
        <pt x="1753" y="-204" on="0"/>
        <pt x="1766" y="-204" on="1"/>
        <pt x="1787" y="-204" on="0"/>
        <pt x="1873" y="-275" on="0"/>
      </contour>
    </TTGlyph>
    <TTGlyph name="uniE000" xMin="0" yMin="0" xMax="1735" yMax="1735">
      <contour>
        <pt x="0" y="1735" on="1"/>
        <pt x="1735" y="1735" on="1"/>
        <pt x="1735" y="0" on="1"/>
        <pt x="0" y="0" on="1"/>
      </contour>
    </TTGlyph>
    <TTGlyph name="uniFB51" xMin="389" yMin="-617" xMax="2488" yMax="1255">
      <contour>
        <pt x="2467" y="1214" on="1"/>
        <pt x="2467" y="1159" on="0"/>
        <pt x="2362" y="1104" on="1"/>
        <pt x="2249" y="1046" on="0"/>
        <pt x="2084" y="972" on="1"/>
        <pt x="1917" y="897" on="0"/>
        <pt x="1898" y="897" on="1"/>
        <pt x="1856" y="897" on="1"/>
        <pt x="1843" y="910" on="0"/>
        <pt x="1843" y="927" on="1"/>
        <pt x="1843" y="977" on="0"/>
        <pt x="1877" y="995" on="1"/>
        <pt x="2364" y="1245" on="0"/>
        <pt x="2412" y="1244" on="1"/>
        <pt x="2454" y="1244" on="1"/>
        <pt x="2467" y="1231" on="0"/>
      </contour>
      <contour>
        <pt x="2488" y="196" on="1"/>
        <pt x="2488" y="-26" on="0"/>
        <pt x="2335" y="-185" on="1"/>
        <pt x="2184" y="-342" on="0"/>
        <pt x="1981" y="-342" on="1"/>
        <pt x="1878" y="-342" on="0"/>
        <pt x="1741" y="-299" on="1"/>
        <pt x="1741" y="-262" on="1"/>
        <pt x="1747" y="-260" on="0"/>
        <pt x="1837" y="-260" on="1"/>
        <pt x="1998" y="-260" on="0"/>
        <pt x="2153" y="-161" on="1"/>
        <pt x="2298" y="-67" on="0"/>
        <pt x="2382" y="75" on="1"/>
        <pt x="2407" y="116" on="0"/>
        <pt x="2407" y="143" on="1"/>
        <pt x="2389" y="160" on="1"/>
        <pt x="2312" y="108" on="0"/>
        <pt x="2278" y="108" on="1"/>
        <pt x="2208" y="108" on="0"/>
        <pt x="2165" y="173" on="1"/>
        <pt x="2130" y="226" on="0"/>
        <pt x="2130" y="288" on="1"/>
        <pt x="2130" y="337" on="0"/>
        <pt x="2176" y="421" on="1"/>
        <pt x="2229" y="518" on="0"/>
        <pt x="2283" y="518" on="1"/>
        <pt x="2385" y="518" on="0"/>
        <pt x="2473" y="320" on="1"/>
        <pt x="2488" y="288" on="0"/>
      </contour>
      <contour>
        <pt x="1515" y="216" on="1"/>
        <pt x="1515" y="117" on="0"/>
        <pt x="1483" y="28" on="1"/>
        <pt x="1445" y="28" on="1"/>
        <pt x="1331" y="963" on="1"/>
        <pt x="1331" y="1105" on="0"/>
        <pt x="1411" y="1142" on="1"/>
      </contour>
      <contour>
        <pt x="1013" y="1168" on="1"/>
        <pt x="1013" y="1116" on="0"/>
        <pt x="878" y="1038" on="1"/>
        <pt x="756" y="968" on="0"/>
        <pt x="722" y="968" on="1"/>
        <pt x="722" y="968" on="0"/>
        <pt x="665" y="960" on="1"/>
        <pt x="619" y="954" on="0"/>
        <pt x="595" y="960" on="1"/>
        <pt x="595" y="997" on="1"/>
        <pt x="666" y="1031" on="0"/>
        <pt x="808" y="1108" on="1"/>
        <pt x="781" y="1143" on="0"/>
        <pt x="732" y="1143" on="1"/>
        <pt x="722" y="1143" on="0"/>
        <pt x="683" y="1122" on="1"/>
        <pt x="640" y="1100" on="0"/>
        <pt x="622" y="1082" on="1"/>
        <pt x="584" y="1082" on="1"/>
        <pt x="584" y="1116" on="1"/>
        <pt x="584" y="1133" on="0"/>
        <pt x="684" y="1227" on="0"/>
        <pt x="758" y="1255" on="0"/>
        <pt x="804" y="1255" on="1"/>
        <pt x="845" y="1255" on="0"/>
        <pt x="1001" y="1203" on="1"/>
        <pt x="1013" y="1190" on="0"/>
      </contour>
      <contour>
        <pt x="799" y="620" on="1"/>
        <pt x="799" y="587" on="0"/>
        <pt x="749" y="518" on="0"/>
        <pt x="727" y="518" on="1"/>
        <pt x="699" y="518" on="0"/>
        <pt x="615" y="570" on="1"/>
        <pt x="615" y="600" on="0"/>
        <pt x="634" y="645" on="1"/>
        <pt x="658" y="702" on="0"/>
        <pt x="691" y="702" on="1"/>
        <pt x="713" y="702" on="0"/>
        <pt x="754" y="676" on="1"/>
        <pt x="799" y="647" on="0"/>
      </contour>
      <contour>
        <pt x="1647" y="-231" on="1"/>
        <pt x="1647" y="-267" on="0"/>
        <pt x="1615" y="-287" on="1"/>
        <pt x="1565" y="-299" on="0"/>
        <pt x="1481" y="-325" on="1"/>
        <pt x="1415" y="-348" on="0"/>
        <pt x="1276" y="-412" on="1"/>
        <pt x="1240" y="-412" on="1"/>
        <pt x="1240" y="-377" on="0"/>
        <pt x="1259" y="-339" on="0"/>
        <pt x="1259" y="-326" on="1"/>
        <pt x="1259" y="-302" on="0"/>
        <pt x="1188" y="-258" on="1"/>
        <pt x="1192" y="-193" on="0"/>
        <pt x="1266" y="-122" on="1"/>
        <pt x="1338" y="-55" on="0"/>
        <pt x="1393" y="-55" on="1"/>
        <pt x="1418" y="-55" on="0"/>
        <pt x="1484" y="-115" on="0"/>
        <pt x="1484" y="-131" on="1"/>
        <pt x="1484" y="-162" on="0"/>
        <pt x="1452" y="-183" on="1"/>
        <pt x="1427" y="-199" on="0"/>
        <pt x="1413" y="-199" on="1"/>
        <pt x="1398" y="-199" on="0"/>
        <pt x="1337" y="-167" on="1"/>
        <pt x="1332" y="-172" on="0"/>
        <pt x="1316" y="-180" on="0"/>
        <pt x="1310" y="-185" on="1"/>
        <pt x="1310" y="-193" on="0"/>
        <pt x="1329" y="-207" on="1"/>
        <pt x="1382" y="-229" on="0"/>
        <pt x="1413" y="-229" on="1"/>
        <pt x="1635" y="-229" on="0"/>
      </contour>
      <contour>
        <pt x="1771" y="-398" on="1"/>
        <pt x="1771" y="-447" on="0"/>
        <pt x="1674" y="-489" on="1"/>
        <pt x="1614" y="-509" on="0"/>
        <pt x="1553" y="-530" on="1"/>
        <pt x="1438" y="-570" on="0"/>
        <pt x="1327" y="-617" on="1"/>
        <pt x="1292" y="-617" on="1"/>
        <pt x="1279" y="-616" on="0"/>
        <pt x="1279" y="-593" on="1"/>
        <pt x="1279" y="-541" on="0"/>
        <pt x="1486" y="-458" on="1"/>
        <pt x="1605" y="-416" on="0"/>
        <pt x="1724" y="-373" on="1"/>
        <pt x="1759" y="-373" on="1"/>
        <pt x="1771" y="-374" on="0"/>
      </contour>
      <contour>
        <pt x="1177" y="83" on="1"/>
        <pt x="1177" y="-119" on="0"/>
        <pt x="1012" y="-217" on="1"/>
        <pt x="885" y="-290" on="0"/>
        <pt x="701" y="-290" on="1"/>
        <pt x="592" y="-290" on="0"/>
        <pt x="494" y="-210" on="1"/>
        <pt x="389" y="-123" on="0"/>
        <pt x="389" y="-9" on="1"/>
        <pt x="389" y="45" on="0"/>
        <pt x="451" y="164" on="1"/>
        <pt x="509" y="272" on="0"/>
        <pt x="536" y="292" on="1"/>
        <pt x="573" y="292" on="0"/>
        <pt x="573" y="267" on="1"/>
        <pt x="573" y="256" on="0"/>
        <pt x="491" y="80" on="0"/>
        <pt x="491" y="67" on="1"/>
        <pt x="491" y="-42" on="0"/>
        <pt x="591" y="-92" on="1"/>
        <pt x="659" y="-126" on="0"/>
        <pt x="753" y="-126" on="1"/>
        <pt x="849" y="-126" on="0"/>
        <pt x="957" y="-93" on="1"/>
        <pt x="1095" y="-49" on="0"/>
        <pt x="1095" y="21" on="1"/>
        <pt x="1095" y="101" on="0"/>
        <pt x="972" y="334" on="0"/>
        <pt x="972" y="374" on="1"/>
        <pt x="972" y="378" on="0"/>
        <pt x="1005" y="476" on="1"/>
        <pt x="1032" y="476" on="0"/>
        <pt x="1053" y="455" on="1"/>
        <pt x="1177" y="270" on="0"/>
      </contour>
      <contour>
        <pt x="2333" y="284" on="1"/>
        <pt x="2315" y="339" on="0"/>
        <pt x="2301" y="354" on="1"/>
        <pt x="2256" y="354" on="1"/>
        <pt x="2243" y="342" on="1"/>
        <pt x="2243" y="305" on="1"/>
        <pt x="2277" y="272" on="0"/>
        <pt x="2299" y="272" on="1"/>
        <pt x="2313" y="272" on="0"/>
        <pt x="2330" y="284" on="0"/>
      </contour>
    </TTGlyph>
    <TTGlyph name="uniFB52" xMin="253" yMin="-766" xMax="3599" yMax="1833">
      <contour>
        <pt x="3599" y="1694" on="1"/>
        <pt x="3599" y="1648" on="0"/>
        <pt x="3566" y="1631" on="1"/>
        <pt x="3386" y="1547" on="0"/>
        <pt x="3033" y="1383" on="1"/>
        <pt x="2998" y="1383" on="1"/>
        <pt x="2985" y="1384" on="0"/>
        <pt x="2985" y="1407" on="1"/>
        <pt x="2985" y="1450" on="0"/>
        <pt x="3000" y="1463" on="1"/>
        <pt x="3037" y="1494" on="0"/>
        <pt x="3110" y="1526" on="1"/>
        <pt x="3172" y="1552" on="0"/>
        <pt x="3234" y="1579" on="1"/>
        <pt x="3455" y="1683" on="0"/>
        <pt x="3586" y="1730" on="1"/>
        <pt x="3599" y="1715" on="0"/>
      </contour>
      <contour>
        <pt x="3590" y="1204" on="1"/>
        <pt x="3566" y="1155" on="0"/>
        <pt x="3499" y="1143" on="1"/>
        <pt x="3418" y="1128" on="0"/>
        <pt x="3385" y="1099" on="1"/>
        <pt x="3422" y="986" on="0"/>
        <pt x="3432" y="907" on="1"/>
        <pt x="3508" y="294" on="0"/>
        <pt x="3508" y="148" on="1"/>
        <pt x="3508" y="129" on="0"/>
        <pt x="3454" y="21" on="1"/>
        <pt x="3443" y="21" on="0"/>
        <pt x="3418" y="54" on="1"/>
        <pt x="3313" y="1011" on="0"/>
        <pt x="3313" y="952" on="1"/>
        <pt x="3313" y="964" on="0"/>
        <pt x="3330" y="1011" on="1"/>
        <pt x="3350" y="1066" on="0"/>
        <pt x="3354" y="1089" on="1"/>
        <pt x="3345" y="1098" on="0"/>
        <pt x="3330" y="1092" on="1"/>
        <pt x="3323" y="1090" on="0"/>
        <pt x="3269" y="1065" on="0"/>
        <pt x="3257" y="1065" on="1"/>
        <pt x="3241" y="1065" on="0"/>
        <pt x="3229" y="1075" on="0"/>
        <pt x="3225" y="1079" on="1"/>
        <pt x="3222" y="1094" on="0"/>
        <pt x="3179" y="1144" on="1"/>
        <pt x="3139" y="1192" on="0"/>
        <pt x="3139" y="1208" on="1"/>
        <pt x="3139" y="1260" on="0"/>
        <pt x="3225" y="1329" on="1"/>
        <pt x="3306" y="1393" on="0"/>
        <pt x="3349" y="1393" on="1"/>
        <pt x="3446" y="1393" on="0"/>
        <pt x="3446" y="1316" on="1"/>
        <pt x="3446" y="1285" on="0"/>
        <pt x="3418" y="1264" on="1"/>
        <pt x="3397" y="1249" on="0"/>
        <pt x="3380" y="1249" on="1"/>
        <pt x="3367" y="1249" on="0"/>
        <pt x="3316" y="1290" on="0"/>
        <pt x="3303" y="1290" on="1"/>
        <pt x="3278" y="1290" on="0"/>
        <pt x="3251" y="1262" on="1"/>
        <pt x="3256" y="1227" on="0"/>
        <pt x="3302" y="1220" on="1"/>
        <pt x="3312" y="1218" on="0"/>
        <pt x="3374" y="1218" on="1"/>
        <pt x="3384" y="1218" on="0"/>
        <pt x="3489" y="1229" on="0"/>
        <pt x="3503" y="1229" on="1"/>
        <pt x="3553" y="1229" on="0"/>
      </contour>
      <contour>
        <pt x="2862" y="1638" on="1"/>
        <pt x="2862" y="1595" on="0"/>
        <pt x="2625" y="1463" on="1"/>
        <pt x="2471" y="1382" on="0"/>
        <pt x="2317" y="1300" on="1"/>
        <pt x="2307" y="1299" on="0"/>
        <pt x="2279" y="1325" on="0"/>
        <pt x="2279" y="1341" on="1"/>
        <pt x="2279" y="1389" on="0"/>
        <pt x="2312" y="1408" on="1"/>
        <pt x="2416" y="1469" on="0"/>
        <pt x="2815" y="1669" on="1"/>
        <pt x="2850" y="1669" on="1"/>
        <pt x="2862" y="1655" on="0"/>
      </contour>
      <contour>
        <pt x="1696" y="1479" on="1"/>
        <pt x="1696" y="1480" on="0"/>
        <pt x="1662" y="1413" on="1"/>
        <pt x="1636" y="1419" on="0"/>
        <pt x="1592" y="1438" on="1"/>
        <pt x="1555" y="1454" on="0"/>
        <pt x="1542" y="1454" on="1"/>
        <pt x="1528" y="1454" on="0"/>
        <pt x="1484" y="1418" on="1"/>
        <pt x="1429" y="1372" on="0"/>
        <pt x="1416" y="1365" on="1"/>
        <pt x="1349" y="1324" on="0"/>
        <pt x="1145" y="1229" on="0"/>
        <pt x="1125" y="1230" on="1"/>
        <pt x="1041" y="1230" on="1"/>
        <pt x="1041" y="1267" on="1"/>
        <pt x="1439" y="1442" on="0"/>
        <pt x="1439" y="1515" on="1"/>
        <pt x="1439" y="1523" on="0"/>
        <pt x="1388" y="1602" on="0"/>
        <pt x="1388" y="1633" on="1"/>
        <pt x="1388" y="1678" on="0"/>
        <pt x="1451" y="1752" on="1"/>
        <pt x="1521" y="1833" on="0"/>
        <pt x="1583" y="1833" on="1"/>
        <pt x="1655" y="1833" on="0"/>
        <pt x="1655" y="1735" on="1"/>
        <pt x="1655" y="1723" on="0"/>
        <pt x="1614" y="1600" on="0"/>
        <pt x="1614" y="1587" on="1"/>
        <pt x="1614" y="1575" on="0"/>
        <pt x="1696" y="1491" on="0"/>
      </contour>
      <contour>
        <pt x="3169" y="133" on="1"/>
        <pt x="3169" y="-38" on="0"/>
        <pt x="3031" y="-197" on="1"/>
        <pt x="2889" y="-358" on="0"/>
        <pt x="2729" y="-358" on="1"/>
        <pt x="2611" y="-358" on="1"/>
        <pt x="2572" y="-358" on="0"/>
        <pt x="2464" y="-315" on="1"/>
        <pt x="2464" y="-285" on="0"/>
        <pt x="2487" y="-270" on="1"/>
        <pt x="2529" y="-271" on="0"/>
        <pt x="2611" y="-263" on="1"/>
        <pt x="2668" y="-253" on="0"/>
        <pt x="2774" y="-222" on="1"/>
        <pt x="2871" y="-183" on="0"/>
        <pt x="2925" y="-122" on="1"/>
        <pt x="2974" y="-68" on="0"/>
        <pt x="3023" y="-15" on="1"/>
        <pt x="3087" y="61" on="0"/>
        <pt x="3087" y="92" on="1"/>
        <pt x="3087" y="105" on="0"/>
        <pt x="2944" y="284" on="0"/>
        <pt x="2944" y="297" on="1"/>
        <pt x="2944" y="320" on="0"/>
        <pt x="2959" y="356" on="1"/>
        <pt x="2977" y="399" on="0"/>
        <pt x="3001" y="399" on="1"/>
        <pt x="3083" y="399" on="0"/>
        <pt x="3132" y="283" on="1"/>
        <pt x="3169" y="197" on="0"/>
      </contour>
      <contour>
        <pt x="1643" y="1232" on="1"/>
        <pt x="1644" y="1182" on="0"/>
        <pt x="1596" y="1117" on="1"/>
        <pt x="1557" y="1065" on="0"/>
        <pt x="1538" y="1058" on="1"/>
        <pt x="1503" y="1049" on="0"/>
        <pt x="1436" y="1031" on="1"/>
        <pt x="1424" y="1026" on="0"/>
        <pt x="1387" y="1008" on="1"/>
        <pt x="1356" y="993" on="0"/>
        <pt x="1343" y="993" on="1"/>
        <pt x="1266" y="993" on="0"/>
        <pt x="1266" y="1075" on="1"/>
        <pt x="1266" y="1099" on="0"/>
        <pt x="1324" y="1195" on="0"/>
        <pt x="1352" y="1218" on="1"/>
        <pt x="1370" y="1205" on="1"/>
        <pt x="1368" y="1175" on="0"/>
        <pt x="1375" y="1115" on="1"/>
        <pt x="1415" y="1118" on="0"/>
        <pt x="1434" y="1167" on="1"/>
        <pt x="1460" y="1229" on="0"/>
        <pt x="1492" y="1248" on="1"/>
        <pt x="1499" y="1223" on="0"/>
        <pt x="1528" y="1167" on="1"/>
        <pt x="1528" y="1167" on="0"/>
        <pt x="1565" y="1226" on="1"/>
        <pt x="1580" y="1248" on="0"/>
        <pt x="1605" y="1289" on="1"/>
        <pt x="1643" y="1289" on="1"/>
      </contour>
      <contour>
        <pt x="2474" y="215" on="1"/>
        <pt x="2474" y="133" on="0"/>
        <pt x="2475" y="143" on="1"/>
        <pt x="2471" y="111" on="0"/>
        <pt x="2438" y="73" on="1"/>
        <pt x="2398" y="29" on="0"/>
        <pt x="2271" y="-3" on="1"/>
        <pt x="2160" y="-31" on="0"/>
        <pt x="2074" y="-31" on="1"/>
        <pt x="2030" y="-31" on="0"/>
        <pt x="2018" y="-5" on="1"/>
        <pt x="2013" y="6" on="0"/>
        <pt x="2013" y="46" on="1"/>
        <pt x="2013" y="143" on="0"/>
        <pt x="2059" y="143" on="1"/>
        <pt x="2072" y="143" on="0"/>
        <pt x="2117" y="133" on="0"/>
        <pt x="2131" y="133" on="1"/>
        <pt x="2195" y="133" on="0"/>
        <pt x="2272" y="152" on="1"/>
        <pt x="2371" y="176" on="0"/>
        <pt x="2371" y="215" on="1"/>
        <pt x="2371" y="275" on="0"/>
        <pt x="2272" y="356" on="1"/>
        <pt x="2220" y="394" on="0"/>
        <pt x="2167" y="432" on="1"/>
        <pt x="2146" y="456" on="0"/>
        <pt x="2146" y="481" on="1"/>
        <pt x="2146" y="512" on="0"/>
        <pt x="2161" y="541" on="1"/>
        <pt x="2177" y="573" on="0"/>
        <pt x="2202" y="573" on="1"/>
        <pt x="2283" y="573" on="0"/>
        <pt x="2374" y="471" on="1"/>
        <pt x="2459" y="374" on="0"/>
        <pt x="2470" y="292" on="1"/>
        <pt x="2474" y="262" on="0"/>
      </contour>
      <contour>
        <pt x="1675" y="758" on="1"/>
        <pt x="1675" y="737" on="0"/>
        <pt x="1616" y="655" on="0"/>
        <pt x="1598" y="655" on="1"/>
        <pt x="1585" y="655" on="0"/>
        <pt x="1493" y="696" on="0"/>
        <pt x="1480" y="696" on="1"/>
        <pt x="1470" y="696" on="0"/>
        <pt x="1397" y="635" on="0"/>
        <pt x="1383" y="635" on="1"/>
        <pt x="1356" y="635" on="0"/>
        <pt x="1320" y="658" on="1"/>
        <pt x="1275" y="685" on="0"/>
        <pt x="1275" y="717" on="1"/>
        <pt x="1275" y="746" on="0"/>
        <pt x="1309" y="784" on="1"/>
        <pt x="1341" y="819" on="0"/>
        <pt x="1357" y="819" on="1"/>
        <pt x="1370" y="819" on="0"/>
        <pt x="1443" y="778" on="0"/>
        <pt x="1455" y="778" on="1"/>
        <pt x="1468" y="778" on="0"/>
        <pt x="1539" y="850" on="0"/>
        <pt x="1552" y="850" on="1"/>
        <pt x="1583" y="850" on="0"/>
        <pt x="1630" y="812" on="1"/>
        <pt x="1675" y="776" on="0"/>
      </contour>
      <contour>
        <pt x="794" y="967" on="1"/>
        <pt x="794" y="949" on="0"/>
        <pt x="757" y="911" on="0"/>
        <pt x="738" y="911" on="1"/>
        <pt x="725" y="911" on="0"/>
        <pt x="674" y="931" on="0"/>
        <pt x="661" y="931" on="1"/>
        <pt x="659" y="931" on="0"/>
        <pt x="342" y="727" on="0"/>
        <pt x="296" y="727" on="1"/>
        <pt x="253" y="727" on="1"/>
        <pt x="253" y="765" on="1"/>
        <pt x="549" y="953" on="0"/>
        <pt x="549" y="983" on="1"/>
        <pt x="549" y="995" on="0"/>
        <pt x="511" y="1046" on="1"/>
        <pt x="497" y="1065" on="0"/>
        <pt x="497" y="1116" on="1"/>
        <pt x="497" y="1166" on="0"/>
        <pt x="544" y="1236" on="1"/>
        <pt x="599" y="1321" on="0"/>
        <pt x="667" y="1321" on="1"/>
        <pt x="748" y="1321" on="0"/>
        <pt x="748" y="1213" on="1"/>
        <pt x="748" y="1174" on="0"/>
        <pt x="725" y="1061" on="0"/>
        <pt x="725" y="1061" on="1"/>
        <pt x="745" y="1036" on="0"/>
        <pt x="779" y="1008" on="1"/>
        <pt x="794" y="995" on="0"/>
      </contour>
      <contour>
        <pt x="1746" y="240" on="1"/>
        <pt x="1746" y="197" on="0"/>
        <pt x="1707" y="118" on="1"/>
        <pt x="1672" y="49" on="0"/>
        <pt x="1662" y="44" on="1"/>
        <pt x="1624" y="25" on="0"/>
        <pt x="1558" y="2" on="1"/>
        <pt x="1367" y="-31" on="0"/>
        <pt x="1311" y="-31" on="1"/>
        <pt x="1315" y="-31" on="0"/>
        <pt x="1227" y="-38" on="1"/>
        <pt x="1149" y="-44" on="0"/>
        <pt x="1107" y="-40" on="1"/>
        <pt x="1094" y="-40" on="0"/>
        <pt x="1005" y="-28" on="1"/>
        <pt x="936" y="-18" on="0"/>
        <pt x="894" y="-19" on="1"/>
        <pt x="875" y="-80" on="0"/>
        <pt x="831" y="-202" on="1"/>
        <pt x="817" y="-225" on="0"/>
        <pt x="790" y="-225" on="1"/>
        <pt x="740" y="-225" on="0"/>
        <pt x="692" y="-155" on="1"/>
        <pt x="647" y="-89" on="0"/>
        <pt x="647" y="-25" on="1"/>
        <pt x="647" y="16" on="0"/>
        <pt x="672" y="36" on="1"/>
        <pt x="643" y="61" on="0"/>
        <pt x="620" y="61" on="1"/>
        <pt x="562" y="61" on="0"/>
        <pt x="499" y="35" on="1"/>
        <pt x="414" y="1" on="0"/>
        <pt x="414" y="-58" on="1"/>
        <pt x="414" y="-67" on="0"/>
        <pt x="415" y="-76" on="1"/>
        <pt x="487" y="-649" on="1"/>
        <pt x="487" y="-701" on="0"/>
        <pt x="454" y="-766" on="1"/>
        <pt x="417" y="-766" on="1"/>
        <pt x="323" y="-154" on="1"/>
        <pt x="323" y="54" on="0"/>
        <pt x="469" y="159" on="1"/>
        <pt x="512" y="190" on="0"/>
        <pt x="613" y="209" on="1"/>
        <pt x="686" y="222" on="0"/>
        <pt x="704" y="275" on="1"/>
        <pt x="740" y="275" on="1"/>
        <pt x="776" y="229" on="0"/>
        <pt x="853" y="165" on="1"/>
        <pt x="986" y="112" on="0"/>
        <pt x="1173" y="112" on="1"/>
        <pt x="1296" y="112" on="0"/>
        <pt x="1436" y="132" on="1"/>
        <pt x="1634" y="160" on="0"/>
        <pt x="1634" y="210" on="1"/>
        <pt x="1634" y="220" on="0"/>
        <pt x="1532" y="370" on="0"/>
        <pt x="1532" y="383" on="1"/>
        <pt x="1532" y="413" on="0"/>
        <pt x="1547" y="448" on="1"/>
        <pt x="1567" y="492" on="0"/>
        <pt x="1593" y="492" on="1"/>
        <pt x="1644" y="492" on="0"/>
        <pt x="1700" y="376" on="1"/>
        <pt x="1746" y="279" on="0"/>
      </contour>
      <contour>
        <pt x="1561" y="1629" on="1"/>
        <pt x="1549" y="1709" on="1"/>
        <pt x="1501" y="1685" on="0"/>
        <pt x="1501" y="1662" on="1"/>
        <pt x="1518" y="1629" on="0"/>
      </contour>
      <contour>
        <pt x="671" y="1119" on="1"/>
        <pt x="671" y="1164" on="1"/>
        <pt x="648" y="1188" on="0"/>
        <pt x="631" y="1188" on="1"/>
        <pt x="613" y="1188" on="0"/>
        <pt x="590" y="1164" on="1"/>
        <pt x="590" y="1129" on="1"/>
        <pt x="623" y="1095" on="0"/>
        <pt x="648" y="1095" on="1"/>
      </contour>
    </TTGlyph>
    <TTGlyph name="uniFB53" xMin="374" yMin="-538" xMax="5637" yMax="1508">
      <contour>
        <pt x="5637" y="1304" on="1"/>
        <pt x="5637" y="1210" on="0"/>
        <pt x="5519" y="1133" on="1"/>
        <pt x="5423" y="1069" on="0"/>
        <pt x="5360" y="1069" on="1"/>
        <pt x="5350" y="1069" on="0"/>
        <pt x="5302" y="1079" on="0"/>
        <pt x="5289" y="1079" on="1"/>
        <pt x="5255" y="1079" on="0"/>
        <pt x="5214" y="1040" on="1"/>
        <pt x="5177" y="1040" on="1"/>
        <pt x="5179" y="1064" on="0"/>
        <pt x="5202" y="1109" on="1"/>
        <pt x="5229" y="1162" on="0"/>
        <pt x="5261" y="1177" on="1"/>
        <pt x="5293" y="1181" on="0"/>
        <pt x="5352" y="1203" on="1"/>
        <pt x="5394" y="1257" on="0"/>
        <pt x="5436" y="1309" on="1"/>
        <pt x="5505" y="1397" on="0"/>
        <pt x="5560" y="1397" on="1"/>
        <pt x="5592" y="1397" on="0"/>
        <pt x="5616" y="1363" on="1"/>
        <pt x="5637" y="1334" on="0"/>
      </contour>
      <contour>
        <pt x="5545" y="199" on="1"/>
        <pt x="5555" y="113" on="0"/>
        <pt x="5502" y="16" on="1"/>
        <pt x="5495" y="15" on="0"/>
        <pt x="5477" y="4" on="1"/>
        <pt x="5360" y="865" on="1"/>
        <pt x="5373" y="894" on="0"/>
        <pt x="5386" y="923" on="1"/>
        <pt x="5407" y="963" on="0"/>
        <pt x="5440" y="976" on="1"/>
      </contour>
      <contour>
        <pt x="4889" y="1110" on="1"/>
        <pt x="4889" y="1089" on="0"/>
        <pt x="4797" y="983" on="0"/>
        <pt x="4763" y="969" on="1"/>
        <pt x="4696" y="953" on="0"/>
        <pt x="4557" y="915" on="1"/>
        <pt x="4512" y="927" on="1"/>
        <pt x="4512" y="955" on="1"/>
        <pt x="4558" y="990" on="0"/>
        <pt x="4655" y="1026" on="1"/>
        <pt x="4655" y="1050" on="1"/>
        <pt x="4653" y="1050" on="0"/>
        <pt x="4621" y="1058" on="0"/>
        <pt x="4608" y="1058" on="1"/>
        <pt x="4593" y="1058" on="0"/>
        <pt x="4546" y="1031" on="1"/>
        <pt x="4480" y="990" on="0"/>
        <pt x="4473" y="987" on="1"/>
        <pt x="4459" y="989" on="0"/>
        <pt x="4459" y="1013" on="1"/>
        <pt x="4459" y="1038" on="0"/>
        <pt x="4563" y="1149" on="0"/>
        <pt x="4586" y="1157" on="1"/>
        <pt x="4633" y="1171" on="0"/>
        <pt x="4669" y="1171" on="1"/>
        <pt x="4651" y="1171" on="0"/>
        <pt x="4878" y="1139" on="1"/>
        <pt x="4878" y="1135" on="0"/>
        <pt x="4889" y="1125" on="0"/>
      </contour>
      <contour>
        <pt x="3599" y="721" on="1"/>
        <pt x="3599" y="691" on="0"/>
        <pt x="3535" y="628" on="0"/>
        <pt x="3512" y="628" on="1"/>
        <pt x="3499" y="628" on="0"/>
        <pt x="3448" y="649" on="0"/>
        <pt x="3435" y="649" on="1"/>
        <pt x="3423" y="649" on="0"/>
        <pt x="3346" y="598" on="0"/>
        <pt x="3333" y="598" on="1"/>
        <pt x="3299" y="598" on="0"/>
        <pt x="3231" y="648" on="0"/>
        <pt x="3231" y="674" on="1"/>
        <pt x="3231" y="701" on="0"/>
        <pt x="3298" y="772" on="0"/>
        <pt x="3318" y="772" on="1"/>
        <pt x="3329" y="772" on="0"/>
        <pt x="3385" y="741" on="0"/>
        <pt x="3400" y="741" on="1"/>
        <pt x="3412" y="741" on="0"/>
        <pt x="3485" y="803" on="0"/>
        <pt x="3497" y="803" on="1"/>
        <pt x="3529" y="803" on="0"/>
        <pt x="3599" y="741" on="0"/>
      </contour>
      <contour>
        <pt x="3118" y="1198" on="1"/>
        <pt x="3112" y="1149" on="0"/>
        <pt x="2868" y="956" on="0"/>
        <pt x="2815" y="957" on="1"/>
        <pt x="2750" y="957" on="1"/>
        <pt x="2750" y="995" on="1"/>
        <pt x="2807" y="1035" on="0"/>
        <pt x="2924" y="1117" on="1"/>
        <pt x="2914" y="1140" on="0"/>
        <pt x="2862" y="1140" on="1"/>
        <pt x="2823" y="1140" on="0"/>
        <pt x="2780" y="1112" on="1"/>
        <pt x="2705" y="1062" on="0"/>
        <pt x="2679" y="1049" on="1"/>
        <pt x="2679" y="1083" on="1"/>
        <pt x="2678" y="1112" on="0"/>
        <pt x="2751" y="1181" on="1"/>
        <pt x="2817" y="1243" on="0"/>
        <pt x="2835" y="1249" on="1"/>
        <pt x="2847" y="1253" on="0"/>
        <pt x="2893" y="1253" on="1"/>
        <pt x="2918" y="1253" on="0"/>
        <pt x="2997" y="1238" on="1"/>
        <pt x="3091" y="1219" on="0"/>
      </contour>
      <contour>
        <pt x="5217" y="214" on="1"/>
        <pt x="5217" y="128" on="0"/>
        <pt x="5187" y="65" on="1"/>
        <pt x="5147" y="-16" on="0"/>
        <pt x="5069" y="-16" on="1"/>
        <pt x="5057" y="-16" on="0"/>
        <pt x="4937" y="45" on="0"/>
        <pt x="4925" y="45" on="1"/>
        <pt x="4913" y="45" on="0"/>
        <pt x="4891" y="28" on="1"/>
        <pt x="4861" y="4" on="0"/>
        <pt x="4846" y="-3" on="1"/>
        <pt x="4798" y="-27" on="0"/>
        <pt x="4680" y="-27" on="1"/>
        <pt x="4595" y="-27" on="0"/>
        <pt x="4586" y="-23" on="1"/>
        <pt x="4571" y="-19" on="0"/>
        <pt x="4538" y="9" on="1"/>
        <pt x="4509" y="34" on="0"/>
        <pt x="4495" y="34" on="1"/>
        <pt x="4485" y="34" on="0"/>
        <pt x="4437" y="15" on="1"/>
        <pt x="4383" y="-7" on="0"/>
        <pt x="4353" y="-13" on="1"/>
        <pt x="4144" y="-57" on="0"/>
        <pt x="4055" y="-57" on="1"/>
        <pt x="3881" y="-57" on="1"/>
        <pt x="3756" y="-57" on="0"/>
        <pt x="3603" y="-23" on="1"/>
        <pt x="3584" y="-19" on="0"/>
        <pt x="3533" y="19" on="1"/>
        <pt x="3485" y="55" on="0"/>
        <pt x="3471" y="55" on="1"/>
        <pt x="3462" y="55" on="0"/>
        <pt x="3272" y="-57" on="0"/>
        <pt x="3200" y="-57" on="1"/>
        <pt x="3130" y="-57" on="0"/>
        <pt x="3020" y="55" on="0"/>
        <pt x="3000" y="55" on="1"/>
        <pt x="2994" y="55" on="0"/>
        <pt x="2922" y="-2" on="1"/>
        <pt x="2886" y="-31" on="0"/>
        <pt x="2793" y="-50" on="1"/>
        <pt x="2711" y="-67" on="0"/>
        <pt x="2647" y="-67" on="1"/>
        <pt x="2510" y="-67" on="0"/>
        <pt x="2414" y="7" on="1"/>
        <pt x="2396" y="21" on="0"/>
        <pt x="2374" y="61" on="1"/>
        <pt x="2345" y="113" on="0"/>
        <pt x="2334" y="127" on="1"/>
        <pt x="2296" y="88" on="0"/>
        <pt x="2214" y="28" on="1"/>
        <pt x="2156" y="0" on="0"/>
        <pt x="2052" y="-25" on="1"/>
        <pt x="1962" y="-47" on="0"/>
        <pt x="1935" y="-47" on="1"/>
        <pt x="1881" y="-47" on="0"/>
        <pt x="1787" y="7" on="1"/>
        <pt x="1790" y="41" on="0"/>
        <pt x="1794" y="75" on="1"/>
        <pt x="1804" y="137" on="0"/>
        <pt x="1844" y="137" on="1"/>
        <pt x="1855" y="137" on="0"/>
        <pt x="1944" y="116" on="0"/>
        <pt x="1956" y="116" on="1"/>
        <pt x="2019" y="116" on="0"/>
        <pt x="2134" y="149" on="1"/>
        <pt x="2289" y="193" on="0"/>
        <pt x="2289" y="255" on="1"/>
        <pt x="2289" y="265" on="0"/>
        <pt x="2217" y="547" on="0"/>
        <pt x="2217" y="562" on="1"/>
        <pt x="2217" y="581" on="0"/>
        <pt x="2238" y="641" on="1"/>
        <pt x="2261" y="706" on="0"/>
        <pt x="2275" y="710" on="1"/>
        <pt x="2283" y="703" on="0"/>
        <pt x="2305" y="667" on="1"/>
        <pt x="2338" y="528" on="0"/>
        <pt x="2370" y="390" on="1"/>
        <pt x="2407" y="240" on="0"/>
        <pt x="2465" y="174" on="1"/>
        <pt x="2540" y="86" on="0"/>
        <pt x="2683" y="86" on="1"/>
        <pt x="2774" y="86" on="0"/>
        <pt x="2850" y="115" on="1"/>
        <pt x="2950" y="152" on="0"/>
        <pt x="2968" y="226" on="1"/>
        <pt x="2977" y="239" on="0"/>
        <pt x="2999" y="259" on="1"/>
        <pt x="3036" y="259" on="1"/>
        <pt x="3030" y="190" on="0"/>
        <pt x="3107" y="129" on="1"/>
        <pt x="3172" y="75" on="0"/>
        <pt x="3216" y="75" on="1"/>
        <pt x="3236" y="75" on="0"/>
        <pt x="3285" y="102" on="1"/>
        <pt x="3501" y="219" on="0"/>
        <pt x="3512" y="219" on="1"/>
        <pt x="3531" y="219" on="0"/>
        <pt x="3556" y="195" on="1"/>
        <pt x="3590" y="160" on="0"/>
        <pt x="3607" y="149" on="1"/>
        <pt x="3692" y="96" on="0"/>
        <pt x="3785" y="96" on="1"/>
        <pt x="3956" y="96" on="1"/>
        <pt x="4155" y="96" on="0"/>
        <pt x="4331" y="119" on="1"/>
        <pt x="4367" y="130" on="0"/>
        <pt x="4443" y="150" on="1"/>
        <pt x="4482" y="157" on="0"/>
        <pt x="4545" y="232" on="0"/>
        <pt x="4575" y="270" on="1"/>
        <pt x="4610" y="270" on="1"/>
        <pt x="4624" y="256" on="0"/>
        <pt x="4624" y="236" on="1"/>
        <pt x="4624" y="220" on="0"/>
        <pt x="4603" y="159" on="0"/>
        <pt x="4603" y="147" on="1"/>
        <pt x="4603" y="106" on="0"/>
        <pt x="4669" y="106" on="1"/>
        <pt x="4808" y="106" on="0"/>
        <pt x="4861" y="149" on="1"/>
        <pt x="4880" y="164" on="0"/>
        <pt x="4907" y="220" on="1"/>
        <pt x="4948" y="301" on="0"/>
        <pt x="4953" y="310" on="1"/>
        <pt x="4989" y="310" on="1"/>
        <pt x="4995" y="265" on="0"/>
        <pt x="5000" y="220" on="1"/>
        <pt x="5007" y="157" on="0"/>
        <pt x="5060" y="157" on="1"/>
        <pt x="5098" y="157" on="1"/>
        <pt x="5108" y="165" on="1"/>
        <pt x="5107" y="184" on="0"/>
        <pt x="5101" y="235" on="1"/>
        <pt x="5094" y="283" on="0"/>
        <pt x="5094" y="296" on="1"/>
        <pt x="5094" y="299" on="0"/>
        <pt x="5150" y="383" on="1"/>
        <pt x="5171" y="364" on="0"/>
        <pt x="5193" y="310" on="1"/>
        <pt x="5217" y="253" on="0"/>
      </contour>
      <contour>
        <pt x="2453" y="1350" on="1"/>
        <pt x="2453" y="1307" on="0"/>
        <pt x="2183" y="1150" on="1"/>
        <pt x="1958" y="1018" on="0"/>
        <pt x="1840" y="967" on="1"/>
        <pt x="1840" y="971" on="0"/>
        <pt x="1828" y="982" on="0"/>
        <pt x="1828" y="997" on="1"/>
        <pt x="1828" y="1044" on="0"/>
        <pt x="1944" y="1118" on="1"/>
        <pt x="2010" y="1156" on="0"/>
        <pt x="2076" y="1194" on="1"/>
        <pt x="2166" y="1248" on="0"/>
        <pt x="2255" y="1302" on="1"/>
        <pt x="2364" y="1366" on="0"/>
        <pt x="2438" y="1386" on="1"/>
        <pt x="2453" y="1372" on="0"/>
      </contour>
      <contour>
        <pt x="3794" y="-287" on="1"/>
        <pt x="3794" y="-336" on="0"/>
        <pt x="3686" y="-384" on="1"/>
        <pt x="3507" y="-461" on="0"/>
        <pt x="3329" y="-538" on="1"/>
        <pt x="3295" y="-538" on="1"/>
        <pt x="3282" y="-525" on="0"/>
        <pt x="3282" y="-502" on="1"/>
        <pt x="3282" y="-448" on="0"/>
        <pt x="3436" y="-381" on="1"/>
        <pt x="3520" y="-351" on="0"/>
        <pt x="3602" y="-321" on="1"/>
        <pt x="3661" y="-291" on="0"/>
        <pt x="3780" y="-252" on="1"/>
        <pt x="3794" y="-266" on="0"/>
      </contour>
      <contour>
        <pt x="3067" y="-262" on="1"/>
        <pt x="3067" y="-354" on="0"/>
        <pt x="2980" y="-354" on="1"/>
        <pt x="2939" y="-354" on="0"/>
        <pt x="2905" y="-324" on="1"/>
        <pt x="2873" y="-297" on="0"/>
        <pt x="2873" y="-272" on="1"/>
        <pt x="2873" y="-248" on="0"/>
        <pt x="2940" y="-180" on="0"/>
        <pt x="2964" y="-180" on="1"/>
        <pt x="2998" y="-180" on="0"/>
        <pt x="3034" y="-213" on="1"/>
        <pt x="3067" y="-244" on="0"/>
      </contour>
      <contour>
        <pt x="1121" y="1461" on="1"/>
        <pt x="1122" y="1417" on="0"/>
        <pt x="565" y="1090" on="1"/>
        <pt x="520" y="1090" on="1"/>
        <pt x="508" y="1091" on="0"/>
        <pt x="508" y="1115" on="1"/>
        <pt x="508" y="1157" on="0"/>
        <pt x="736" y="1298" on="1"/>
        <pt x="911" y="1402" on="0"/>
        <pt x="1084" y="1508" on="1"/>
        <pt x="1121" y="1508" on="1"/>
      </contour>
      <contour>
        <pt x="1582" y="188" on="1"/>
        <pt x="1582" y="120" on="0"/>
        <pt x="1539" y="25" on="1"/>
        <pt x="1513" y="25" on="0"/>
        <pt x="1504" y="38" on="1"/>
        <pt x="1483" y="151" on="0"/>
        <pt x="1441" y="397" on="1"/>
        <pt x="1439" y="464" on="0"/>
        <pt x="1425" y="602" on="1"/>
        <pt x="1415" y="668" on="0"/>
        <pt x="1379" y="833" on="1"/>
        <pt x="1347" y="981" on="0"/>
        <pt x="1347" y="992" on="1"/>
        <pt x="1347" y="1014" on="0"/>
        <pt x="1372" y="1059" on="1"/>
        <pt x="1397" y="1108" on="0"/>
        <pt x="1424" y="1130" on="1"/>
        <pt x="1459" y="1081" on="0"/>
        <pt x="1466" y="1023" on="1"/>
        <pt x="1484" y="882" on="0"/>
        <pt x="1537" y="512" on="1"/>
        <pt x="1582" y="201" on="0"/>
      </contour>
      <contour>
        <pt x="1111" y="220" on="1"/>
        <pt x="1113" y="205" on="0"/>
        <pt x="1109" y="179" on="1"/>
        <pt x="1104" y="148" on="0"/>
        <pt x="1104" y="142" on="1"/>
        <pt x="1099" y="-14" on="0"/>
        <pt x="949" y="-111" on="1"/>
        <pt x="825" y="-190" on="0"/>
        <pt x="692" y="-190" on="1"/>
        <pt x="548" y="-190" on="0"/>
        <pt x="462" y="-116" on="1"/>
        <pt x="374" y="-39" on="0"/>
        <pt x="374" y="96" on="1"/>
        <pt x="374" y="152" on="0"/>
        <pt x="407" y="231" on="1"/>
        <pt x="443" y="320" on="0"/>
        <pt x="485" y="330" on="1"/>
        <pt x="485" y="308" on="0"/>
        <pt x="467" y="193" on="0"/>
        <pt x="467" y="164" on="1"/>
        <pt x="467" y="147" on="0"/>
        <pt x="469" y="133" on="1"/>
        <pt x="480" y="71" on="0"/>
        <pt x="615" y="-36" on="0"/>
        <pt x="681" y="-36" on="1"/>
        <pt x="766" y="-36" on="0"/>
        <pt x="876" y="3" on="1"/>
        <pt x="1021" y="56" on="0"/>
        <pt x="1021" y="136" on="1"/>
        <pt x="1021" y="143" on="0"/>
        <pt x="1020" y="152" on="1"/>
        <pt x="876" y="1032" on="1"/>
        <pt x="875" y="1040" on="0"/>
        <pt x="875" y="1048" on="1"/>
        <pt x="875" y="1111" on="0"/>
        <pt x="952" y="1222" on="1"/>
        <pt x="988" y="1203" on="0"/>
        <pt x="992" y="1159" on="1"/>
        <pt x="1000" y="1080" on="0"/>
        <pt x="1001" y="1077" on="1"/>
        <pt x="1020" y="1067" on="0"/>
        <pt x="1056" y="1043" on="1"/>
        <pt x="1070" y="1017" on="0"/>
        <pt x="1070" y="1008" on="1"/>
        <pt x="1070" y="998" on="0"/>
        <pt x="1020" y="868" on="0"/>
        <pt x="1020" y="839" on="1"/>
      </contour>
      <contour>
        <pt x="5534" y="1259" on="1"/>
        <pt x="5525" y="1268" on="0"/>
        <pt x="5510" y="1274" on="1"/>
        <pt x="5457" y="1259" on="0"/>
        <pt x="5433" y="1203" on="1"/>
        <pt x="5469" y="1203" on="1"/>
        <pt x="5517" y="1224" on="0"/>
      </contour>
    </TTGlyph>
</ttFont>
